<svg width="90" height="39" viewBox="0 0 90 39" fill="none" xmlns="http://www.w3.org/2000/svg">
<rect width="90" height="39" rx="5" fill="#F2F2F2"/>
<path d="M22.924 25V13.64H30.38V14.632H24.044V18.808H29.388V19.736H24.044V25H22.924ZM32.1219 25V16.664H33.2099V25H32.1219ZM32.1219 14.92V13.32H33.2099V14.92H32.1219ZM38.9503 25.112C38.3849 25.112 37.8623 24.9947 37.3823 24.76C36.9023 24.5253 36.4863 24.2107 36.1343 23.816C35.7929 23.4107 35.5263 22.952 35.3343 22.44C35.1423 21.928 35.0463 21.4 35.0463 20.856C35.0463 20.2693 35.1369 19.72 35.3183 19.208C35.5103 18.6853 35.7769 18.2213 36.1183 17.816C36.4703 17.4107 36.8809 17.096 37.3503 16.872C37.8196 16.6373 38.3423 16.52 38.9183 16.52C39.6329 16.52 40.2516 16.7013 40.7743 17.064C41.3076 17.4267 41.7556 17.8747 42.1183 18.408V16.664H43.0943V25.032C43.0943 25.8 42.9076 26.4453 42.5343 26.968C42.1716 27.5013 41.6756 27.9013 41.0463 28.168C40.4276 28.4347 39.7503 28.568 39.0143 28.568C38.0649 28.568 37.2969 28.3973 36.7103 28.056C36.1236 27.7147 35.6436 27.256 35.2703 26.68L35.9423 26.152C36.2729 26.6747 36.7103 27.064 37.2543 27.32C37.8089 27.576 38.3956 27.704 39.0143 27.704C39.5583 27.704 40.0543 27.6027 40.5023 27.4C40.9609 27.208 41.3236 26.9147 41.5903 26.52C41.8676 26.1253 42.0063 25.6293 42.0063 25.032V23.384C41.6863 23.9067 41.2489 24.328 40.6943 24.648C40.1396 24.9573 39.5583 25.112 38.9503 25.112ZM39.2543 24.2C39.5849 24.2 39.8996 24.1413 40.1983 24.024C40.5076 23.9067 40.7903 23.752 41.0463 23.56C41.3023 23.3573 41.5156 23.1333 41.6863 22.888C41.8569 22.6427 41.9636 22.392 42.0063 22.136V19.56C41.8463 19.1547 41.6169 18.7973 41.3183 18.488C41.0196 18.168 40.6783 17.9227 40.2943 17.752C39.9209 17.5707 39.5316 17.48 39.1263 17.48C38.6569 17.48 38.2356 17.5813 37.8623 17.784C37.4996 17.976 37.1903 18.2373 36.9343 18.568C36.6889 18.888 36.4969 19.2507 36.3583 19.656C36.2196 20.0613 36.1503 20.4667 36.1503 20.872C36.1503 21.32 36.2303 21.7467 36.3903 22.152C36.5503 22.5467 36.7689 22.904 37.0463 23.224C37.3343 23.5333 37.6649 23.7733 38.0383 23.944C38.4223 24.1147 38.8276 24.2 39.2543 24.2ZM57.8969 25H56.8089V20.344C56.8089 19.3733 56.6542 18.6587 56.3449 18.2C56.0355 17.7413 55.5769 17.512 54.9689 17.512C54.3395 17.512 53.7742 17.736 53.2729 18.184C52.7822 18.632 52.4355 19.208 52.2329 19.912V25H51.1449V20.344C51.1449 19.3627 50.9955 18.648 50.6969 18.2C50.3982 17.7413 49.9395 17.512 49.3209 17.512C48.7022 17.512 48.1422 17.7307 47.6409 18.168C47.1395 18.6053 46.7875 19.1813 46.5849 19.896V25H45.4969V16.664H46.4889V18.552C46.8409 17.9013 47.2889 17.4 47.8329 17.048C48.3875 16.696 49.0009 16.52 49.6729 16.52C50.3662 16.52 50.9262 16.7173 51.3529 17.112C51.7795 17.5067 52.0409 18.024 52.1369 18.664C52.5209 17.96 52.9795 17.4267 53.5129 17.064C54.0569 16.7013 54.6702 16.52 55.3529 16.52C55.8222 16.52 56.2169 16.6053 56.5369 16.776C56.8675 16.9467 57.1289 17.192 57.3209 17.512C57.5235 17.8213 57.6675 18.2 57.7529 18.648C57.8489 19.0853 57.8969 19.576 57.8969 20.12V25ZM59.528 22.6C59.528 22.0773 59.6773 21.6293 59.976 21.256C60.2747 20.872 60.6853 20.5787 61.208 20.376C61.7413 20.1627 62.3547 20.056 63.048 20.056C63.4533 20.056 63.8747 20.088 64.312 20.152C64.7493 20.216 65.1387 20.312 65.48 20.44V19.736C65.48 19.032 65.272 18.472 64.856 18.056C64.44 17.64 63.864 17.432 63.128 17.432C62.68 17.432 62.2373 17.5173 61.8 17.688C61.3733 17.848 60.9253 18.088 60.456 18.408L60.04 17.64C60.584 17.2667 61.1173 16.9893 61.64 16.808C62.1627 16.616 62.696 16.52 63.24 16.52C64.264 16.52 65.0747 16.8133 65.672 17.4C66.2693 17.9867 66.568 18.7973 66.568 19.832V23.688C66.568 23.8373 66.6 23.9493 66.664 24.024C66.728 24.088 66.8293 24.1253 66.968 24.136V25C66.8507 25.0107 66.7493 25.0213 66.664 25.032C66.5787 25.0427 66.5147 25.0427 66.472 25.032C66.2053 25.0213 66.0027 24.936 65.864 24.776C65.7253 24.616 65.6507 24.4453 65.64 24.264L65.624 23.656C65.2507 24.136 64.7653 24.5093 64.168 24.776C63.5707 25.032 62.9627 25.16 62.344 25.16C61.8107 25.16 61.3253 25.048 60.888 24.824C60.4613 24.5893 60.1253 24.28 59.88 23.896C59.6453 23.5013 59.528 23.0693 59.528 22.6ZM65.112 23.24C65.2293 23.0907 65.32 22.9467 65.384 22.808C65.448 22.6693 65.48 22.5467 65.48 22.44V21.224C65.1173 21.0853 64.7387 20.9787 64.344 20.904C63.96 20.8293 63.5707 20.792 63.176 20.792C62.3973 20.792 61.768 20.9467 61.288 21.256C60.808 21.5653 60.568 21.9867 60.568 22.52C60.568 22.8293 60.648 23.1227 60.808 23.4C60.968 23.6667 61.2027 23.8907 61.512 24.072C61.8213 24.2427 62.184 24.328 62.6 24.328C63.1227 24.328 63.608 24.2267 64.056 24.024C64.5147 23.8213 64.8667 23.56 65.112 23.24Z" fill="#292929"/>
</svg>
