<svg width="186" height="106" viewBox="0 0 186 106" fill="none" xmlns="http://www.w3.org/2000/svg">
<rect x="0.5" y="0.5" width="185" height="105" rx="4.5" stroke="#9747FF" stroke-dasharray="10 5"/>
<path d="M25.4316 41.72V37.76H26.0316C26.4049 37.76 26.7316 37.6067 27.0116 37.3C27.3049 36.9933 27.5516 36.5 27.7516 35.82C27.9649 35.1267 28.1316 34.2 28.2516 33.04C28.3849 31.88 28.4782 30.44 28.5316 28.72L28.6316 24.8H37.1316V37.76H38.8316V41.72H37.5916V39H26.6716V41.72H25.4316ZM28.0316 37.76H35.7316V26.04H29.9116L29.8316 28.88C29.7916 30.68 29.6982 32.1867 29.5516 33.4C29.4182 34.6 29.2249 35.5533 28.9716 36.26C28.7182 36.9533 28.4049 37.4533 28.0316 37.76ZM45.592 39.2C44.8454 39.2 44.152 39.06 43.512 38.78C42.8854 38.4867 42.3387 38.0933 41.872 37.6C41.4187 37.0933 41.0654 36.52 40.812 35.88C40.5587 35.2267 40.432 34.54 40.432 33.82C40.432 33.0733 40.5587 32.38 40.812 31.74C41.0654 31.0867 41.4254 30.5133 41.892 30.02C42.3587 29.5133 42.9054 29.12 43.532 28.84C44.172 28.5467 44.8654 28.4 45.612 28.4C46.3587 28.4 47.0454 28.5467 47.672 28.84C48.2987 29.12 48.8454 29.5133 49.312 30.02C49.7787 30.5133 50.1387 31.0867 50.392 31.74C50.6454 32.38 50.772 33.0733 50.772 33.82C50.772 34.54 50.6454 35.2267 50.392 35.88C50.1387 36.52 49.7787 37.0933 49.312 37.6C48.8587 38.0933 48.312 38.4867 47.672 38.78C47.0454 39.06 46.352 39.2 45.592 39.2ZM41.812 33.84C41.812 34.6133 41.9787 35.32 42.312 35.96C42.6587 36.5867 43.1187 37.0867 43.692 37.46C44.2654 37.82 44.8987 38 45.592 38C46.2854 38 46.9187 37.8133 47.492 37.44C48.0654 37.0667 48.5254 36.56 48.872 35.92C49.2187 35.2667 49.392 34.56 49.392 33.8C49.392 33.0267 49.2187 32.32 48.872 31.68C48.5254 31.04 48.0654 30.5333 47.492 30.16C46.9187 29.7867 46.2854 29.6 45.592 29.6C44.8987 29.6 44.2654 29.7933 43.692 30.18C43.132 30.5667 42.6787 31.08 42.332 31.72C41.9854 32.3467 41.812 33.0533 41.812 33.84ZM52.0466 39.06V37.82C52.4066 37.82 52.7266 37.7267 53.0066 37.54C53.2866 37.34 53.5332 37.0067 53.7466 36.54C53.9732 36.0733 54.1532 35.4333 54.2866 34.62C54.4199 33.7933 54.5066 32.7467 54.5466 31.48L54.6666 28.58H61.4266V39H60.0666V29.8H55.8666L55.8266 31.6C55.7732 33.04 55.6599 34.2467 55.4866 35.22C55.3132 36.18 55.0666 36.94 54.7466 37.5C54.4399 38.06 54.0599 38.46 53.6066 38.7C53.1532 38.94 52.6332 39.06 52.0466 39.06ZM63.6933 39L67.5933 33.64L64.0733 28.58H65.6133L68.7533 33.08H70.1133V28.58H71.5133V33.08H72.9133L75.9933 28.58H77.5533L74.0133 33.64L77.9533 39H76.3733L72.9133 34.28H71.5133V39H70.1133V34.28H68.7533L65.2733 39H63.6933ZM80.1945 39V28.58H81.5545V33.06H87.5145V28.58H88.8745V39H87.5145V34.28H81.5545V39H80.1945ZM96.3147 39.2C95.568 39.2 94.8747 39.06 94.2347 38.78C93.608 38.4867 93.0614 38.0933 92.5947 37.6C92.1414 37.0933 91.788 36.52 91.5347 35.88C91.2814 35.2267 91.1547 34.54 91.1547 33.82C91.1547 33.0733 91.2814 32.38 91.5347 31.74C91.788 31.0867 92.148 30.5133 92.6147 30.02C93.0814 29.5133 93.628 29.12 94.2547 28.84C94.8947 28.5467 95.588 28.4 96.3347 28.4C97.0814 28.4 97.768 28.5467 98.3947 28.84C99.0214 29.12 99.568 29.5133 100.035 30.02C100.501 30.5133 100.861 31.0867 101.115 31.74C101.368 32.38 101.495 33.0733 101.495 33.82C101.495 34.54 101.368 35.2267 101.115 35.88C100.861 36.52 100.501 37.0933 100.035 37.6C99.5814 38.0933 99.0347 38.4867 98.3947 38.78C97.768 39.06 97.0747 39.2 96.3147 39.2ZM92.5347 33.84C92.5347 34.6133 92.7014 35.32 93.0347 35.96C93.3814 36.5867 93.8414 37.0867 94.4147 37.46C94.988 37.82 95.6214 38 96.3147 38C97.008 38 97.6414 37.8133 98.2147 37.44C98.788 37.0667 99.248 36.56 99.5947 35.92C99.9414 35.2667 100.115 34.56 100.115 33.8C100.115 33.0267 99.9414 32.32 99.5947 31.68C99.248 31.04 98.788 30.5333 98.2147 30.16C97.6414 29.7867 97.008 29.6 96.3147 29.6C95.6214 29.6 94.988 29.7933 94.4147 30.18C93.8547 30.5667 93.4014 31.08 93.0547 31.72C92.708 32.3467 92.5347 33.0533 92.5347 33.84ZM108.289 39.2C107.529 39.2 106.829 39.06 106.189 38.78C105.563 38.4867 105.009 38.0867 104.529 37.58C104.063 37.0733 103.696 36.4933 103.429 35.84C103.176 35.1867 103.049 34.4933 103.049 33.76C103.049 32.7733 103.269 31.8733 103.709 31.06C104.149 30.2467 104.763 29.6 105.549 29.12C106.336 28.64 107.243 28.4 108.269 28.4C109.243 28.4 110.103 28.6267 110.849 29.08C111.596 29.52 112.149 30.12 112.509 30.88L111.189 31.3C110.896 30.7667 110.483 30.3533 109.949 30.06C109.429 29.7533 108.849 29.6 108.209 29.6C107.516 29.6 106.883 29.78 106.309 30.14C105.736 30.5 105.276 30.9933 104.929 31.62C104.596 32.2467 104.429 32.96 104.429 33.76C104.429 34.5467 104.603 35.26 104.949 35.9C105.296 36.54 105.756 37.0533 106.329 37.44C106.903 37.8133 107.536 38 108.229 38C108.683 38 109.116 37.92 109.529 37.76C109.956 37.6 110.323 37.3867 110.629 37.12C110.949 36.84 111.163 36.54 111.269 36.22L112.609 36.62C112.423 37.1133 112.109 37.56 111.669 37.96C111.243 38.3467 110.736 38.6533 110.149 38.88C109.576 39.0933 108.956 39.2 108.289 39.2ZM117.346 39V29.8H113.626V28.58H122.426V29.8H118.706V39H117.346ZM124.257 39V28.58H125.617V32.26H128.317C129.504 32.26 130.397 32.5667 130.997 33.18C131.61 33.78 131.917 34.5733 131.917 35.56C131.917 36.2 131.784 36.78 131.517 37.3C131.25 37.82 130.857 38.2333 130.337 38.54C129.83 38.8467 129.19 39 128.417 39H124.257ZM125.617 37.92H128.237C128.784 37.92 129.224 37.8133 129.557 37.6C129.89 37.3733 130.137 37.0867 130.297 36.74C130.457 36.38 130.537 35.9933 130.537 35.58C130.537 35.18 130.464 34.8133 130.317 34.48C130.184 34.1333 129.944 33.86 129.597 33.66C129.264 33.4467 128.797 33.34 128.197 33.34H125.617V37.92Z" fill="#292929"/>
<path d="M144.672 27.9513L151.528 34.4713C152.338 35.2413 153.662 35.2413 154.472 34.4713L161.328 27.9513" stroke="#155DA4" stroke-width="1.5" stroke-miterlimit="10" stroke-linecap="round" stroke-linejoin="round"/>
<path d="M24.3716 84.72V80.4H25.0116C25.3849 80.4 25.7116 80.2533 25.9916 79.96C26.2716 79.6533 26.5116 79.1733 26.7116 78.52C26.9116 77.8533 27.0716 76.9667 27.1916 75.86C27.3116 74.7533 27.3982 73.3867 27.4516 71.76L27.5516 67.8H36.3516V80.4H38.1116V84.72H36.5116V82H25.9716V84.72H24.3716ZM27.4116 80.4H34.5516V69.4H29.2116L29.1516 71.98C29.1116 73.66 29.0249 75.0667 28.8916 76.2C28.7582 77.3333 28.5716 78.24 28.3316 78.92C28.0916 79.6 27.7849 80.0933 27.4116 80.4ZM44.7883 82.2C44.0016 82.2 43.2883 82.06 42.6483 81.78C42.0083 81.4867 41.455 81.0933 40.9883 80.6C40.5216 80.0933 40.1616 79.5133 39.9083 78.86C39.655 78.2067 39.5283 77.52 39.5283 76.8C39.5283 76.0667 39.655 75.3733 39.9083 74.72C40.1616 74.0667 40.5216 73.4933 40.9883 73C41.455 72.4933 42.0083 72.1 42.6483 71.82C43.3016 71.5267 44.0216 71.38 44.8083 71.38C45.5816 71.38 46.2883 71.5267 46.9283 71.82C47.5683 72.1 48.1216 72.4933 48.5883 73C49.0683 73.4933 49.435 74.0667 49.6883 74.72C49.9416 75.3733 50.0683 76.0667 50.0683 76.8C50.0683 77.52 49.9416 78.2067 49.6883 78.86C49.435 79.5133 49.075 80.0933 48.6083 80.6C48.1416 81.0933 47.5816 81.4867 46.9283 81.78C46.2883 82.06 45.575 82.2 44.7883 82.2ZM41.3283 76.82C41.3283 77.54 41.4816 78.1933 41.7883 78.78C42.1083 79.3667 42.5283 79.8333 43.0483 80.18C43.5683 80.5133 44.1483 80.68 44.7883 80.68C45.4283 80.68 46.0083 80.5067 46.5283 80.16C47.0616 79.8133 47.4816 79.3467 47.7883 78.76C48.1083 78.16 48.2683 77.5 48.2683 76.78C48.2683 76.06 48.1083 75.4067 47.7883 74.82C47.4816 74.2333 47.0616 73.7667 46.5283 73.42C46.0083 73.0733 45.4283 72.9 44.7883 72.9C44.1483 72.9 43.5683 73.08 43.0483 73.44C42.5283 73.7867 42.1083 74.2533 41.7883 74.84C41.4816 75.4267 41.3283 76.0867 41.3283 76.82ZM51.2809 82.08V80.5C51.6276 80.5 51.9343 80.4133 52.2009 80.24C52.4809 80.0533 52.7276 79.7467 52.9409 79.32C53.1543 78.88 53.3209 78.28 53.4409 77.52C53.5743 76.7467 53.6609 75.7667 53.7009 74.58L53.8209 71.56H60.9209V82H59.1609V73.12H55.3809L55.3409 74.74C55.2876 76.1667 55.1676 77.3533 54.9809 78.3C54.7943 79.2467 54.5343 79.9933 54.2009 80.54C53.8676 81.0867 53.4543 81.48 52.9609 81.72C52.4809 81.96 51.9209 82.08 51.2809 82.08ZM63.0434 82L66.8834 76.62L63.3834 71.56H65.3634L68.3634 75.9H69.4834V71.56H71.2834V75.9H72.4434L75.3834 71.56H77.3834L73.8834 76.62L77.7434 82H75.7234L72.4434 77.44H71.2834V82H69.4834V77.44H68.3634L65.0634 82H63.0434ZM79.8372 82V71.56H81.5972V75.88H87.0372V71.56H88.7972V82H87.0372V77.44H81.5972V82H79.8372ZM96.1945 82.2C95.4079 82.2 94.6945 82.06 94.0545 81.78C93.4145 81.4867 92.8612 81.0933 92.3945 80.6C91.9279 80.0933 91.5679 79.5133 91.3145 78.86C91.0612 78.2067 90.9345 77.52 90.9345 76.8C90.9345 76.0667 91.0612 75.3733 91.3145 74.72C91.5679 74.0667 91.9279 73.4933 92.3945 73C92.8612 72.4933 93.4145 72.1 94.0545 71.82C94.7079 71.5267 95.4279 71.38 96.2145 71.38C96.9879 71.38 97.6945 71.5267 98.3345 71.82C98.9745 72.1 99.5279 72.4933 99.9945 73C100.475 73.4933 100.841 74.0667 101.095 74.72C101.348 75.3733 101.475 76.0667 101.475 76.8C101.475 77.52 101.348 78.2067 101.095 78.86C100.841 79.5133 100.481 80.0933 100.015 80.6C99.5479 81.0933 98.9879 81.4867 98.3345 81.78C97.6945 82.06 96.9812 82.2 96.1945 82.2ZM92.7345 76.82C92.7345 77.54 92.8879 78.1933 93.1945 78.78C93.5145 79.3667 93.9345 79.8333 94.4545 80.18C94.9745 80.5133 95.5545 80.68 96.1945 80.68C96.8345 80.68 97.4145 80.5067 97.9345 80.16C98.4679 79.8133 98.8879 79.3467 99.1945 78.76C99.5145 78.16 99.6745 77.5 99.6745 76.78C99.6745 76.06 99.5145 75.4067 99.1945 74.82C98.8879 74.2333 98.4679 73.7667 97.9345 73.42C97.4145 73.0733 96.8345 72.9 96.1945 72.9C95.5545 72.9 94.9745 73.08 94.4545 73.44C93.9345 73.7867 93.5145 74.2533 93.1945 74.84C92.8879 75.4267 92.7345 76.0867 92.7345 76.82ZM108.227 82.2C107.441 82.2 106.721 82.06 106.067 81.78C105.427 81.4867 104.867 81.0867 104.387 80.58C103.921 80.0733 103.554 79.4933 103.287 78.84C103.034 78.1867 102.907 77.4933 102.907 76.76C102.907 75.7733 103.127 74.8733 103.567 74.06C104.007 73.2467 104.627 72.6 105.427 72.12C106.227 71.6267 107.154 71.38 108.207 71.38C109.234 71.38 110.127 71.6133 110.887 72.08C111.661 72.5333 112.234 73.1467 112.607 73.92L110.887 74.46C110.621 73.9667 110.247 73.5867 109.767 73.32C109.287 73.04 108.754 72.9 108.167 72.9C107.527 72.9 106.941 73.0667 106.407 73.4C105.887 73.7333 105.474 74.1933 105.167 74.78C104.861 75.3533 104.707 76.0133 104.707 76.76C104.707 77.4933 104.861 78.16 105.167 78.76C105.487 79.3467 105.907 79.8133 106.427 80.16C106.961 80.5067 107.547 80.68 108.187 80.68C108.601 80.68 108.994 80.6067 109.367 80.46C109.754 80.3133 110.087 80.12 110.367 79.88C110.661 79.6267 110.861 79.3533 110.967 79.06L112.687 79.58C112.474 80.0867 112.147 80.54 111.707 80.94C111.281 81.3267 110.767 81.6333 110.167 81.86C109.581 82.0867 108.934 82.2 108.227 82.2ZM117.221 82V73.12H113.621V71.56H122.581V73.12H118.981V82H117.221ZM124.329 82V71.56H126.089V75.12H128.689C129.916 75.12 130.843 75.4333 131.469 76.06C132.109 76.6733 132.429 77.48 132.429 78.48C132.429 79.1467 132.289 79.7467 132.009 80.28C131.743 80.8133 131.343 81.2333 130.809 81.54C130.276 81.8467 129.609 82 128.809 82H124.329ZM126.089 80.62H128.569C129.063 80.62 129.456 80.5267 129.749 80.34C130.056 80.14 130.283 79.88 130.429 79.56C130.576 79.24 130.649 78.8933 130.649 78.52C130.649 78.16 130.583 77.8267 130.449 77.52C130.316 77.2133 130.096 76.9667 129.789 76.78C129.483 76.5933 129.063 76.5 128.529 76.5H126.089V80.62Z" fill="#155DA4"/>
<path d="M145.672 78.0487L152.528 71.5287C153.338 70.7587 154.662 70.7587 155.472 71.5287L162.328 78.0487" stroke="#155DA4" stroke-width="1.5" stroke-miterlimit="10" stroke-linecap="round" stroke-linejoin="round"/>
</svg>
