<svg width="103" height="39" viewBox="0 0 103 39" fill="none" xmlns="http://www.w3.org/2000/svg">
<rect width="103" height="39" rx="5" fill="white"/>
<path fill-rule="evenodd" clip-rule="evenodd" d="M15.6782 19.4999L19.8595 15.3187C20.0468 15.1314 20.0468 14.8278 19.8595 14.6405C19.6722 14.4532 19.3686 14.4532 19.1813 14.6405L15 18.8217L10.8187 14.6411C10.6314 14.4538 10.3278 14.4538 10.1405 14.6411C9.95318 14.8284 9.95318 15.132 10.1405 15.3193L14.3218 19.5006L10.1411 23.6811C9.95381 23.8684 9.95381 24.1721 10.1411 24.3594C10.2351 24.4527 10.3572 24.5 10.4799 24.5C10.6026 24.5 10.7254 24.4533 10.8187 24.3594L15 20.1781L19.1813 24.3594C19.2753 24.4527 19.3974 24.5 19.5201 24.5C19.6428 24.5 19.7656 24.4533 19.8589 24.3594C20.0462 24.1721 20.0462 23.8684 19.8589 23.6811L15.6782 19.4999Z" fill="#292929"/>
<path d="M31.6 25V17.528H30.448V16.664H31.6V16.44C31.6 15.7573 31.696 15.1707 31.888 14.68C32.0907 14.1893 32.3733 13.816 32.736 13.56C33.1093 13.2933 33.5467 13.16 34.048 13.16C34.3787 13.16 34.6987 13.208 35.008 13.304C35.3173 13.4 35.584 13.528 35.808 13.688L35.472 14.472C35.3333 14.3547 35.152 14.264 34.928 14.2C34.704 14.136 34.48 14.104 34.256 14.104C33.7547 14.104 33.3653 14.3013 33.088 14.696C32.8213 15.0907 32.688 15.6613 32.688 16.408V16.664H34.992V17.528H32.688V25H31.6ZM36.4013 21.56V16.664H37.4893V21.368C37.4893 22.3173 37.6493 23.0267 37.9693 23.496C38.2999 23.9653 38.7853 24.2 39.4253 24.2C39.8519 24.2 40.2626 24.1093 40.6573 23.928C41.0626 23.736 41.4199 23.4693 41.7293 23.128C42.0386 22.776 42.2733 22.3707 42.4333 21.912V16.664H43.5213V23.688C43.5213 23.8373 43.5533 23.9493 43.6173 24.024C43.6813 24.088 43.7773 24.1253 43.9053 24.136V25C43.7773 25.0107 43.6759 25.016 43.6013 25.016C43.5266 25.0267 43.4573 25.032 43.3933 25.032C43.1799 25.0107 42.9933 24.9253 42.8333 24.776C42.6839 24.6267 42.6039 24.4453 42.5933 24.232L42.5613 23.112C42.1986 23.752 41.7026 24.2533 41.0733 24.616C40.4546 24.9787 39.7826 25.16 39.0573 25.16C38.1826 25.16 37.5213 24.856 37.0733 24.248C36.6253 23.64 36.4013 22.744 36.4013 21.56ZM46.0293 13.32H47.1173V23.112C47.1173 23.528 47.1919 23.8 47.3413 23.928C47.4906 24.056 47.6719 24.12 47.8853 24.12C48.0773 24.12 48.2693 24.0987 48.4613 24.056C48.6533 24.0133 48.8186 23.9707 48.9573 23.928L49.1493 24.808C48.9466 24.8933 48.6959 24.9627 48.3973 25.016C48.1093 25.0693 47.8586 25.096 47.6453 25.096C47.1546 25.096 46.7599 24.952 46.4613 24.664C46.1733 24.376 46.0293 23.9813 46.0293 23.48V13.32ZM50.3886 13.32H51.4766V23.112C51.4766 23.528 51.5513 23.8 51.7006 23.928C51.85 24.056 52.0313 24.12 52.2446 24.12C52.4366 24.12 52.6286 24.0987 52.8206 24.056C53.0126 24.0133 53.178 23.9707 53.3166 23.928L53.5086 24.808C53.306 24.8933 53.0553 24.9627 52.7566 25.016C52.4686 25.0693 52.218 25.096 52.0046 25.096C51.514 25.096 51.1193 24.952 50.8206 24.664C50.5326 24.376 50.3886 23.9813 50.3886 23.48V13.32ZM57.436 25.16C56.7533 25.16 56.1187 25.048 55.532 24.824C54.9453 24.6 54.4387 24.2587 54.012 23.8L54.46 23.032C54.9293 23.4693 55.3987 23.7893 55.868 23.992C56.348 24.184 56.8547 24.28 57.388 24.28C58.0387 24.28 58.5667 24.152 58.972 23.896C59.3773 23.6293 59.58 23.2507 59.58 22.76C59.58 22.4293 59.4787 22.1787 59.276 22.008C59.084 21.8267 58.8013 21.6827 58.428 21.576C58.0653 21.4587 57.628 21.336 57.116 21.208C56.54 21.048 56.0547 20.8827 55.66 20.712C55.276 20.5307 54.9827 20.3067 54.78 20.04C54.588 19.7627 54.492 19.4053 54.492 18.968C54.492 18.424 54.6253 17.976 54.892 17.624C55.1693 17.2613 55.5427 16.9893 56.012 16.808C56.492 16.616 57.0253 16.52 57.612 16.52C58.252 16.52 58.8173 16.6213 59.308 16.824C59.7987 17.0267 60.1987 17.3093 60.508 17.672L59.98 18.408C59.6813 18.0667 59.324 17.816 58.908 17.656C58.5027 17.4853 58.0493 17.4 57.548 17.4C57.2067 17.4 56.8813 17.448 56.572 17.544C56.2627 17.6293 56.0067 17.7787 55.804 17.992C55.612 18.1947 55.516 18.4773 55.516 18.84C55.516 19.1387 55.5907 19.3733 55.74 19.544C55.8893 19.704 56.1133 19.8427 56.412 19.96C56.7107 20.0667 57.0787 20.184 57.516 20.312C58.1453 20.4827 58.6947 20.6587 59.164 20.84C59.6333 21.0107 59.996 21.2347 60.252 21.512C60.508 21.7893 60.636 22.1787 60.636 22.68C60.636 23.4587 60.3427 24.0667 59.756 24.504C59.1693 24.9413 58.396 25.16 57.436 25.16ZM66.4344 24.6C66.349 24.632 66.2157 24.6907 66.0344 24.776C65.853 24.8613 65.6344 24.936 65.3784 25C65.1224 25.064 64.845 25.096 64.5464 25.096C64.237 25.096 63.9437 25.0373 63.6664 24.92C63.3997 24.8027 63.1864 24.6267 63.0264 24.392C62.8664 24.1467 62.7864 23.848 62.7864 23.496V17.528H61.6344V16.664H62.7864V13.848H63.8744V16.664H65.7944V17.528H63.8744V23.192C63.8957 23.4907 64.0024 23.7147 64.1944 23.864C64.397 24.0133 64.6264 24.088 64.8824 24.088C65.181 24.088 65.453 24.04 65.6984 23.944C65.9437 23.8373 66.093 23.7627 66.1464 23.72L66.4344 24.6ZM67.1217 22.6C67.1217 22.0773 67.2711 21.6293 67.5698 21.256C67.8684 20.872 68.2791 20.5787 68.8018 20.376C69.3351 20.1627 69.9484 20.056 70.6418 20.056C71.0471 20.056 71.4684 20.088 71.9058 20.152C72.3431 20.216 72.7324 20.312 73.0738 20.44V19.736C73.0738 19.032 72.8658 18.472 72.4498 18.056C72.0338 17.64 71.4578 17.432 70.7218 17.432C70.2738 17.432 69.8311 17.5173 69.3938 17.688C68.9671 17.848 68.5191 18.088 68.0498 18.408L67.6338 17.64C68.1778 17.2667 68.7111 16.9893 69.2338 16.808C69.7564 16.616 70.2898 16.52 70.8338 16.52C71.8578 16.52 72.6684 16.8133 73.2658 17.4C73.8631 17.9867 74.1618 18.7973 74.1618 19.832V23.688C74.1618 23.8373 74.1938 23.9493 74.2578 24.024C74.3218 24.088 74.4231 24.1253 74.5618 24.136V25C74.4444 25.0107 74.3431 25.0213 74.2578 25.032C74.1724 25.0427 74.1084 25.0427 74.0658 25.032C73.7991 25.0213 73.5964 24.936 73.4578 24.776C73.3191 24.616 73.2444 24.4453 73.2338 24.264L73.2178 23.656C72.8444 24.136 72.3591 24.5093 71.7618 24.776C71.1644 25.032 70.5564 25.16 69.9378 25.16C69.4044 25.16 68.9191 25.048 68.4818 24.824C68.0551 24.5893 67.7191 24.28 67.4738 23.896C67.2391 23.5013 67.1217 23.0693 67.1217 22.6ZM72.7058 23.24C72.8231 23.0907 72.9138 22.9467 72.9778 22.808C73.0418 22.6693 73.0738 22.5467 73.0738 22.44V21.224C72.7111 21.0853 72.3324 20.9787 71.9378 20.904C71.5538 20.8293 71.1644 20.792 70.7698 20.792C69.9911 20.792 69.3618 20.9467 68.8818 21.256C68.4018 21.5653 68.1618 21.9867 68.1618 22.52C68.1618 22.8293 68.2418 23.1227 68.4018 23.4C68.5618 23.6667 68.7964 23.8907 69.1058 24.072C69.4151 24.2427 69.7778 24.328 70.1938 24.328C70.7164 24.328 71.2018 24.2267 71.6498 24.024C72.1084 23.8213 72.4604 23.56 72.7058 23.24ZM80.1285 25.16C79.5205 25.16 78.9605 25.048 78.4485 24.824C77.9472 24.5893 77.5045 24.2693 77.1205 23.864C76.7472 23.4587 76.4538 22.9947 76.2405 22.472C76.0378 21.9493 75.9365 21.3947 75.9365 20.808C75.9365 20.0187 76.1125 19.2987 76.4645 18.648C76.8165 17.9973 77.3072 17.48 77.9365 17.096C78.5658 16.712 79.2912 16.52 80.1125 16.52C80.8912 16.52 81.5792 16.7013 82.1765 17.064C82.7738 17.416 83.2165 17.896 83.5045 18.504L82.4485 18.84C82.2138 18.4133 81.8832 18.0827 81.4565 17.848C81.0405 17.6027 80.5765 17.48 80.0645 17.48C79.5098 17.48 79.0032 17.624 78.5445 17.912C78.0858 18.2 77.7178 18.5947 77.4405 19.096C77.1738 19.5973 77.0405 20.168 77.0405 20.808C77.0405 21.4373 77.1792 22.008 77.4565 22.52C77.7338 23.032 78.1018 23.4427 78.5605 23.752C79.0192 24.0507 79.5258 24.2 80.0805 24.2C80.4432 24.2 80.7898 24.136 81.1205 24.008C81.4618 23.88 81.7552 23.7093 82.0005 23.496C82.2565 23.272 82.4272 23.032 82.5125 22.776L83.5845 23.096C83.4352 23.4907 83.1845 23.848 82.8325 24.168C82.4912 24.4773 82.0858 24.7227 81.6165 24.904C81.1578 25.0747 80.6618 25.16 80.1285 25.16ZM91.2458 25L88.1578 20.728L86.3818 22.392V25H85.2938V13.32H86.3818V21.224L91.1018 16.68H92.3018L88.8938 20.088L92.4298 25H91.2458Z" fill="#292929"/>
</svg>
