<svg width="55" height="26" viewBox="0 0 55 26" fill="none" xmlns="http://www.w3.org/2000/svg">
<g filter="url(#filter0_i_23_899)">
<rect width="55" height="26" rx="13" fill="#155DA4"/>
</g>
<circle cx="42" cy="13" r="10" fill="white"/>
<path d="M35.4915 14.4451C35.5596 14.3768 35.6451 14.3283 35.7386 14.3049C35.8322 14.2815 35.9304 14.2841 36.0227 14.3122C37.0357 14.6185 38.1128 14.6442 39.1392 14.3865C40.1656 14.1289 41.1029 13.5977 41.8512 12.8493C42.5995 12.101 43.1308 11.1637 43.3884 10.1373C43.646 9.1109 43.6204 8.03382 43.3141 7.02084C43.2857 6.92854 43.283 6.83023 43.3062 6.7365C43.3295 6.64276 43.3779 6.55714 43.4462 6.48885C43.5145 6.42056 43.6001 6.37218 43.6938 6.3489C43.7876 6.32563 43.8859 6.32835 43.9782 6.35678C45.3787 6.78579 46.6082 7.64558 47.4917 8.81381C48.2644 9.83969 48.7357 11.0607 48.8527 12.3397C48.9697 13.6187 48.7278 14.905 48.1541 16.054C47.5803 17.2031 46.6976 18.1694 45.6049 18.8444C44.5123 19.5194 43.253 19.8763 41.9687 19.8751C40.4704 19.8797 39.0119 19.3926 37.817 18.4885C36.6488 17.605 35.789 16.3755 35.36 14.975C35.3319 14.883 35.3293 14.7852 35.3524 14.6918C35.3756 14.5985 35.4236 14.5132 35.4915 14.4451ZM38.4558 17.6399C39.5811 18.4874 40.9746 18.8999 42.3798 18.8015C43.7851 18.7031 45.1075 18.1004 46.1036 17.1044C47.0998 16.1083 47.7026 14.7859 47.8011 13.3807C47.8996 11.9754 47.4872 10.5819 46.6397 9.45662C46.0876 8.72752 45.3739 8.1365 44.5546 7.73006C44.6013 8.05759 44.6248 8.38801 44.625 8.71885C44.623 10.5499 43.8948 12.3054 42.6 13.6002C41.3053 14.8949 39.5498 15.6232 37.7187 15.6251C37.3872 15.625 37.0561 15.6015 36.7279 15.5547C37.1348 16.3741 37.7262 17.0879 38.4558 17.6399Z" fill="#155DA4"/>
<defs>
<filter id="filter0_i_23_899" x="0" y="0" width="55" height="30" filterUnits="userSpaceOnUse" color-interpolation-filters="sRGB">
<feFlood flood-opacity="0" result="BackgroundImageFix"/>
<feBlend mode="normal" in="SourceGraphic" in2="BackgroundImageFix" result="shape"/>
<feColorMatrix in="SourceAlpha" type="matrix" values="0 0 0 0 0 0 0 0 0 0 0 0 0 0 0 0 0 0 127 0" result="hardAlpha"/>
<feOffset dy="4"/>
<feGaussianBlur stdDeviation="2"/>
<feComposite in2="hardAlpha" operator="arithmetic" k2="-1" k3="1"/>
<feColorMatrix type="matrix" values="0 0 0 0 0 0 0 0 0 0 0 0 0 0 0 0 0 0 0.25 0"/>
<feBlend mode="normal" in2="shape" result="effect1_innerShadow_23_899"/>
</filter>
</defs>
</svg>
