<svg width="1560" height="43" viewBox="0 0 1560 43" fill="none" xmlns="http://www.w3.org/2000/svg">
<rect x="0.25" y="0.25" width="1559.5" height="42.5" rx="4.75" stroke="#B0B0B0" stroke-width="0.5"/>
<path d="M11.78 29V14.8H22.5V29H21.1V16.04H13.18V29H11.78ZM30.2173 29.2C29.4707 29.2 28.7773 29.06 28.1373 28.78C27.5107 28.4867 26.964 28.0933 26.4973 27.6C26.044 27.0933 25.6907 26.52 25.4373 25.88C25.184 25.2267 25.0573 24.54 25.0573 23.82C25.0573 23.0733 25.184 22.38 25.4373 21.74C25.6907 21.0867 26.0507 20.5133 26.5173 20.02C26.984 19.5133 27.5307 19.12 28.1573 18.84C28.7973 18.5467 29.4907 18.4 30.2373 18.4C30.984 18.4 31.6707 18.5467 32.2973 18.84C32.924 19.12 33.4707 19.5133 33.9373 20.02C34.404 20.5133 34.764 21.0867 35.0173 21.74C35.2707 22.38 35.3973 23.0733 35.3973 23.82C35.3973 24.54 35.2707 25.2267 35.0173 25.88C34.764 26.52 34.404 27.0933 33.9373 27.6C33.484 28.0933 32.9373 28.4867 32.2973 28.78C31.6707 29.06 30.9773 29.2 30.2173 29.2ZM26.4373 23.84C26.4373 24.6133 26.604 25.32 26.9373 25.96C27.284 26.5867 27.744 27.0867 28.3173 27.46C28.8907 27.82 29.524 28 30.2173 28C30.9107 28 31.544 27.8133 32.1173 27.44C32.6907 27.0667 33.1507 26.56 33.4973 25.92C33.844 25.2667 34.0173 24.56 34.0173 23.8C34.0173 23.0267 33.844 22.32 33.4973 21.68C33.1507 21.04 32.6907 20.5333 32.1173 20.16C31.544 19.7867 30.9107 19.6 30.2173 19.6C29.524 19.6 28.8907 19.7933 28.3173 20.18C27.7573 20.5667 27.304 21.08 26.9573 21.72C26.6107 22.3467 26.4373 23.0533 26.4373 23.84ZM37.6519 29V18.6H39.0119V27.16L45.3519 18.58H46.5719V29H45.2119V20.58L38.9719 29H37.6519ZM54.0669 29.2C53.3069 29.2 52.6069 29.06 51.9669 28.78C51.3402 28.4867 50.7869 28.0867 50.3069 27.58C49.8402 27.0733 49.4735 26.4933 49.2069 25.84C48.9535 25.1867 48.8269 24.4933 48.8269 23.76C48.8269 22.7733 49.0469 21.8733 49.4869 21.06C49.9269 20.2467 50.5402 19.6 51.3269 19.12C52.1135 18.64 53.0202 18.4 54.0469 18.4C55.0202 18.4 55.8802 18.6267 56.6269 19.08C57.3735 19.52 57.9269 20.12 58.2869 20.88L56.9669 21.3C56.6735 20.7667 56.2602 20.3533 55.7269 20.06C55.2069 19.7533 54.6269 19.6 53.9869 19.6C53.2935 19.6 52.6602 19.78 52.0869 20.14C51.5135 20.5 51.0535 20.9933 50.7069 21.62C50.3735 22.2467 50.2069 22.96 50.2069 23.76C50.2069 24.5467 50.3802 25.26 50.7269 25.9C51.0735 26.54 51.5335 27.0533 52.1069 27.44C52.6802 27.8133 53.3135 28 54.0069 28C54.4602 28 54.8935 27.92 55.3069 27.76C55.7335 27.6 56.1002 27.3867 56.4069 27.12C56.7269 26.84 56.9402 26.54 57.0469 26.22L58.3869 26.62C58.2002 27.1133 57.8869 27.56 57.4469 27.96C57.0202 28.3467 56.5135 28.6533 55.9269 28.88C55.3535 29.0933 54.7335 29.2 54.0669 29.2ZM60.5034 29V18.58H61.8634V23.04H63.4234L66.9234 18.58H68.4834L64.5034 23.64L68.9834 29H67.3834L63.4234 24.3H61.8634V29H60.5034Z" fill="#B0B0B0"/>
</svg>
