<svg width="146" height="45" viewBox="0 0 146 45" fill="none" xmlns="http://www.w3.org/2000/svg">
<rect width="146" height="45" rx="8" fill="#155DA4"/>
<path d="M58.608 16.64V28H56.8V22.992H51.072V28H49.28V16.64H51.072V21.392H56.8V16.64H58.608ZM60.5649 25.552C60.5649 25.0187 60.7142 24.5547 61.0129 24.16C61.3222 23.7547 61.7435 23.4453 62.2769 23.232C62.8102 23.008 63.4289 22.896 64.1329 22.896C64.5062 22.896 64.8849 22.9227 65.2689 22.976C65.6635 23.0293 66.0102 23.1147 66.3089 23.232V22.704C66.3089 22.1173 66.1329 21.6587 65.7809 21.328C65.4289 20.9973 64.9222 20.832 64.2609 20.832C63.7915 20.832 63.3489 20.9173 62.9329 21.088C62.5169 21.248 62.0742 21.4773 61.6049 21.776L61.0129 20.592C61.5675 20.2187 62.1222 19.9413 62.6769 19.76C63.2422 19.5787 63.8342 19.488 64.4529 19.488C65.5729 19.488 66.4529 19.7867 67.0929 20.384C67.7435 20.9707 68.0689 21.808 68.0689 22.896V26.016C68.0689 26.2187 68.1009 26.3627 68.1649 26.448C68.2395 26.5333 68.3622 26.5813 68.5329 26.592V28C68.3729 28.032 68.2289 28.0533 68.1009 28.064C67.9729 28.0747 67.8662 28.08 67.7809 28.08C67.4075 28.08 67.1249 27.9893 66.9329 27.808C66.7409 27.6267 66.6289 27.4133 66.5969 27.168L66.5489 26.688C66.1862 27.1573 65.7222 27.52 65.1569 27.776C64.5915 28.032 64.0209 28.16 63.4449 28.16C62.8902 28.16 62.3942 28.048 61.9569 27.824C61.5195 27.5893 61.1782 27.2747 60.9329 26.88C60.6875 26.4853 60.5649 26.0427 60.5649 25.552ZM65.8929 26.064C66.0209 25.9253 66.1222 25.7867 66.1969 25.648C66.2715 25.5093 66.3089 25.3867 66.3089 25.28V24.32C66.0102 24.2027 65.6955 24.1173 65.3649 24.064C65.0342 24 64.7089 23.968 64.3889 23.968C63.7489 23.968 63.2262 24.096 62.8209 24.352C62.4262 24.608 62.2289 24.96 62.2289 25.408C62.2289 25.6533 62.2929 25.888 62.4209 26.112C62.5595 26.336 62.7515 26.5173 62.9969 26.656C63.2529 26.7947 63.5675 26.864 63.9409 26.864C64.3249 26.864 64.6929 26.7893 65.0449 26.64C65.3969 26.4907 65.6795 26.2987 65.8929 26.064ZM70.5241 28V19.648H72.2841V25.648L76.5241 19.632H78.1241V28H76.3641V22.128L72.1721 28H70.5241ZM74.3321 18.768C73.5428 18.768 72.9295 18.5707 72.4921 18.176C72.0655 17.7813 71.8521 17.2853 71.8521 16.688H73.0041C73.0041 16.9973 73.1055 17.2533 73.3081 17.456C73.5215 17.6587 73.8628 17.76 74.3321 17.76C74.7908 17.76 75.1161 17.664 75.3081 17.472C75.5108 17.28 75.6335 17.0187 75.6761 16.688H76.8281C76.8281 17.2853 76.6095 17.7813 76.1721 18.176C75.7455 18.5707 75.1321 18.768 74.3321 18.768ZM82.5312 28V21.184H79.7632V19.632H87.0752V21.184H84.2912V28H82.5312ZM88.711 28V19.648H90.471V25.648L94.711 19.632H96.311V28H94.551V22.128L90.359 28H88.711Z" fill="white"/>
</svg>
