<svg width="275" height="242" viewBox="0 0 275 242" fill="none" xmlns="http://www.w3.org/2000/svg">
<g filter="url(#filter0_d_25_149)">
<mask id="path-1-inside-1_25_149" fill="white">
<path d="M4 0H271V234H4V0Z"/>
</mask>
<path d="M4 0H271V234H4V0Z" fill="white"/>
<path d="M4 1H271V-1H4V1Z" fill="#155DA4" mask="url(#path-1-inside-1_25_149)"/>
<path d="M33.968 32.072C33.968 32.6373 33.824 33.144 33.536 33.592C33.248 34.0293 32.8587 34.376 32.368 34.632C31.888 34.8773 31.36 35 30.784 35H25.424V23.64H30.896C31.4293 23.64 31.888 23.784 32.272 24.072C32.6667 24.3493 32.9653 24.712 33.168 25.16C33.3813 25.5973 33.488 26.056 33.488 26.536C33.488 27.1013 33.344 27.624 33.056 28.104C32.768 28.584 32.368 28.9413 31.856 29.176C32.5067 29.368 33.0187 29.7253 33.392 30.248C33.776 30.7707 33.968 31.3787 33.968 32.072ZM32.848 31.88C32.848 31.496 32.7627 31.144 32.592 30.824C32.4213 30.4933 32.1867 30.2267 31.888 30.024C31.6 29.8213 31.2693 29.72 30.896 29.72H26.544V34.024H30.784C31.168 34.024 31.5147 33.9227 31.824 33.72C32.1333 33.5173 32.3787 33.256 32.56 32.936C32.752 32.6053 32.848 32.2533 32.848 31.88ZM26.544 24.616V28.808H30.448C30.8213 28.808 31.152 28.712 31.44 28.52C31.728 28.3173 31.9573 28.056 32.128 27.736C32.2987 27.416 32.384 27.0747 32.384 26.712C32.384 26.328 32.304 25.9813 32.144 25.672C31.984 25.352 31.7653 25.096 31.488 24.904C31.2107 24.712 30.896 24.616 30.544 24.616H26.544ZM35.1842 32.6C35.1842 32.0773 35.3336 31.6293 35.6323 31.256C35.9309 30.872 36.3416 30.5787 36.8643 30.376C37.3976 30.1627 38.0109 30.056 38.7043 30.056C39.1096 30.056 39.5309 30.088 39.9683 30.152C40.4056 30.216 40.7949 30.312 41.1363 30.44V29.736C41.1363 29.032 40.9283 28.472 40.5123 28.056C40.0963 27.64 39.5203 27.432 38.7843 27.432C38.3363 27.432 37.8936 27.5173 37.4563 27.688C37.0296 27.848 36.5816 28.088 36.1123 28.408L35.6963 27.64C36.2403 27.2667 36.7736 26.9893 37.2963 26.808C37.8189 26.616 38.3523 26.52 38.8963 26.52C39.9203 26.52 40.7309 26.8133 41.3283 27.4C41.9256 27.9867 42.2243 28.7973 42.2243 29.832V33.688C42.2243 33.8373 42.2563 33.9493 42.3203 34.024C42.3843 34.088 42.4856 34.1253 42.6243 34.136V35C42.5069 35.0107 42.4056 35.0213 42.3203 35.032C42.2349 35.0427 42.1709 35.0427 42.1283 35.032C41.8616 35.0213 41.6589 34.936 41.5203 34.776C41.3816 34.616 41.3069 34.4453 41.2963 34.264L41.2803 33.656C40.9069 34.136 40.4216 34.5093 39.8243 34.776C39.2269 35.032 38.6189 35.16 38.0003 35.16C37.4669 35.16 36.9816 35.048 36.5443 34.824C36.1176 34.5893 35.7816 34.28 35.5363 33.896C35.3016 33.5013 35.1842 33.0693 35.1842 32.6ZM40.7683 33.24C40.8856 33.0907 40.9763 32.9467 41.0403 32.808C41.1043 32.6693 41.1363 32.5467 41.1363 32.44V31.224C40.7736 31.0853 40.3949 30.9787 40.0003 30.904C39.6163 30.8293 39.2269 30.792 38.8323 30.792C38.0536 30.792 37.4243 30.9467 36.9443 31.256C36.4643 31.5653 36.2243 31.9867 36.2243 32.52C36.2243 32.8293 36.3043 33.1227 36.4643 33.4C36.6243 33.6667 36.8589 33.8907 37.1683 34.072C37.4776 34.2427 37.8403 34.328 38.2563 34.328C38.7789 34.328 39.2643 34.2267 39.7123 34.024C40.1709 33.8213 40.5229 33.56 40.7683 33.24ZM48.191 35.16C47.583 35.16 47.023 35.048 46.511 34.824C46.0097 34.5893 45.567 34.2693 45.183 33.864C44.8097 33.4587 44.5163 32.9947 44.303 32.472C44.1003 31.9493 43.999 31.3947 43.999 30.808C43.999 30.0187 44.175 29.2987 44.527 28.648C44.879 27.9973 45.3697 27.48 45.999 27.096C46.6283 26.712 47.3537 26.52 48.175 26.52C48.9537 26.52 49.6417 26.7013 50.239 27.064C50.8363 27.416 51.279 27.896 51.567 28.504L50.511 28.84C50.2763 28.4133 49.9457 28.0827 49.519 27.848C49.103 27.6027 48.639 27.48 48.127 27.48C47.5723 27.48 47.0657 27.624 46.607 27.912C46.1483 28.2 45.7803 28.5947 45.503 29.096C45.2363 29.5973 45.103 30.168 45.103 30.808C45.103 31.4373 45.2417 32.008 45.519 32.52C45.7963 33.032 46.1643 33.4427 46.623 33.752C47.0817 34.0507 47.5883 34.2 48.143 34.2C48.5057 34.2 48.8523 34.136 49.183 34.008C49.5243 33.88 49.8177 33.7093 50.063 33.496C50.319 33.272 50.4897 33.032 50.575 32.776L51.647 33.096C51.4977 33.4907 51.247 33.848 50.895 34.168C50.5537 34.4773 50.1483 34.7227 49.679 34.904C49.2203 35.0747 48.7243 35.16 48.191 35.16ZM59.3083 35L56.2203 30.728L54.4443 32.392V35H53.3563V23.32H54.4443V31.224L59.1643 26.68H60.3643L56.9563 30.088L60.4923 35H59.3083ZM65.0031 35.16C64.4058 35.16 63.8511 35.048 63.3391 34.824C62.8271 34.5893 62.3845 34.2747 62.0111 33.88C61.6378 33.4747 61.3445 33.0107 61.1311 32.488C60.9285 31.9653 60.8271 31.4053 60.8271 30.808C60.8271 30.0293 61.0031 29.3147 61.3551 28.664C61.7178 28.0133 62.2138 27.496 62.8431 27.112C63.4725 26.7173 64.1871 26.52 64.9871 26.52C65.8085 26.52 66.5231 26.7173 67.1311 27.112C67.7498 27.5067 68.2351 28.0293 68.5871 28.68C68.9391 29.32 69.1151 30.024 69.1151 30.792C69.1151 30.8773 69.1151 30.9627 69.1151 31.048C69.1151 31.1227 69.1098 31.1813 69.0991 31.224H61.9631C62.0165 31.8213 62.1818 32.3547 62.4591 32.824C62.7471 33.2827 63.1151 33.6507 63.5631 33.928C64.0218 34.1947 64.5178 34.328 65.0511 34.328C65.5951 34.328 66.1071 34.1893 66.5871 33.912C67.0778 33.6347 67.4191 33.272 67.6111 32.824L68.5551 33.08C68.3845 33.4747 68.1231 33.832 67.7711 34.152C67.4191 34.472 67.0031 34.7227 66.5231 34.904C66.0538 35.0747 65.5471 35.16 65.0031 35.16ZM61.9311 30.44H68.0911C68.0485 29.832 67.8831 29.2987 67.5951 28.84C67.3178 28.3813 66.9498 28.024 66.4911 27.768C66.0431 27.5013 65.5471 27.368 65.0031 27.368C64.4591 27.368 63.9631 27.5013 63.5151 27.768C63.0671 28.024 62.6991 28.3867 62.4111 28.856C62.1338 29.3147 61.9738 29.8427 61.9311 30.44ZM77.8018 35H76.7138V30.344C76.7138 29.3627 76.5698 28.648 76.2818 28.2C75.9938 27.7413 75.5404 27.512 74.9218 27.512C74.4951 27.512 74.0738 27.6187 73.6578 27.832C73.2418 28.0347 72.8738 28.3173 72.5538 28.68C72.2444 29.032 72.0204 29.4373 71.8818 29.896V35H70.7938V26.664H71.7858V28.552C72.0098 28.1467 72.3031 27.7947 72.6658 27.496C73.0284 27.1867 73.4391 26.9467 73.8978 26.776C74.3564 26.6053 74.8311 26.52 75.3218 26.52C75.7804 26.52 76.1698 26.6053 76.4898 26.776C76.8098 26.9467 77.0658 27.192 77.2578 27.512C77.4498 27.8213 77.5884 28.2 77.6737 28.648C77.7591 29.0853 77.8018 29.576 77.8018 30.12V35ZM79.5619 30.856C79.5619 30.0667 79.7219 29.3467 80.0419 28.696C80.3725 28.0347 80.8259 27.5067 81.4019 27.112C81.9779 26.7173 82.6339 26.52 83.3699 26.52C84.0632 26.52 84.6819 26.7067 85.2259 27.08C85.7805 27.4427 86.2125 27.8853 86.5219 28.408V23.32H87.6099V33.688C87.6099 33.8373 87.6419 33.9493 87.7059 34.024C87.7699 34.088 87.8659 34.1253 87.9939 34.136V35C87.7805 35.032 87.6152 35.0427 87.4979 35.032C87.2739 35.0213 87.0765 34.9307 86.9059 34.76C86.7352 34.5893 86.6499 34.4027 86.6499 34.2V33.384C86.3192 33.928 85.8712 34.36 85.3059 34.68C84.7405 35 84.1539 35.16 83.5459 35.16C82.9699 35.16 82.4365 35.0427 81.9459 34.808C81.4659 34.5733 81.0445 34.2533 80.6819 33.848C80.3299 33.4427 80.0525 32.984 79.8499 32.472C79.6579 31.9493 79.5619 31.4107 79.5619 30.856ZM86.5219 32.136V29.56C86.3832 29.176 86.1592 28.8293 85.8499 28.52C85.5405 28.2 85.1885 27.9493 84.7939 27.768C84.4099 27.576 84.0259 27.48 83.6419 27.48C83.1939 27.48 82.7885 27.576 82.4259 27.768C82.0632 27.9493 81.7485 28.2 81.4819 28.52C81.2259 28.84 81.0285 29.2027 80.8899 29.608C80.7512 30.0133 80.6819 30.4293 80.6819 30.856C80.6819 31.304 80.7565 31.7307 80.9059 32.136C81.0659 32.5413 81.2899 32.904 81.5779 33.224C81.8659 33.5333 82.1965 33.7733 82.5699 33.944C82.9432 34.1147 83.3485 34.2 83.7859 34.2C84.0632 34.2 84.3512 34.1467 84.6499 34.04C84.9485 33.9333 85.2312 33.7893 85.4979 33.608C85.7752 33.416 86.0045 33.192 86.1859 32.936C86.3672 32.68 86.4792 32.4133 86.5219 32.136ZM89.915 31.144V30.136H94.587V31.144H89.915ZM101.081 35.16C100.388 35.16 99.7637 34.9787 99.209 34.616C98.665 34.2533 98.233 33.8053 97.913 33.272V38.408H96.825V26.664H97.801V28.28C98.1317 27.7573 98.5743 27.336 99.129 27.016C99.6837 26.6853 100.276 26.52 100.905 26.52C101.481 26.52 102.009 26.6427 102.489 26.888C102.969 27.1227 103.385 27.4427 103.737 27.848C104.089 28.2533 104.361 28.7173 104.553 29.24C104.756 29.752 104.857 30.2853 104.857 30.84C104.857 31.6187 104.697 32.3387 104.377 33C104.068 33.6507 103.63 34.1733 103.065 34.568C102.5 34.9627 101.838 35.16 101.081 35.16ZM100.777 34.2C101.236 34.2 101.646 34.1093 102.009 33.928C102.372 33.736 102.681 33.48 102.937 33.16C103.204 32.84 103.406 32.4827 103.545 32.088C103.684 31.6827 103.753 31.2667 103.753 30.84C103.753 30.392 103.673 29.9653 103.513 29.56C103.364 29.1547 103.145 28.7973 102.857 28.488C102.569 28.1787 102.238 27.9333 101.865 27.752C101.492 27.5707 101.086 27.48 100.649 27.48C100.372 27.48 100.084 27.5333 99.785 27.64C99.4863 27.7467 99.1983 27.9013 98.921 28.104C98.6543 28.296 98.4303 28.5147 98.249 28.76C98.0677 29.0053 97.9557 29.2667 97.913 29.544V32.104C98.0837 32.4987 98.313 32.856 98.601 33.176C98.889 33.4853 99.2197 33.736 99.593 33.928C99.977 34.1093 100.372 34.2 100.777 34.2ZM106.028 32.6C106.028 32.0773 106.177 31.6293 106.476 31.256C106.775 30.872 107.185 30.5787 107.708 30.376C108.241 30.1627 108.855 30.056 109.548 30.056C109.953 30.056 110.375 30.088 110.812 30.152C111.249 30.216 111.639 30.312 111.98 30.44V29.736C111.98 29.032 111.772 28.472 111.356 28.056C110.94 27.64 110.364 27.432 109.628 27.432C109.18 27.432 108.737 27.5173 108.3 27.688C107.873 27.848 107.425 28.088 106.956 28.408L106.54 27.64C107.084 27.2667 107.617 26.9893 108.14 26.808C108.663 26.616 109.196 26.52 109.74 26.52C110.764 26.52 111.575 26.8133 112.172 27.4C112.769 27.9867 113.068 28.7973 113.068 29.832V33.688C113.068 33.8373 113.1 33.9493 113.164 34.024C113.228 34.088 113.329 34.1253 113.468 34.136V35C113.351 35.0107 113.249 35.0213 113.164 35.032C113.079 35.0427 113.015 35.0427 112.972 35.032C112.705 35.0213 112.503 34.936 112.364 34.776C112.225 34.616 112.151 34.4453 112.14 34.264L112.124 33.656C111.751 34.136 111.265 34.5093 110.668 34.776C110.071 35.032 109.463 35.16 108.844 35.16C108.311 35.16 107.825 35.048 107.388 34.824C106.961 34.5893 106.625 34.28 106.38 33.896C106.145 33.5013 106.028 33.0693 106.028 32.6ZM111.612 33.24C111.729 33.0907 111.82 32.9467 111.884 32.808C111.948 32.6693 111.98 32.5467 111.98 32.44V31.224C111.617 31.0853 111.239 30.9787 110.844 30.904C110.46 30.8293 110.071 30.792 109.676 30.792C108.897 30.792 108.268 30.9467 107.788 31.256C107.308 31.5653 107.068 31.9867 107.068 32.52C107.068 32.8293 107.148 33.1227 107.308 33.4C107.468 33.6667 107.703 33.8907 108.012 34.072C108.321 34.2427 108.684 34.328 109.1 34.328C109.623 34.328 110.108 34.2267 110.556 34.024C111.015 33.8213 111.367 33.56 111.612 33.24ZM117.835 35.096C117.067 35.096 116.411 34.952 115.867 34.664C115.323 34.3653 114.907 33.9493 114.619 33.416L115.515 33.016C115.717 33.3893 116.011 33.6827 116.395 33.896C116.779 34.0987 117.243 34.2 117.787 34.2C118.437 34.2 118.955 34.0507 119.339 33.752C119.733 33.4533 119.931 33.0533 119.931 32.552C119.931 32.0933 119.776 31.7253 119.467 31.448C119.157 31.1707 118.731 31.0267 118.187 31.016H117.339V30.264H118.251C118.485 30.264 118.699 30.2 118.891 30.072C119.083 29.944 119.232 29.7733 119.339 29.56C119.445 29.3467 119.499 29.1067 119.499 28.84C119.499 28.424 119.349 28.088 119.051 27.832C118.763 27.576 118.336 27.448 117.771 27.448C117.301 27.448 116.907 27.544 116.587 27.736C116.277 27.9173 116.027 28.1893 115.835 28.552L115.003 28.104C115.248 27.6133 115.611 27.2293 116.091 26.952C116.581 26.6747 117.152 26.536 117.803 26.536C118.336 26.536 118.8 26.6267 119.195 26.808C119.6 26.9787 119.915 27.2293 120.139 27.56C120.373 27.88 120.491 28.2693 120.491 28.728C120.491 29.1227 120.395 29.4907 120.203 29.832C120.011 30.1627 119.744 30.4133 119.403 30.584C119.893 30.7333 120.272 30.9947 120.539 31.368C120.816 31.7413 120.955 32.1787 120.955 32.68C120.955 33.1813 120.821 33.6133 120.555 33.976C120.288 34.3387 119.92 34.616 119.451 34.808C118.981 35 118.443 35.096 117.835 35.096ZM127.034 35.16C126.341 35.16 125.717 34.9787 125.162 34.616C124.618 34.2533 124.186 33.8053 123.866 33.272V38.408H122.778V26.664H123.754V28.28C124.085 27.7573 124.527 27.336 125.082 27.016C125.637 26.6853 126.229 26.52 126.858 26.52C127.434 26.52 127.962 26.6427 128.442 26.888C128.922 27.1227 129.338 27.4427 129.69 27.848C130.042 28.2533 130.314 28.7173 130.506 29.24C130.709 29.752 130.81 30.2853 130.81 30.84C130.81 31.6187 130.65 32.3387 130.33 33C130.021 33.6507 129.583 34.1733 129.018 34.568C128.453 34.9627 127.791 35.16 127.034 35.16ZM126.73 34.2C127.189 34.2 127.599 34.1093 127.962 33.928C128.325 33.736 128.634 33.48 128.89 33.16C129.157 32.84 129.359 32.4827 129.498 32.088C129.637 31.6827 129.706 31.2667 129.706 30.84C129.706 30.392 129.626 29.9653 129.466 29.56C129.317 29.1547 129.098 28.7973 128.81 28.488C128.522 28.1787 128.191 27.9333 127.818 27.752C127.445 27.5707 127.039 27.48 126.602 27.48C126.325 27.48 126.037 27.5333 125.738 27.64C125.439 27.7467 125.151 27.9013 124.874 28.104C124.607 28.296 124.383 28.5147 124.202 28.76C124.021 29.0053 123.909 29.2667 123.866 29.544V32.104C124.037 32.4987 124.266 32.856 124.554 33.176C124.842 33.4853 125.173 33.736 125.546 33.928C125.93 34.1093 126.325 34.2 126.73 34.2ZM131.981 32.6C131.981 32.0773 132.13 31.6293 132.429 31.256C132.728 30.872 133.138 30.5787 133.661 30.376C134.194 30.1627 134.808 30.056 135.501 30.056C135.906 30.056 136.328 30.088 136.765 30.152C137.202 30.216 137.592 30.312 137.933 30.44V29.736C137.933 29.032 137.725 28.472 137.309 28.056C136.893 27.64 136.317 27.432 135.581 27.432C135.133 27.432 134.69 27.5173 134.253 27.688C133.826 27.848 133.378 28.088 132.909 28.408L132.493 27.64C133.037 27.2667 133.57 26.9893 134.093 26.808C134.616 26.616 135.149 26.52 135.693 26.52C136.717 26.52 137.528 26.8133 138.125 27.4C138.722 27.9867 139.021 28.7973 139.021 29.832V33.688C139.021 33.8373 139.053 33.9493 139.117 34.024C139.181 34.088 139.282 34.1253 139.421 34.136V35C139.304 35.0107 139.202 35.0213 139.117 35.032C139.032 35.0427 138.968 35.0427 138.925 35.032C138.658 35.0213 138.456 34.936 138.317 34.776C138.178 34.616 138.104 34.4453 138.093 34.264L138.077 33.656C137.704 34.136 137.218 34.5093 136.621 34.776C136.024 35.032 135.416 35.16 134.797 35.16C134.264 35.16 133.778 35.048 133.341 34.824C132.914 34.5893 132.578 34.28 132.333 33.896C132.098 33.5013 131.981 33.0693 131.981 32.6ZM137.565 33.24C137.682 33.0907 137.773 32.9467 137.837 32.808C137.901 32.6693 137.933 32.5467 137.933 32.44V31.224C137.57 31.0853 137.192 30.9787 136.797 30.904C136.413 30.8293 136.024 30.792 135.629 30.792C134.85 30.792 134.221 30.9467 133.741 31.256C133.261 31.5653 133.021 31.9867 133.021 32.52C133.021 32.8293 133.101 33.1227 133.261 33.4C133.421 33.6667 133.656 33.8907 133.965 34.072C134.274 34.2427 134.637 34.328 135.053 34.328C135.576 34.328 136.061 34.2267 136.509 34.024C136.968 33.8213 137.32 33.56 137.565 33.24ZM145.196 35.16C143.852 35.16 142.833 34.7493 142.14 33.928C141.457 33.096 141.116 31.9493 141.116 30.488C141.116 29.4533 141.201 28.5787 141.372 27.864C141.543 27.1493 141.793 26.5627 142.124 26.104C142.455 25.6347 142.86 25.2507 143.34 24.952C143.831 24.6533 144.391 24.408 145.02 24.216L148.524 23.064L148.62 24.008L145.244 25.112C144.604 25.3253 144.071 25.5973 143.644 25.928C143.217 26.2587 142.881 26.68 142.636 27.192C142.401 27.6933 142.247 28.3493 142.172 29.16C142.449 28.5413 142.876 28.0667 143.452 27.736C144.028 27.3947 144.695 27.224 145.452 27.224C146.263 27.224 146.951 27.3893 147.516 27.72C148.092 28.0507 148.529 28.5093 148.828 29.096C149.127 29.6827 149.276 30.36 149.276 31.128C149.276 31.9387 149.116 32.648 148.796 33.256C148.487 33.8533 148.028 34.3227 147.42 34.664C146.823 34.9947 146.081 35.16 145.196 35.16ZM145.196 34.2C146.145 34.2 146.876 33.928 147.388 33.384C147.911 32.8293 148.172 32.0933 148.172 31.176C148.172 30.28 147.916 29.5493 147.404 28.984C146.903 28.4187 146.167 28.136 145.196 28.136C144.641 28.136 144.14 28.2533 143.692 28.488C143.244 28.7227 142.887 29.064 142.62 29.512C142.364 29.96 142.236 30.5147 142.236 31.176C142.236 31.752 142.348 32.2693 142.572 32.728C142.807 33.1867 143.143 33.5493 143.58 33.816C144.017 34.072 144.556 34.2 145.196 34.2ZM154.658 35.16C154.061 35.16 153.506 35.048 152.994 34.824C152.493 34.5893 152.056 34.2747 151.682 33.88C151.32 33.4747 151.037 33.016 150.834 32.504C150.632 31.9813 150.53 31.432 150.53 30.856C150.53 30.2587 150.632 29.704 150.834 29.192C151.037 28.6693 151.325 28.2107 151.698 27.816C152.072 27.4107 152.509 27.096 153.01 26.872C153.522 26.6373 154.077 26.52 154.674 26.52C155.272 26.52 155.821 26.6373 156.322 26.872C156.824 27.096 157.261 27.4107 157.634 27.816C158.008 28.2107 158.296 28.6693 158.498 29.192C158.701 29.704 158.802 30.2587 158.802 30.856C158.802 31.432 158.701 31.9813 158.498 32.504C158.296 33.016 158.008 33.4747 157.634 33.88C157.272 34.2747 156.834 34.5893 156.322 34.824C155.821 35.048 155.266 35.16 154.658 35.16ZM151.634 30.872C151.634 31.4907 151.768 32.056 152.034 32.568C152.312 33.0693 152.68 33.4693 153.138 33.768C153.597 34.056 154.104 34.2 154.658 34.2C155.213 34.2 155.72 34.0507 156.178 33.752C156.637 33.4533 157.005 33.048 157.282 32.536C157.56 32.0133 157.698 31.448 157.698 30.84C157.698 30.2213 157.56 29.656 157.282 29.144C157.005 28.632 156.637 28.2267 156.178 27.928C155.72 27.6293 155.213 27.48 154.658 27.48C154.104 27.48 153.597 27.6347 153.138 27.944C152.69 28.2533 152.328 28.664 152.05 29.176C151.773 29.6773 151.634 30.2427 151.634 30.872ZM162.702 35V27.64H159.726V26.664H166.766V27.64H163.79V35H162.702ZM173.015 35V31.512C172.674 31.672 172.316 31.7947 171.943 31.88C171.57 31.9547 171.17 31.992 170.743 31.992C169.826 31.992 169.132 31.7573 168.663 31.288C168.204 30.8187 167.975 30.0987 167.975 29.128V26.664H169.063V28.984C169.063 29.7307 169.212 30.2747 169.511 30.616C169.82 30.9573 170.311 31.128 170.983 31.128C171.356 31.128 171.73 31.0853 172.103 31C172.476 30.9147 172.78 30.8027 173.015 30.664V26.664H174.103V35H173.015ZM176.481 35V26.68H177.569V33.528L182.641 26.664H183.617V35H182.529V28.264L177.537 35H176.481ZM185.981 35V26.664H187.069V30.232H188.317L191.117 26.664H192.365L189.181 30.712L192.765 35H191.485L188.317 31.24H187.069V35H185.981Z" fill="#292929"/>
<rect x="232.5" y="20.5" width="18" height="18" rx="1.5" stroke="#155DA4"/>
<path d="M25.424 70V58.64H32.88V59.632H26.544V63.808H31.888V64.736H26.544V70H25.424ZM38.1725 62.624C37.4472 62.6453 36.8072 62.848 36.2525 63.232C35.7085 63.616 35.3245 64.144 35.1005 64.816V70H34.0125V61.664H35.0365V63.664C35.3245 63.0773 35.7032 62.6027 36.1725 62.24C36.6525 61.8773 37.1592 61.6747 37.6925 61.632C37.7992 61.6213 37.8898 61.616 37.9645 61.616C38.0498 61.616 38.1192 61.6213 38.1725 61.632V62.624ZM42.9239 70.16C42.3265 70.16 41.7719 70.048 41.2599 69.824C40.7585 69.5893 40.3212 69.2747 39.9479 68.88C39.5852 68.4747 39.3025 68.016 39.0999 67.504C38.8972 66.9813 38.7959 66.432 38.7959 65.856C38.7959 65.2587 38.8972 64.704 39.0999 64.192C39.3025 63.6693 39.5905 63.2107 39.9639 62.816C40.3372 62.4107 40.7745 62.096 41.2759 61.872C41.7879 61.6373 42.3425 61.52 42.9399 61.52C43.5372 61.52 44.0865 61.6373 44.5879 61.872C45.0892 62.096 45.5265 62.4107 45.8999 62.816C46.2732 63.2107 46.5612 63.6693 46.7639 64.192C46.9665 64.704 47.0679 65.2587 47.0679 65.856C47.0679 66.432 46.9665 66.9813 46.7639 67.504C46.5612 68.016 46.2732 68.4747 45.8999 68.88C45.5372 69.2747 45.0999 69.5893 44.5879 69.824C44.0865 70.048 43.5319 70.16 42.9239 70.16ZM39.8999 65.872C39.8999 66.4907 40.0332 67.056 40.2999 67.568C40.5772 68.0693 40.9452 68.4693 41.4039 68.768C41.8625 69.056 42.3692 69.2 42.9239 69.2C43.4785 69.2 43.9852 69.0507 44.4439 68.752C44.9025 68.4533 45.2705 68.048 45.5479 67.536C45.8252 67.0133 45.9639 66.448 45.9639 65.84C45.9639 65.2213 45.8252 64.656 45.5479 64.144C45.2705 63.632 44.9025 63.2267 44.4439 62.928C43.9852 62.6293 43.4785 62.48 42.9239 62.48C42.3692 62.48 41.8625 62.6347 41.4039 62.944C40.9559 63.2533 40.5932 63.664 40.3159 64.176C40.0385 64.6773 39.8999 65.2427 39.8999 65.872ZM55.8955 70H54.8075V65.344C54.8075 64.3627 54.6635 63.648 54.3755 63.2C54.0875 62.7413 53.6342 62.512 53.0155 62.512C52.5888 62.512 52.1675 62.6187 51.7515 62.832C51.3355 63.0347 50.9675 63.3173 50.6475 63.68C50.3382 64.032 50.1142 64.4373 49.9755 64.896V70H48.8875V61.664H49.8795V63.552C50.1035 63.1467 50.3968 62.7947 50.7595 62.496C51.1222 62.1867 51.5328 61.9467 51.9915 61.776C52.4502 61.6053 52.9248 61.52 53.4155 61.52C53.8742 61.52 54.2635 61.6053 54.5835 61.776C54.9035 61.9467 55.1595 62.192 55.3515 62.512C55.5435 62.8213 55.6822 63.2 55.7675 63.648C55.8528 64.0853 55.8955 64.576 55.8955 65.12V70ZM62.1375 69.6C62.0522 69.632 61.9188 69.6907 61.7375 69.776C61.5562 69.8613 61.3375 69.936 61.0815 70C60.8255 70.064 60.5482 70.096 60.2495 70.096C59.9402 70.096 59.6468 70.0373 59.3695 69.92C59.1028 69.8027 58.8895 69.6267 58.7295 69.392C58.5695 69.1467 58.4895 68.848 58.4895 68.496V62.528H57.3375V61.664H58.4895V58.848H59.5775V61.664H61.4975V62.528H59.5775V68.192C59.5988 68.4907 59.7055 68.7147 59.8975 68.864C60.1002 69.0133 60.3295 69.088 60.5855 69.088C60.8842 69.088 61.1562 69.04 61.4015 68.944C61.6468 68.8373 61.7962 68.7627 61.8495 68.72L62.1375 69.6ZM66.9563 70.16C66.3589 70.16 65.8043 70.048 65.2923 69.824C64.7803 69.5893 64.3376 69.2747 63.9643 68.88C63.5909 68.4747 63.2976 68.0107 63.0843 67.488C62.8816 66.9653 62.7803 66.4053 62.7803 65.808C62.7803 65.0293 62.9563 64.3147 63.3083 63.664C63.6709 63.0133 64.1669 62.496 64.7963 62.112C65.4256 61.7173 66.1403 61.52 66.9403 61.52C67.7616 61.52 68.4763 61.7173 69.0843 62.112C69.7029 62.5067 70.1883 63.0293 70.5403 63.68C70.8923 64.32 71.0683 65.024 71.0683 65.792C71.0683 65.8773 71.0683 65.9627 71.0683 66.048C71.0683 66.1227 71.0629 66.1813 71.0523 66.224H63.9163C63.9696 66.8213 64.1349 67.3547 64.4123 67.824C64.7003 68.2827 65.0683 68.6507 65.5163 68.928C65.9749 69.1947 66.4709 69.328 67.0043 69.328C67.5483 69.328 68.0603 69.1893 68.5403 68.912C69.0309 68.6347 69.3723 68.272 69.5643 67.824L70.5083 68.08C70.3376 68.4747 70.0763 68.832 69.7243 69.152C69.3723 69.472 68.9563 69.7227 68.4763 69.904C68.0069 70.0747 67.5003 70.16 66.9563 70.16ZM63.8843 65.44H70.0443C70.0016 64.832 69.8363 64.2987 69.5483 63.84C69.2709 63.3813 68.9029 63.024 68.4443 62.768C67.9963 62.5013 67.5003 62.368 66.9563 62.368C66.4123 62.368 65.9163 62.5013 65.4683 62.768C65.0203 63.024 64.6523 63.3867 64.3643 63.856C64.0869 64.3147 63.9269 64.8427 63.8843 65.44ZM79.7549 70H78.6669V65.344C78.6669 64.3627 78.5229 63.648 78.2349 63.2C77.9469 62.7413 77.4935 62.512 76.8749 62.512C76.4482 62.512 76.0269 62.6187 75.6109 62.832C75.1949 63.0347 74.8269 63.3173 74.5069 63.68C74.1975 64.032 73.9735 64.4373 73.8349 64.896V70H72.7469V61.664H73.7389V63.552C73.9629 63.1467 74.2562 62.7947 74.6189 62.496C74.9815 62.1867 75.3922 61.9467 75.8509 61.776C76.3095 61.6053 76.7842 61.52 77.2749 61.52C77.7335 61.52 78.1229 61.6053 78.4429 61.776C78.7629 61.9467 79.0189 62.192 79.2109 62.512C79.4029 62.8213 79.5415 63.2 79.6269 63.648C79.7122 64.0853 79.7549 64.576 79.7549 65.12V70ZM81.515 65.856C81.515 65.0667 81.675 64.3467 81.995 63.696C82.3257 63.0347 82.779 62.5067 83.355 62.112C83.931 61.7173 84.587 61.52 85.323 61.52C86.0163 61.52 86.635 61.7067 87.179 62.08C87.7337 62.4427 88.1657 62.8853 88.475 63.408V58.32H89.563V68.688C89.563 68.8373 89.595 68.9493 89.659 69.024C89.723 69.088 89.819 69.1253 89.947 69.136V70C89.7337 70.032 89.5683 70.0427 89.451 70.032C89.227 70.0213 89.0297 69.9307 88.859 69.76C88.6883 69.5893 88.603 69.4027 88.603 69.2V68.384C88.2723 68.928 87.8243 69.36 87.259 69.68C86.6937 70 86.107 70.16 85.499 70.16C84.923 70.16 84.3897 70.0427 83.899 69.808C83.419 69.5733 82.9977 69.2533 82.635 68.848C82.283 68.4427 82.0057 67.984 81.803 67.472C81.611 66.9493 81.515 66.4107 81.515 65.856ZM88.475 67.136V64.56C88.3363 64.176 88.1123 63.8293 87.803 63.52C87.4937 63.2 87.1417 62.9493 86.747 62.768C86.363 62.576 85.979 62.48 85.595 62.48C85.147 62.48 84.7417 62.576 84.379 62.768C84.0163 62.9493 83.7017 63.2 83.435 63.52C83.179 63.84 82.9817 64.2027 82.843 64.608C82.7043 65.0133 82.635 65.4293 82.635 65.856C82.635 66.304 82.7097 66.7307 82.859 67.136C83.019 67.5413 83.243 67.904 83.531 68.224C83.819 68.5333 84.1497 68.7733 84.523 68.944C84.8963 69.1147 85.3017 69.2 85.739 69.2C86.0163 69.2 86.3043 69.1467 86.603 69.04C86.9017 68.9333 87.1843 68.7893 87.451 68.608C87.7283 68.416 87.9577 68.192 88.139 67.936C88.3203 67.68 88.4323 67.4133 88.475 67.136ZM91.8681 66.144V65.136H96.5401V66.144H91.8681ZM103.034 70.16C102.341 70.16 101.717 69.9787 101.162 69.616C100.618 69.2533 100.186 68.8053 99.8661 68.272V73.408H98.7781V61.664H99.7541V63.28C100.085 62.7573 100.527 62.336 101.082 62.016C101.637 61.6853 102.229 61.52 102.858 61.52C103.434 61.52 103.962 61.6427 104.442 61.888C104.922 62.1227 105.338 62.4427 105.69 62.848C106.042 63.2533 106.314 63.7173 106.506 64.24C106.709 64.752 106.81 65.2853 106.81 65.84C106.81 66.6187 106.65 67.3387 106.33 68C106.021 68.6507 105.583 69.1733 105.018 69.568C104.453 69.9627 103.791 70.16 103.034 70.16ZM102.73 69.2C103.189 69.2 103.599 69.1093 103.962 68.928C104.325 68.736 104.634 68.48 104.89 68.16C105.157 67.84 105.359 67.4827 105.498 67.088C105.637 66.6827 105.706 66.2667 105.706 65.84C105.706 65.392 105.626 64.9653 105.466 64.56C105.317 64.1547 105.098 63.7973 104.81 63.488C104.522 63.1787 104.191 62.9333 103.818 62.752C103.445 62.5707 103.039 62.48 102.602 62.48C102.325 62.48 102.037 62.5333 101.738 62.64C101.439 62.7467 101.151 62.9013 100.874 63.104C100.607 63.296 100.383 63.5147 100.202 63.76C100.021 64.0053 99.9088 64.2667 99.8661 64.544V67.104C100.037 67.4987 100.266 67.856 100.554 68.176C100.842 68.4853 101.173 68.736 101.546 68.928C101.93 69.1093 102.325 69.2 102.73 69.2ZM107.981 67.6C107.981 67.0773 108.13 66.6293 108.429 66.256C108.728 65.872 109.138 65.5787 109.661 65.376C110.194 65.1627 110.808 65.056 111.501 65.056C111.906 65.056 112.328 65.088 112.765 65.152C113.202 65.216 113.592 65.312 113.933 65.44V64.736C113.933 64.032 113.725 63.472 113.309 63.056C112.893 62.64 112.317 62.432 111.581 62.432C111.133 62.432 110.69 62.5173 110.253 62.688C109.826 62.848 109.378 63.088 108.909 63.408L108.493 62.64C109.037 62.2667 109.57 61.9893 110.093 61.808C110.616 61.616 111.149 61.52 111.693 61.52C112.717 61.52 113.528 61.8133 114.125 62.4C114.722 62.9867 115.021 63.7973 115.021 64.832V68.688C115.021 68.8373 115.053 68.9493 115.117 69.024C115.181 69.088 115.282 69.1253 115.421 69.136V70C115.304 70.0107 115.202 70.0213 115.117 70.032C115.032 70.0427 114.968 70.0427 114.925 70.032C114.658 70.0213 114.456 69.936 114.317 69.776C114.178 69.616 114.104 69.4453 114.093 69.264L114.077 68.656C113.704 69.136 113.218 69.5093 112.621 69.776C112.024 70.032 111.416 70.16 110.797 70.16C110.264 70.16 109.778 70.048 109.341 69.824C108.914 69.5893 108.578 69.28 108.333 68.896C108.098 68.5013 107.981 68.0693 107.981 67.6ZM113.565 68.24C113.682 68.0907 113.773 67.9467 113.837 67.808C113.901 67.6693 113.933 67.5467 113.933 67.44V66.224C113.57 66.0853 113.192 65.9787 112.797 65.904C112.413 65.8293 112.024 65.792 111.629 65.792C110.85 65.792 110.221 65.9467 109.741 66.256C109.261 66.5653 109.021 66.9867 109.021 67.52C109.021 67.8293 109.101 68.1227 109.261 68.4C109.421 68.6667 109.656 68.8907 109.965 69.072C110.274 69.2427 110.637 69.328 111.053 69.328C111.576 69.328 112.061 69.2267 112.509 69.024C112.968 68.8213 113.32 68.56 113.565 68.24ZM119.788 70.096C119.02 70.096 118.364 69.952 117.82 69.664C117.276 69.3653 116.86 68.9493 116.572 68.416L117.468 68.016C117.671 68.3893 117.964 68.6827 118.348 68.896C118.732 69.0987 119.196 69.2 119.74 69.2C120.391 69.2 120.908 69.0507 121.292 68.752C121.687 68.4533 121.884 68.0533 121.884 67.552C121.884 67.0933 121.729 66.7253 121.42 66.448C121.111 66.1707 120.684 66.0267 120.14 66.016H119.292V65.264H120.204C120.439 65.264 120.652 65.2 120.844 65.072C121.036 64.944 121.185 64.7733 121.292 64.56C121.399 64.3467 121.452 64.1067 121.452 63.84C121.452 63.424 121.303 63.088 121.004 62.832C120.716 62.576 120.289 62.448 119.724 62.448C119.255 62.448 118.86 62.544 118.54 62.736C118.231 62.9173 117.98 63.1893 117.788 63.552L116.956 63.104C117.201 62.6133 117.564 62.2293 118.044 61.952C118.535 61.6747 119.105 61.536 119.756 61.536C120.289 61.536 120.753 61.6267 121.148 61.808C121.553 61.9787 121.868 62.2293 122.092 62.56C122.327 62.88 122.444 63.2693 122.444 63.728C122.444 64.1227 122.348 64.4907 122.156 64.832C121.964 65.1627 121.697 65.4133 121.356 65.584C121.847 65.7333 122.225 65.9947 122.492 66.368C122.769 66.7413 122.908 67.1787 122.908 67.68C122.908 68.1813 122.775 68.6133 122.508 68.976C122.241 69.3387 121.873 69.616 121.404 69.808C120.935 70 120.396 70.096 119.788 70.096ZM128.987 70.16C128.294 70.16 127.67 69.9787 127.115 69.616C126.571 69.2533 126.139 68.8053 125.819 68.272V73.408H124.731V61.664H125.707V63.28C126.038 62.7573 126.481 62.336 127.035 62.016C127.59 61.6853 128.182 61.52 128.811 61.52C129.387 61.52 129.915 61.6427 130.395 61.888C130.875 62.1227 131.291 62.4427 131.643 62.848C131.995 63.2533 132.267 63.7173 132.459 64.24C132.662 64.752 132.763 65.2853 132.763 65.84C132.763 66.6187 132.603 67.3387 132.283 68C131.974 68.6507 131.537 69.1733 130.971 69.568C130.406 69.9627 129.745 70.16 128.987 70.16ZM128.683 69.2C129.142 69.2 129.553 69.1093 129.915 68.928C130.278 68.736 130.587 68.48 130.843 68.16C131.11 67.84 131.313 67.4827 131.451 67.088C131.59 66.6827 131.659 66.2667 131.659 65.84C131.659 65.392 131.579 64.9653 131.419 64.56C131.27 64.1547 131.051 63.7973 130.763 63.488C130.475 63.1787 130.145 62.9333 129.771 62.752C129.398 62.5707 128.993 62.48 128.555 62.48C128.278 62.48 127.99 62.5333 127.691 62.64C127.393 62.7467 127.105 62.9013 126.827 63.104C126.561 63.296 126.337 63.5147 126.155 63.76C125.974 64.0053 125.862 64.2667 125.819 64.544V67.104C125.99 67.4987 126.219 67.856 126.507 68.176C126.795 68.4853 127.126 68.736 127.499 68.928C127.883 69.1093 128.278 69.2 128.683 69.2ZM133.934 67.6C133.934 67.0773 134.084 66.6293 134.382 66.256C134.681 65.872 135.092 65.5787 135.614 65.376C136.148 65.1627 136.761 65.056 137.454 65.056C137.86 65.056 138.281 65.088 138.718 65.152C139.156 65.216 139.545 65.312 139.886 65.44V64.736C139.886 64.032 139.678 63.472 139.262 63.056C138.846 62.64 138.27 62.432 137.534 62.432C137.086 62.432 136.644 62.5173 136.206 62.688C135.78 62.848 135.332 63.088 134.862 63.408L134.446 62.64C134.99 62.2667 135.524 61.9893 136.046 61.808C136.569 61.616 137.102 61.52 137.646 61.52C138.67 61.52 139.481 61.8133 140.078 62.4C140.676 62.9867 140.974 63.7973 140.974 64.832V68.688C140.974 68.8373 141.006 68.9493 141.07 69.024C141.134 69.088 141.236 69.1253 141.374 69.136V70C141.257 70.0107 141.156 70.0213 141.07 70.032C140.985 70.0427 140.921 70.0427 140.878 70.032C140.612 70.0213 140.409 69.936 140.27 69.776C140.132 69.616 140.057 69.4453 140.046 69.264L140.03 68.656C139.657 69.136 139.172 69.5093 138.574 69.776C137.977 70.032 137.369 70.16 136.75 70.16C136.217 70.16 135.732 70.048 135.294 69.824C134.868 69.5893 134.532 69.28 134.286 68.896C134.052 68.5013 133.934 68.0693 133.934 67.6ZM139.518 68.24C139.636 68.0907 139.726 67.9467 139.79 67.808C139.854 67.6693 139.886 67.5467 139.886 67.44V66.224C139.524 66.0853 139.145 65.9787 138.75 65.904C138.366 65.8293 137.977 65.792 137.582 65.792C136.804 65.792 136.174 65.9467 135.694 66.256C135.214 66.5653 134.974 66.9867 134.974 67.52C134.974 67.8293 135.054 68.1227 135.214 68.4C135.374 68.6667 135.609 68.8907 135.918 69.072C136.228 69.2427 136.59 69.328 137.006 69.328C137.529 69.328 138.014 69.2267 138.462 69.024C138.921 68.8213 139.273 68.56 139.518 68.24ZM147.149 70.16C145.805 70.16 144.786 69.7493 144.093 68.928C143.41 68.096 143.069 66.9493 143.069 65.488C143.069 64.4533 143.154 63.5787 143.325 62.864C143.496 62.1493 143.746 61.5627 144.077 61.104C144.408 60.6347 144.813 60.2507 145.293 59.952C145.784 59.6533 146.344 59.408 146.973 59.216L150.477 58.064L150.573 59.008L147.197 60.112C146.557 60.3253 146.024 60.5973 145.597 60.928C145.17 61.2587 144.834 61.68 144.589 62.192C144.354 62.6933 144.2 63.3493 144.125 64.16C144.402 63.5413 144.829 63.0667 145.405 62.736C145.981 62.3947 146.648 62.224 147.405 62.224C148.216 62.224 148.904 62.3893 149.469 62.72C150.045 63.0507 150.482 63.5093 150.781 64.096C151.08 64.6827 151.229 65.36 151.229 66.128C151.229 66.9387 151.069 67.648 150.749 68.256C150.44 68.8533 149.981 69.3227 149.373 69.664C148.776 69.9947 148.034 70.16 147.149 70.16ZM147.149 69.2C148.098 69.2 148.829 68.928 149.341 68.384C149.864 67.8293 150.125 67.0933 150.125 66.176C150.125 65.28 149.869 64.5493 149.357 63.984C148.856 63.4187 148.12 63.136 147.149 63.136C146.594 63.136 146.093 63.2533 145.645 63.488C145.197 63.7227 144.84 64.064 144.573 64.512C144.317 64.96 144.189 65.5147 144.189 66.176C144.189 66.752 144.301 67.2693 144.525 67.728C144.76 68.1867 145.096 68.5493 145.533 68.816C145.97 69.072 146.509 69.2 147.149 69.2ZM156.611 70.16C156.014 70.16 155.459 70.048 154.947 69.824C154.446 69.5893 154.009 69.2747 153.635 68.88C153.273 68.4747 152.99 68.016 152.787 67.504C152.585 66.9813 152.483 66.432 152.483 65.856C152.483 65.2587 152.585 64.704 152.787 64.192C152.99 63.6693 153.278 63.2107 153.651 62.816C154.025 62.4107 154.462 62.096 154.963 61.872C155.475 61.6373 156.03 61.52 156.627 61.52C157.225 61.52 157.774 61.6373 158.275 61.872C158.777 62.096 159.214 62.4107 159.587 62.816C159.961 63.2107 160.249 63.6693 160.451 64.192C160.654 64.704 160.755 65.2587 160.755 65.856C160.755 66.432 160.654 66.9813 160.451 67.504C160.249 68.016 159.961 68.4747 159.587 68.88C159.225 69.2747 158.787 69.5893 158.275 69.824C157.774 70.048 157.219 70.16 156.611 70.16ZM153.587 65.872C153.587 66.4907 153.721 67.056 153.987 67.568C154.265 68.0693 154.633 68.4693 155.091 68.768C155.55 69.056 156.057 69.2 156.611 69.2C157.166 69.2 157.673 69.0507 158.131 68.752C158.59 68.4533 158.958 68.048 159.235 67.536C159.513 67.0133 159.651 66.448 159.651 65.84C159.651 65.2213 159.513 64.656 159.235 64.144C158.958 63.632 158.59 63.2267 158.131 62.928C157.673 62.6293 157.166 62.48 156.611 62.48C156.057 62.48 155.55 62.6347 155.091 62.944C154.643 63.2533 154.281 63.664 154.003 64.176C153.726 64.6773 153.587 65.2427 153.587 65.872ZM164.655 70V62.64H161.679V61.664H168.719V62.64H165.743V70H164.655ZM174.968 70V66.512C174.627 66.672 174.269 66.7947 173.896 66.88C173.523 66.9547 173.123 66.992 172.696 66.992C171.779 66.992 171.085 66.7573 170.616 66.288C170.157 65.8187 169.928 65.0987 169.928 64.128V61.664H171.016V63.984C171.016 64.7307 171.165 65.2747 171.464 65.616C171.773 65.9573 172.264 66.128 172.936 66.128C173.309 66.128 173.683 66.0853 174.056 66C174.429 65.9147 174.733 65.8027 174.968 65.664V61.664H176.056V70H174.968ZM178.434 70V61.68H179.522V68.528L184.594 61.664H185.57V70H184.482V63.264L179.49 70H178.434ZM187.934 70V61.664H189.022V65.232H190.27L193.07 61.664H194.318L191.134 65.712L194.718 70H193.438L190.27 66.24H189.022V70H187.934Z" fill="#292929"/>
<rect x="232.5" y="55.5" width="18" height="18" rx="1.5" stroke="#155DA4"/>
<path d="M28.944 93.64H29.888L34.608 105H33.424L31.952 101.448H26.848L25.392 105H24.192L28.944 93.64ZM31.696 100.568L29.408 94.952L27.088 100.568H31.696ZM35.9965 105V96.664H37.0845V100.248H41.8525V96.664H42.9405V105H41.8525V101.224H37.0845V105H35.9965ZM44.6686 102.6C44.6686 102.077 44.818 101.629 45.1166 101.256C45.4153 100.872 45.826 100.579 46.3486 100.376C46.882 100.163 47.4953 100.056 48.1886 100.056C48.594 100.056 49.0153 100.088 49.4526 100.152C49.89 100.216 50.2793 100.312 50.6206 100.44V99.736C50.6206 99.032 50.4126 98.472 49.9966 98.056C49.5806 97.64 49.0046 97.432 48.2686 97.432C47.8206 97.432 47.378 97.5173 46.9406 97.688C46.514 97.848 46.066 98.088 45.5966 98.408L45.1806 97.64C45.7246 97.2667 46.258 96.9893 46.7806 96.808C47.3033 96.616 47.8366 96.52 48.3806 96.52C49.4046 96.52 50.2153 96.8133 50.8126 97.4C51.41 97.9867 51.7086 98.7973 51.7086 99.832V103.688C51.7086 103.837 51.7406 103.949 51.8046 104.024C51.8686 104.088 51.97 104.125 52.1086 104.136V105C51.9913 105.011 51.89 105.021 51.8046 105.032C51.7193 105.043 51.6553 105.043 51.6126 105.032C51.346 105.021 51.1433 104.936 51.0046 104.776C50.866 104.616 50.7913 104.445 50.7806 104.264L50.7646 103.656C50.3913 104.136 49.906 104.509 49.3086 104.776C48.7113 105.032 48.1033 105.16 47.4846 105.16C46.9513 105.16 46.466 105.048 46.0286 104.824C45.602 104.589 45.266 104.28 45.0206 103.896C44.786 103.501 44.6686 103.069 44.6686 102.6ZM50.2526 103.24C50.37 103.091 50.4606 102.947 50.5246 102.808C50.5886 102.669 50.6206 102.547 50.6206 102.44V101.224C50.258 101.085 49.8793 100.979 49.4846 100.904C49.1006 100.829 48.7113 100.792 48.3166 100.792C47.538 100.792 46.9086 100.947 46.4286 101.256C45.9486 101.565 45.7086 101.987 45.7086 102.52C45.7086 102.829 45.7886 103.123 45.9486 103.4C46.1086 103.667 46.3433 103.891 46.6526 104.072C46.962 104.243 47.3246 104.328 47.7406 104.328C48.2633 104.328 48.7486 104.227 49.1966 104.024C49.6553 103.821 50.0073 103.56 50.2526 103.24ZM53.2594 105.048V104.056C53.5474 104.056 53.8034 103.981 54.0274 103.832C54.2514 103.672 54.4487 103.405 54.6194 103.032C54.8007 102.659 54.9447 102.147 55.0514 101.496C55.158 100.835 55.2274 99.9973 55.2594 98.984L55.3554 96.664H60.7634V105H59.6754V97.64H56.3154L56.2834 99.08C56.2407 100.232 56.15 101.197 56.0114 101.976C55.8727 102.744 55.6754 103.352 55.4194 103.8C55.174 104.248 54.87 104.568 54.5074 104.76C54.1447 104.952 53.7287 105.048 53.2594 105.048ZM63.1528 105V96.68H64.2408V103.528L69.3128 96.664H70.2888V105H69.2008V98.264L64.2088 105H63.1528ZM74.7488 105V97.64H71.7728V96.664H78.8128V97.64H75.8368V105H74.7488ZM80.2778 105V96.68H81.3658V103.528L86.4378 96.664H87.4138V105H86.3258V98.264L81.3338 105H80.2778ZM89.7778 105V96.664H90.8658V100.232H92.1138L94.9138 96.664H96.1618L92.9778 100.712L96.5618 105H95.2818L92.1138 101.24H90.8658V105H89.7778Z" fill="#292929"/>
<rect x="232.5" y="90.5" width="18" height="18" rx="1.5" stroke="#155DA4"/>
<path d="M35.488 140V130.752L31.376 137.936H30.672L26.544 130.752V140H25.424V128.64H26.576L31.008 136.416L35.472 128.64H36.608V140H35.488ZM42.7063 140.16C42.1089 140.16 41.5543 140.048 41.0423 139.824C40.5303 139.589 40.0876 139.275 39.7143 138.88C39.3409 138.475 39.0476 138.011 38.8343 137.488C38.6316 136.965 38.5303 136.405 38.5303 135.808C38.5303 135.029 38.7063 134.315 39.0583 133.664C39.4209 133.013 39.9169 132.496 40.5463 132.112C41.1756 131.717 41.8903 131.52 42.6903 131.52C43.5116 131.52 44.2263 131.717 44.8343 132.112C45.4529 132.507 45.9383 133.029 46.2903 133.68C46.6423 134.32 46.8183 135.024 46.8183 135.792C46.8183 135.877 46.8183 135.963 46.8183 136.048C46.8183 136.123 46.8129 136.181 46.8023 136.224H39.6663C39.7196 136.821 39.8849 137.355 40.1623 137.824C40.4503 138.283 40.8183 138.651 41.2663 138.928C41.7249 139.195 42.2209 139.328 42.7543 139.328C43.2983 139.328 43.8103 139.189 44.2903 138.912C44.7809 138.635 45.1223 138.272 45.3143 137.824L46.2583 138.08C46.0876 138.475 45.8263 138.832 45.4743 139.152C45.1223 139.472 44.7063 139.723 44.2263 139.904C43.7569 140.075 43.2503 140.16 42.7063 140.16ZM39.6343 135.44H45.7943C45.7516 134.832 45.5863 134.299 45.2983 133.84C45.0209 133.381 44.6529 133.024 44.1943 132.768C43.7463 132.501 43.2503 132.368 42.7063 132.368C42.1623 132.368 41.6663 132.501 41.2183 132.768C40.7703 133.024 40.4023 133.387 40.1143 133.856C39.8369 134.315 39.6769 134.843 39.6343 135.44ZM48.4809 140V131.664H49.5689V135.248H54.3369V131.664H55.4249V140H54.3369V136.224H49.5689V140H48.4809ZM61.425 140.16C60.8277 140.16 60.273 140.048 59.761 139.824C59.249 139.589 58.8063 139.275 58.433 138.88C58.0597 138.475 57.7663 138.011 57.553 137.488C57.3503 136.965 57.249 136.405 57.249 135.808C57.249 135.029 57.425 134.315 57.777 133.664C58.1397 133.013 58.6357 132.496 59.265 132.112C59.8943 131.717 60.609 131.52 61.409 131.52C62.2303 131.52 62.945 131.717 63.553 132.112C64.1717 132.507 64.657 133.029 65.009 133.68C65.361 134.32 65.537 135.024 65.537 135.792C65.537 135.877 65.537 135.963 65.537 136.048C65.537 136.123 65.5317 136.181 65.521 136.224H58.385C58.4383 136.821 58.6037 137.355 58.881 137.824C59.169 138.283 59.537 138.651 59.985 138.928C60.4437 139.195 60.9397 139.328 61.473 139.328C62.017 139.328 62.529 139.189 63.009 138.912C63.4997 138.635 63.841 138.272 64.033 137.824L64.977 138.08C64.8063 138.475 64.545 138.832 64.193 139.152C63.841 139.472 63.425 139.723 62.945 139.904C62.4757 140.075 61.969 140.16 61.425 140.16ZM58.353 135.44H64.513C64.4703 134.832 64.305 134.299 64.017 133.84C63.7397 133.381 63.3717 133.024 62.913 132.768C62.465 132.501 61.969 132.368 61.425 132.368C60.881 132.368 60.385 132.501 59.937 132.768C59.489 133.024 59.121 133.387 58.833 133.856C58.5557 134.315 58.3957 134.843 58.353 135.44ZM66.2876 141.936V139.024H66.4316C66.677 139.024 66.901 138.949 67.1036 138.8C67.3063 138.651 67.4876 138.389 67.6476 138.016C67.8076 137.643 67.9356 137.131 68.0316 136.48C68.1276 135.819 68.1916 134.987 68.2236 133.984L68.3036 131.664H73.7276V139.024H74.8476V141.936H73.8716V140H67.2476V141.936H66.2876ZM68.0796 139.024H72.6396V132.64H69.2796L69.2316 134.08C69.1996 135.072 69.1303 135.904 69.0236 136.576C68.9276 137.237 68.7996 137.765 68.6396 138.16C68.4903 138.544 68.3036 138.832 68.0796 139.024ZM75.9049 140L79.0249 135.712L76.2089 131.664H77.4409L79.9529 135.264H81.0409V131.664H82.1609V135.264H83.2809L85.7449 131.664H86.9929L84.1609 135.712L87.3129 140H86.0489L83.2809 136.224H82.1609V140H81.0409V136.224H79.9529L77.1689 140H75.9049ZM92.7219 140.16C92.1245 140.16 91.5699 140.048 91.0579 139.824C90.5459 139.589 90.1032 139.275 89.7299 138.88C89.3565 138.475 89.0632 138.011 88.8499 137.488C88.6472 136.965 88.5459 136.405 88.5459 135.808C88.5459 135.029 88.7219 134.315 89.0739 133.664C89.4365 133.013 89.9325 132.496 90.5619 132.112C91.1912 131.717 91.9059 131.52 92.7059 131.52C93.5272 131.52 94.2419 131.717 94.8499 132.112C95.4685 132.507 95.9539 133.029 96.3059 133.68C96.6579 134.32 96.8339 135.024 96.8339 135.792C96.8339 135.877 96.8339 135.963 96.8339 136.048C96.8339 136.123 96.8285 136.181 96.8179 136.224H89.6819C89.7352 136.821 89.9005 137.355 90.1779 137.824C90.4659 138.283 90.8339 138.651 91.2819 138.928C91.7405 139.195 92.2365 139.328 92.7699 139.328C93.3139 139.328 93.8259 139.189 94.3059 138.912C94.7965 138.635 95.1379 138.272 95.3299 137.824L96.2739 138.08C96.1032 138.475 95.8419 138.832 95.4899 139.152C95.1379 139.472 94.7219 139.723 94.2419 139.904C93.7725 140.075 93.2659 140.16 92.7219 140.16ZM89.6499 135.44H95.8099C95.7672 134.832 95.6019 134.299 95.3139 133.84C95.0365 133.381 94.6685 133.024 94.2099 132.768C93.7619 132.501 93.2659 132.368 92.7219 132.368C92.1779 132.368 91.6819 132.501 91.2339 132.768C90.7859 133.024 90.4179 133.387 90.1299 133.856C89.8525 134.315 89.6925 134.843 89.6499 135.44ZM102.769 140.16C102.075 140.16 101.451 139.979 100.897 139.616C100.353 139.253 99.9205 138.805 99.6005 138.272V143.408H98.5125V131.664H99.4885V133.28C99.8192 132.757 100.262 132.336 100.817 132.016C101.371 131.685 101.963 131.52 102.593 131.52C103.169 131.52 103.697 131.643 104.177 131.888C104.657 132.123 105.073 132.443 105.425 132.848C105.777 133.253 106.049 133.717 106.241 134.24C106.443 134.752 106.545 135.285 106.545 135.84C106.545 136.619 106.385 137.339 106.065 138C105.755 138.651 105.318 139.173 104.753 139.568C104.187 139.963 103.526 140.16 102.769 140.16ZM102.465 139.2C102.923 139.2 103.334 139.109 103.697 138.928C104.059 138.736 104.369 138.48 104.625 138.16C104.891 137.84 105.094 137.483 105.233 137.088C105.371 136.683 105.441 136.267 105.441 135.84C105.441 135.392 105.361 134.965 105.201 134.56C105.051 134.155 104.833 133.797 104.545 133.488C104.257 133.179 103.926 132.933 103.553 132.752C103.179 132.571 102.774 132.48 102.337 132.48C102.059 132.48 101.771 132.533 101.473 132.64C101.174 132.747 100.886 132.901 100.609 133.104C100.342 133.296 100.118 133.515 99.9365 133.76C99.7552 134.005 99.6432 134.267 99.6005 134.544V137.104C99.7712 137.499 100.001 137.856 100.289 138.176C100.577 138.485 100.907 138.736 101.281 138.928C101.665 139.109 102.059 139.2 102.465 139.2Z" fill="#292929"/>
<rect x="232.5" y="125.5" width="18" height="18" rx="1.5" fill="#155DA4"/>
<rect x="232.5" y="125.5" width="18" height="18" rx="1.5" stroke="#155DA4"/>
<line y1="-0.5" x2="8.22439" y2="-0.5" transform="matrix(0.729537 0.683941 -0.595228 0.803557 235 133.375)" stroke="white"/>
<line y1="-0.5" x2="11.4018" y2="-0.5" transform="matrix(0.613941 -0.789352 0.712652 0.701517 241 139)" stroke="white"/>
<path d="M24.608 177.176V174.008H25.088C25.3867 174.008 25.648 173.885 25.872 173.64C26.1067 173.395 26.304 173 26.464 172.456C26.6347 171.901 26.768 171.16 26.864 170.232C26.9707 169.304 27.0453 168.152 27.088 166.776L27.168 163.64H33.968V174.008H35.328V177.176H34.336V175H25.6V177.176H24.608ZM26.688 174.008H32.848V164.632H28.192L28.128 166.904C28.096 168.344 28.0213 169.549 27.904 170.52C27.7973 171.48 27.6427 172.243 27.44 172.808C27.2373 173.363 26.9867 173.763 26.688 174.008ZM37.1684 175V166.68H38.2564V173.528L43.3284 166.664H44.3044V175H43.2164V168.264L38.2244 175H37.1684ZM49.1004 175.096C48.3324 175.096 47.6764 174.952 47.1324 174.664C46.5884 174.365 46.1724 173.949 45.8844 173.416L46.7804 173.016C46.983 173.389 47.2764 173.683 47.6604 173.896C48.0444 174.099 48.5084 174.2 49.0524 174.2C49.703 174.2 50.2204 174.051 50.6044 173.752C50.999 173.453 51.1964 173.053 51.1964 172.552C51.1964 172.093 51.0417 171.725 50.7324 171.448C50.423 171.171 49.9964 171.027 49.4524 171.016H48.6044V170.264H49.5164C49.751 170.264 49.9644 170.2 50.1564 170.072C50.3484 169.944 50.4977 169.773 50.6044 169.56C50.711 169.347 50.7644 169.107 50.7644 168.84C50.7644 168.424 50.615 168.088 50.3164 167.832C50.0284 167.576 49.6017 167.448 49.0364 167.448C48.567 167.448 48.1724 167.544 47.8524 167.736C47.543 167.917 47.2924 168.189 47.1004 168.552L46.2684 168.104C46.5137 167.613 46.8764 167.229 47.3564 166.952C47.847 166.675 48.4177 166.536 49.0684 166.536C49.6017 166.536 50.0657 166.627 50.4604 166.808C50.8657 166.979 51.1804 167.229 51.4044 167.56C51.639 167.88 51.7564 168.269 51.7564 168.728C51.7564 169.123 51.6604 169.491 51.4684 169.832C51.2764 170.163 51.0097 170.413 50.6684 170.584C51.159 170.733 51.5377 170.995 51.8044 171.368C52.0817 171.741 52.2204 172.179 52.2204 172.68C52.2204 173.181 52.087 173.613 51.8204 173.976C51.5537 174.339 51.1857 174.616 50.7164 174.808C50.247 175 49.7084 175.096 49.1004 175.096ZM53.3717 172.6C53.3717 172.077 53.5211 171.629 53.8198 171.256C54.1184 170.872 54.5291 170.579 55.0518 170.376C55.5851 170.163 56.1984 170.056 56.8918 170.056C57.2971 170.056 57.7184 170.088 58.1558 170.152C58.5931 170.216 58.9824 170.312 59.3238 170.44V169.736C59.3238 169.032 59.1158 168.472 58.6998 168.056C58.2838 167.64 57.7078 167.432 56.9718 167.432C56.5238 167.432 56.0811 167.517 55.6438 167.688C55.2171 167.848 54.7691 168.088 54.2998 168.408L53.8838 167.64C54.4278 167.267 54.9611 166.989 55.4838 166.808C56.0064 166.616 56.5398 166.52 57.0838 166.52C58.1078 166.52 58.9184 166.813 59.5158 167.4C60.1131 167.987 60.4118 168.797 60.4118 169.832V173.688C60.4118 173.837 60.4438 173.949 60.5078 174.024C60.5718 174.088 60.6731 174.125 60.8118 174.136V175C60.6944 175.011 60.5931 175.021 60.5078 175.032C60.4224 175.043 60.3584 175.043 60.3158 175.032C60.0491 175.021 59.8464 174.936 59.7078 174.776C59.5691 174.616 59.4944 174.445 59.4838 174.264L59.4678 173.656C59.0944 174.136 58.6091 174.509 58.0118 174.776C57.4144 175.032 56.8064 175.16 56.1878 175.16C55.6544 175.16 55.1691 175.048 54.7318 174.824C54.3051 174.589 53.9691 174.28 53.7238 173.896C53.4891 173.501 53.3717 173.069 53.3717 172.6ZM58.9558 173.24C59.0731 173.091 59.1638 172.947 59.2278 172.808C59.2918 172.669 59.3238 172.547 59.3238 172.44V171.224C58.9611 171.085 58.5824 170.979 58.1878 170.904C57.8038 170.829 57.4144 170.792 57.0198 170.792C56.2411 170.792 55.6118 170.947 55.1318 171.256C54.6518 171.565 54.4118 171.987 54.4118 172.52C54.4118 172.829 54.4918 173.123 54.6518 173.4C54.8118 173.667 55.0464 173.891 55.3558 174.072C55.6651 174.243 56.0278 174.328 56.4438 174.328C56.9664 174.328 57.4518 174.227 57.8998 174.024C58.3584 173.821 58.7104 173.56 58.9558 173.24ZM62.7465 175V166.68H63.8345V173.528L68.9065 166.664H69.8825V175H68.7945V168.264L63.8025 175H62.7465ZM66.3305 165.608C65.6052 165.608 65.0452 165.437 64.6505 165.096C64.2558 164.755 64.0585 164.323 64.0585 163.8H64.8585C64.8585 164.12 64.9758 164.387 65.2105 164.6C65.4558 164.813 65.8292 164.92 66.3305 164.92C66.8212 164.92 67.1785 164.819 67.4025 164.616C67.6372 164.413 67.7705 164.141 67.8025 163.8H68.5865C68.5865 164.323 68.3892 164.755 67.9945 165.096C67.5998 165.437 67.0452 165.608 66.3305 165.608ZM72.2465 175V166.664H73.3345V170.248H78.1025V166.664H79.1905V175H78.1025V171.224H73.3345V175H72.2465ZM85.1906 175.16C84.5933 175.16 84.0386 175.048 83.5266 174.824C83.0146 174.589 82.572 174.275 82.1986 173.88C81.8253 173.475 81.532 173.011 81.3186 172.488C81.116 171.965 81.0146 171.405 81.0146 170.808C81.0146 170.029 81.1906 169.315 81.5426 168.664C81.9053 168.013 82.4013 167.496 83.0306 167.112C83.66 166.717 84.3746 166.52 85.1746 166.52C85.996 166.52 86.7106 166.717 87.3186 167.112C87.9373 167.507 88.4226 168.029 88.7746 168.68C89.1266 169.32 89.3026 170.024 89.3026 170.792C89.3026 170.877 89.3026 170.963 89.3026 171.048C89.3026 171.123 89.2973 171.181 89.2866 171.224H82.1506C82.204 171.821 82.3693 172.355 82.6466 172.824C82.9346 173.283 83.3026 173.651 83.7506 173.928C84.2093 174.195 84.7053 174.328 85.2386 174.328C85.7826 174.328 86.2946 174.189 86.7746 173.912C87.2653 173.635 87.6066 173.272 87.7986 172.824L88.7426 173.08C88.572 173.475 88.3106 173.832 87.9586 174.152C87.6066 174.472 87.1906 174.723 86.7106 174.904C86.2413 175.075 85.7346 175.16 85.1906 175.16ZM82.1186 170.44H88.2786C88.236 169.832 88.0706 169.299 87.7826 168.84C87.5053 168.381 87.1373 168.024 86.6786 167.768C86.2306 167.501 85.7346 167.368 85.1906 167.368C84.6466 167.368 84.1506 167.501 83.7026 167.768C83.2546 168.024 82.8866 168.387 82.5986 168.856C82.3213 169.315 82.1613 169.843 82.1186 170.44ZM95.2373 175.16C94.5439 175.16 93.9199 174.979 93.3653 174.616C92.8213 174.253 92.3893 173.805 92.0693 173.272V178.408H90.9813V166.664H91.9573V168.28C92.2879 167.757 92.7306 167.336 93.2853 167.016C93.8399 166.685 94.4319 166.52 95.0613 166.52C95.6373 166.52 96.1653 166.643 96.6453 166.888C97.1253 167.123 97.5413 167.443 97.8933 167.848C98.2453 168.253 98.5173 168.717 98.7093 169.24C98.9119 169.752 99.0133 170.285 99.0133 170.84C99.0133 171.619 98.8533 172.339 98.5333 173C98.2239 173.651 97.7866 174.173 97.2213 174.568C96.6559 174.963 95.9946 175.16 95.2373 175.16ZM94.9333 174.2C95.3919 174.2 95.8026 174.109 96.1653 173.928C96.5279 173.736 96.8373 173.48 97.0933 173.16C97.3599 172.84 97.5626 172.483 97.7013 172.088C97.8399 171.683 97.9093 171.267 97.9093 170.84C97.9093 170.392 97.8293 169.965 97.6693 169.56C97.5199 169.155 97.3013 168.797 97.0133 168.488C96.7253 168.179 96.3946 167.933 96.0213 167.752C95.6479 167.571 95.2426 167.48 94.8053 167.48C94.5279 167.48 94.2399 167.533 93.9413 167.64C93.6426 167.747 93.3546 167.901 93.0773 168.104C92.8106 168.296 92.5866 168.515 92.4053 168.76C92.2239 169.005 92.1119 169.267 92.0693 169.544V172.104C92.2399 172.499 92.4693 172.856 92.7573 173.176C93.0453 173.485 93.3759 173.736 93.7493 173.928C94.1333 174.109 94.5279 174.2 94.9333 174.2Z" fill="#292929"/>
<rect x="232.5" y="160.5" width="18" height="18" rx="1.5" stroke="#155DA4"/>
<path d="M25.424 210V198.64H32.88V199.632H26.544V203.808H31.888V204.736H26.544V210H25.424ZM34.0106 206.56V201.664H35.0986V206.368C35.0986 207.317 35.2586 208.027 35.5786 208.496C35.9093 208.965 36.3946 209.2 37.0346 209.2C37.4613 209.2 37.872 209.109 38.2666 208.928C38.672 208.736 39.0293 208.469 39.3386 208.128C39.648 207.776 39.8826 207.371 40.0426 206.912V201.664H41.1306V208.688C41.1306 208.837 41.1626 208.949 41.2266 209.024C41.2906 209.088 41.3866 209.125 41.5146 209.136V210C41.3866 210.011 41.2853 210.016 41.2106 210.016C41.136 210.027 41.0666 210.032 41.0026 210.032C40.7893 210.011 40.6026 209.925 40.4426 209.776C40.2933 209.627 40.2133 209.445 40.2026 209.232L40.1706 208.112C39.808 208.752 39.312 209.253 38.6826 209.616C38.064 209.979 37.392 210.16 36.6666 210.16C35.792 210.16 35.1306 209.856 34.6826 209.248C34.2346 208.64 34.0106 207.744 34.0106 206.56ZM43.6386 198.32H44.7266V208.112C44.7266 208.528 44.8013 208.8 44.9506 208.928C45.1 209.056 45.2813 209.12 45.4946 209.12C45.6866 209.12 45.8786 209.099 46.0706 209.056C46.2626 209.013 46.428 208.971 46.5666 208.928L46.7586 209.808C46.556 209.893 46.3053 209.963 46.0066 210.016C45.7186 210.069 45.468 210.096 45.2546 210.096C44.764 210.096 44.3693 209.952 44.0706 209.664C43.7826 209.376 43.6386 208.981 43.6386 208.48V198.32ZM47.998 198.32H49.086V208.112C49.086 208.528 49.1607 208.8 49.31 208.928C49.4593 209.056 49.6407 209.12 49.854 209.12C50.046 209.12 50.238 209.099 50.43 209.056C50.622 209.013 50.7873 208.971 50.926 208.928L51.118 209.808C50.9153 209.893 50.6647 209.963 50.366 210.016C50.078 210.069 49.8273 210.096 49.614 210.096C49.1233 210.096 48.7287 209.952 48.43 209.664C48.142 209.376 47.998 208.981 47.998 208.48V198.32ZM55.0454 210.16C54.3627 210.16 53.728 210.048 53.1414 209.824C52.5547 209.6 52.048 209.259 51.6214 208.8L52.0694 208.032C52.5387 208.469 53.008 208.789 53.4774 208.992C53.9574 209.184 54.464 209.28 54.9974 209.28C55.648 209.28 56.176 209.152 56.5814 208.896C56.9867 208.629 57.1894 208.251 57.1894 207.76C57.1894 207.429 57.088 207.179 56.8854 207.008C56.6934 206.827 56.4107 206.683 56.0374 206.576C55.6747 206.459 55.2374 206.336 54.7254 206.208C54.1494 206.048 53.664 205.883 53.2694 205.712C52.8854 205.531 52.592 205.307 52.3894 205.04C52.1974 204.763 52.1014 204.405 52.1014 203.968C52.1014 203.424 52.2347 202.976 52.5014 202.624C52.7787 202.261 53.152 201.989 53.6214 201.808C54.1014 201.616 54.6347 201.52 55.2214 201.52C55.8614 201.52 56.4267 201.621 56.9174 201.824C57.408 202.027 57.808 202.309 58.1174 202.672L57.5894 203.408C57.2907 203.067 56.9334 202.816 56.5174 202.656C56.112 202.485 55.6587 202.4 55.1574 202.4C54.816 202.4 54.4907 202.448 54.1814 202.544C53.872 202.629 53.616 202.779 53.4134 202.992C53.2214 203.195 53.1254 203.477 53.1254 203.84C53.1254 204.139 53.2 204.373 53.3494 204.544C53.4987 204.704 53.7227 204.843 54.0214 204.96C54.32 205.067 54.688 205.184 55.1254 205.312C55.7547 205.483 56.304 205.659 56.7734 205.84C57.2427 206.011 57.6054 206.235 57.8614 206.512C58.1174 206.789 58.2454 207.179 58.2454 207.68C58.2454 208.459 57.952 209.067 57.3654 209.504C56.7787 209.941 56.0054 210.16 55.0454 210.16ZM64.0438 209.6C63.9584 209.632 63.8251 209.691 63.6438 209.776C63.4624 209.861 63.2438 209.936 62.9878 210C62.7318 210.064 62.4544 210.096 62.1558 210.096C61.8464 210.096 61.5531 210.037 61.2758 209.92C61.0091 209.803 60.7958 209.627 60.6358 209.392C60.4758 209.147 60.3958 208.848 60.3958 208.496V202.528H59.2438V201.664H60.3958V198.848H61.4838V201.664H63.4038V202.528H61.4838V208.192C61.5051 208.491 61.6118 208.715 61.8038 208.864C62.0064 209.013 62.2358 209.088 62.4918 209.088C62.7904 209.088 63.0624 209.04 63.3078 208.944C63.5531 208.837 63.7024 208.763 63.7558 208.72L64.0438 209.6ZM64.7311 207.6C64.7311 207.077 64.8805 206.629 65.1791 206.256C65.4778 205.872 65.8885 205.579 66.4111 205.376C66.9445 205.163 67.5578 205.056 68.2511 205.056C68.6565 205.056 69.0778 205.088 69.5151 205.152C69.9525 205.216 70.3418 205.312 70.6831 205.44V204.736C70.6831 204.032 70.4751 203.472 70.0591 203.056C69.6431 202.64 69.0671 202.432 68.3311 202.432C67.8831 202.432 67.4405 202.517 67.0031 202.688C66.5765 202.848 66.1285 203.088 65.6591 203.408L65.2431 202.64C65.7871 202.267 66.3205 201.989 66.8431 201.808C67.3658 201.616 67.8991 201.52 68.4431 201.52C69.4671 201.52 70.2778 201.813 70.8751 202.4C71.4725 202.987 71.7711 203.797 71.7711 204.832V208.688C71.7711 208.837 71.8031 208.949 71.8671 209.024C71.9311 209.088 72.0325 209.125 72.1711 209.136V210C72.0538 210.011 71.9525 210.021 71.8671 210.032C71.7818 210.043 71.7178 210.043 71.6751 210.032C71.4085 210.021 71.2058 209.936 71.0671 209.776C70.9285 209.616 70.8538 209.445 70.8431 209.264L70.8271 208.656C70.4538 209.136 69.9685 209.509 69.3711 209.776C68.7738 210.032 68.1658 210.16 67.5471 210.16C67.0138 210.16 66.5285 210.048 66.0911 209.824C65.6645 209.589 65.3285 209.28 65.0831 208.896C64.8485 208.501 64.7311 208.069 64.7311 207.6ZM70.3151 208.24C70.4325 208.091 70.5231 207.947 70.5871 207.808C70.6511 207.669 70.6831 207.547 70.6831 207.44V206.224C70.3205 206.085 69.9418 205.979 69.5471 205.904C69.1631 205.829 68.7738 205.792 68.3791 205.792C67.6005 205.792 66.9711 205.947 66.4911 206.256C66.0111 206.565 65.7711 206.987 65.7711 207.52C65.7711 207.829 65.8511 208.123 66.0111 208.4C66.1711 208.667 66.4058 208.891 66.7151 209.072C67.0245 209.243 67.3871 209.328 67.8031 209.328C68.3258 209.328 68.8111 209.227 69.2591 209.024C69.7178 208.821 70.0698 208.56 70.3151 208.24ZM77.7379 210.16C77.1299 210.16 76.5699 210.048 76.0579 209.824C75.5565 209.589 75.1139 209.269 74.7299 208.864C74.3565 208.459 74.0632 207.995 73.8499 207.472C73.6472 206.949 73.5459 206.395 73.5459 205.808C73.5459 205.019 73.7219 204.299 74.0739 203.648C74.4259 202.997 74.9165 202.48 75.5459 202.096C76.1752 201.712 76.9005 201.52 77.7219 201.52C78.5005 201.52 79.1885 201.701 79.7859 202.064C80.3832 202.416 80.8259 202.896 81.1139 203.504L80.0579 203.84C79.8232 203.413 79.4925 203.083 79.0659 202.848C78.6499 202.603 78.1859 202.48 77.6739 202.48C77.1192 202.48 76.6125 202.624 76.1539 202.912C75.6952 203.2 75.3272 203.595 75.0499 204.096C74.7832 204.597 74.6499 205.168 74.6499 205.808C74.6499 206.437 74.7885 207.008 75.0659 207.52C75.3432 208.032 75.7112 208.443 76.1699 208.752C76.6285 209.051 77.1352 209.2 77.6899 209.2C78.0525 209.2 78.3992 209.136 78.7299 209.008C79.0712 208.88 79.3645 208.709 79.6099 208.496C79.8659 208.272 80.0365 208.032 80.1219 207.776L81.1939 208.096C81.0445 208.491 80.7939 208.848 80.4419 209.168C80.1005 209.477 79.6952 209.723 79.2259 209.904C78.7672 210.075 78.2712 210.16 77.7379 210.16ZM88.8551 210L85.7671 205.728L83.9911 207.392V210H82.9031V198.32H83.9911V206.224L88.7111 201.68H89.9111L86.5031 205.088L90.0391 210H88.8551Z" fill="#292929"/>
<rect x="232.5" y="195.5" width="18" height="18" rx="1.5" stroke="#155DA4"/>
</g>
<defs>
<filter id="filter0_d_25_149" x="0" y="0" width="275" height="242" filterUnits="userSpaceOnUse" color-interpolation-filters="sRGB">
<feFlood flood-opacity="0" result="BackgroundImageFix"/>
<feColorMatrix in="SourceAlpha" type="matrix" values="0 0 0 0 0 0 0 0 0 0 0 0 0 0 0 0 0 0 127 0" result="hardAlpha"/>
<feOffset dy="4"/>
<feGaussianBlur stdDeviation="2"/>
<feComposite in2="hardAlpha" operator="out"/>
<feColorMatrix type="matrix" values="0 0 0 0 0 0 0 0 0 0 0 0 0 0 0 0 0 0 0.25 0"/>
<feBlend mode="normal" in2="BackgroundImageFix" result="effect1_dropShadow_25_149"/>
<feBlend mode="normal" in="SourceGraphic" in2="effect1_dropShadow_25_149" result="shape"/>
</filter>
</defs>
</svg>
