<svg width="232" height="222" viewBox="0 0 232 222" fill="none" xmlns="http://www.w3.org/2000/svg">
<g filter="url(#filter0_d_25_177)">
<mask id="path-1-inside-1_25_177" fill="white">
<path d="M4 0H228V214H4V0Z"/>
</mask>
<path d="M4 0H228V214H4V0Z" fill="white"/>
<path d="M4 1H228V-1H4V1Z" fill="#155DA4" mask="url(#path-1-inside-1_25_177)"/>
<path d="M31.476 31.304C31.476 31.728 31.368 32.108 31.152 32.444C30.936 32.772 30.644 33.032 30.276 33.224C29.916 33.408 29.52 33.5 29.088 33.5H25.068V24.98H29.172C29.572 24.98 29.916 25.088 30.204 25.304C30.5 25.512 30.724 25.784 30.876 26.12C31.036 26.448 31.116 26.792 31.116 27.152C31.116 27.576 31.008 27.968 30.792 28.328C30.576 28.688 30.276 28.956 29.892 29.132C30.38 29.276 30.764 29.544 31.044 29.936C31.332 30.328 31.476 30.784 31.476 31.304ZM30.636 31.16C30.636 30.872 30.572 30.608 30.444 30.368C30.316 30.12 30.14 29.92 29.916 29.768C29.7 29.616 29.452 29.54 29.172 29.54H25.908V32.768H29.088C29.376 32.768 29.636 32.692 29.868 32.54C30.1 32.388 30.284 32.192 30.42 31.952C30.564 31.704 30.636 31.44 30.636 31.16ZM25.908 25.712V28.856H28.836C29.116 28.856 29.364 28.784 29.58 28.64C29.796 28.488 29.968 28.292 30.096 28.052C30.224 27.812 30.288 27.556 30.288 27.284C30.288 26.996 30.228 26.736 30.108 26.504C29.988 26.264 29.824 26.072 29.616 25.928C29.408 25.784 29.172 25.712 28.908 25.712H25.908ZM32.3882 31.7C32.3882 31.308 32.5002 30.972 32.7242 30.692C32.9482 30.404 33.2562 30.184 33.6482 30.032C34.0482 29.872 34.5082 29.792 35.0282 29.792C35.3322 29.792 35.6482 29.816 35.9762 29.864C36.3042 29.912 36.5962 29.984 36.8522 30.08V29.552C36.8522 29.024 36.6962 28.604 36.3842 28.292C36.0722 27.98 35.6402 27.824 35.0882 27.824C34.7522 27.824 34.4202 27.888 34.0922 28.016C33.7722 28.136 33.4362 28.316 33.0842 28.556L32.7722 27.98C33.1802 27.7 33.5802 27.492 33.9722 27.356C34.3642 27.212 34.7642 27.14 35.1722 27.14C35.9402 27.14 36.5482 27.36 36.9962 27.8C37.4442 28.24 37.6682 28.848 37.6682 29.624V32.516C37.6682 32.628 37.6922 32.712 37.7402 32.768C37.7882 32.816 37.8642 32.844 37.9682 32.852V33.5C37.8802 33.508 37.8042 33.516 37.7402 33.524C37.6762 33.532 37.6282 33.532 37.5962 33.524C37.3962 33.516 37.2442 33.452 37.1402 33.332C37.0362 33.212 36.9802 33.084 36.9722 32.948L36.9602 32.492C36.6802 32.852 36.3162 33.132 35.8682 33.332C35.4202 33.524 34.9642 33.62 34.5002 33.62C34.1002 33.62 33.7362 33.536 33.4082 33.368C33.0882 33.192 32.8362 32.96 32.6522 32.672C32.4762 32.376 32.3882 32.052 32.3882 31.7ZM36.5762 32.18C36.6642 32.068 36.7322 31.96 36.7802 31.856C36.8282 31.752 36.8522 31.66 36.8522 31.58V30.668C36.5802 30.564 36.2962 30.484 36.0002 30.428C35.7122 30.372 35.4202 30.344 35.1242 30.344C34.5402 30.344 34.0682 30.46 33.7082 30.692C33.3482 30.924 33.1682 31.24 33.1682 31.64C33.1682 31.872 33.2282 32.092 33.3482 32.3C33.4682 32.5 33.6442 32.668 33.8762 32.804C34.1082 32.932 34.3802 32.996 34.6922 32.996C35.0842 32.996 35.4482 32.92 35.7842 32.768C36.1282 32.616 36.3922 32.42 36.5762 32.18ZM42.1433 33.62C41.6873 33.62 41.2673 33.536 40.8833 33.368C40.5073 33.192 40.1753 32.952 39.8873 32.648C39.6073 32.344 39.3873 31.996 39.2273 31.604C39.0753 31.212 38.9993 30.796 38.9993 30.356C38.9993 29.764 39.1313 29.224 39.3953 28.736C39.6593 28.248 40.0273 27.86 40.4993 27.572C40.9713 27.284 41.5153 27.14 42.1313 27.14C42.7153 27.14 43.2313 27.276 43.6793 27.548C44.1273 27.812 44.4593 28.172 44.6753 28.628L43.8833 28.88C43.7073 28.56 43.4593 28.312 43.1393 28.136C42.8273 27.952 42.4793 27.86 42.0953 27.86C41.6793 27.86 41.2993 27.968 40.9553 28.184C40.6113 28.4 40.3353 28.696 40.1273 29.072C39.9273 29.448 39.8273 29.876 39.8273 30.356C39.8273 30.828 39.9313 31.256 40.1393 31.64C40.3473 32.024 40.6233 32.332 40.9673 32.564C41.3113 32.788 41.6913 32.9 42.1073 32.9C42.3793 32.9 42.6393 32.852 42.8873 32.756C43.1433 32.66 43.3633 32.532 43.5473 32.372C43.7393 32.204 43.8673 32.024 43.9313 31.832L44.7353 32.072C44.6233 32.368 44.4353 32.636 44.1713 32.876C43.9153 33.108 43.6113 33.292 43.2593 33.428C42.9153 33.556 42.5433 33.62 42.1433 33.62ZM50.4812 33.5L48.1652 30.296L46.8332 31.544V33.5H46.0172V24.74H46.8332V30.668L50.3732 27.26H51.2732L48.7172 29.816L51.3692 33.5H50.4812ZM54.7523 33.62C54.3043 33.62 53.8883 33.536 53.5043 33.368C53.1203 33.192 52.7883 32.956 52.5083 32.66C52.2283 32.356 52.0083 32.008 51.8483 31.616C51.6963 31.224 51.6203 30.804 51.6203 30.356C51.6203 29.772 51.7523 29.236 52.0163 28.748C52.2883 28.26 52.6603 27.872 53.1323 27.584C53.6043 27.288 54.1403 27.14 54.7403 27.14C55.3563 27.14 55.8923 27.288 56.3483 27.584C56.8123 27.88 57.1763 28.272 57.4403 28.76C57.7043 29.24 57.8363 29.768 57.8363 30.344C57.8363 30.408 57.8363 30.472 57.8363 30.536C57.8363 30.592 57.8323 30.636 57.8243 30.668H52.4723C52.5123 31.116 52.6363 31.516 52.8443 31.868C53.0603 32.212 53.3363 32.488 53.6723 32.696C54.0163 32.896 54.3883 32.996 54.7883 32.996C55.1963 32.996 55.5803 32.892 55.9403 32.684C56.3083 32.476 56.5643 32.204 56.7083 31.868L57.4163 32.06C57.2883 32.356 57.0923 32.624 56.8283 32.864C56.5643 33.104 56.2523 33.292 55.8923 33.428C55.5403 33.556 55.1603 33.62 54.7523 33.62ZM52.4483 30.08H57.0683C57.0363 29.624 56.9123 29.224 56.6963 28.88C56.4883 28.536 56.2123 28.268 55.8683 28.076C55.5323 27.876 55.1603 27.776 54.7523 27.776C54.3443 27.776 53.9723 27.876 53.6363 28.076C53.3003 28.268 53.0243 28.54 52.8083 28.892C52.6003 29.236 52.4803 29.632 52.4483 30.08ZM64.3513 33.5H63.5353V30.008C63.5353 29.272 63.4273 28.736 63.2113 28.4C62.9953 28.056 62.6553 27.884 62.1913 27.884C61.8713 27.884 61.5553 27.964 61.2433 28.124C60.9313 28.276 60.6553 28.488 60.4153 28.76C60.1833 29.024 60.0153 29.328 59.9113 29.672V33.5H59.0953V27.248H59.8393V28.664C60.0073 28.36 60.2273 28.096 60.4993 27.872C60.7713 27.64 61.0793 27.46 61.4233 27.332C61.7673 27.204 62.1233 27.14 62.4913 27.14C62.8353 27.14 63.1273 27.204 63.3673 27.332C63.6073 27.46 63.7993 27.644 63.9433 27.884C64.0873 28.116 64.1913 28.4 64.2553 28.736C64.3193 29.064 64.3513 29.432 64.3513 29.84V33.5ZM65.6714 30.392C65.6714 29.8 65.7914 29.26 66.0314 28.772C66.2794 28.276 66.6194 27.88 67.0514 27.584C67.4834 27.288 67.9754 27.14 68.5274 27.14C69.0474 27.14 69.5114 27.28 69.9194 27.56C70.3354 27.832 70.6594 28.164 70.8914 28.556V24.74H71.7074V32.516C71.7074 32.628 71.7314 32.712 71.7794 32.768C71.8274 32.816 71.8994 32.844 71.9954 32.852V33.5C71.8354 33.524 71.7114 33.532 71.6234 33.524C71.4554 33.516 71.3074 33.448 71.1794 33.32C71.0514 33.192 70.9874 33.052 70.9874 32.9V32.288C70.7394 32.696 70.4034 33.02 69.9794 33.26C69.5554 33.5 69.1154 33.62 68.6594 33.62C68.2274 33.62 67.8274 33.532 67.4594 33.356C67.0994 33.18 66.7834 32.94 66.5114 32.636C66.2474 32.332 66.0394 31.988 65.8874 31.604C65.7434 31.212 65.6714 30.808 65.6714 30.392ZM70.8914 31.352V29.42C70.7874 29.132 70.6194 28.872 70.3874 28.64C70.1554 28.4 69.8914 28.212 69.5954 28.076C69.3074 27.932 69.0194 27.86 68.7314 27.86C68.3954 27.86 68.0914 27.932 67.8194 28.076C67.5474 28.212 67.3114 28.4 67.1114 28.64C66.9194 28.88 66.7714 29.152 66.6674 29.456C66.5634 29.76 66.5114 30.072 66.5114 30.392C66.5114 30.728 66.5674 31.048 66.6794 31.352C66.7994 31.656 66.9674 31.928 67.1834 32.168C67.3994 32.4 67.6474 32.58 67.9274 32.708C68.2074 32.836 68.5114 32.9 68.8394 32.9C69.0474 32.9 69.2634 32.86 69.4874 32.78C69.7114 32.7 69.9234 32.592 70.1234 32.456C70.3314 32.312 70.5034 32.144 70.6394 31.952C70.7754 31.76 70.8594 31.56 70.8914 31.352ZM73.4363 30.608V29.852H76.9403V30.608H73.4363ZM81.8108 33.62C81.2908 33.62 80.8228 33.484 80.4068 33.212C79.9988 32.94 79.6748 32.604 79.4348 32.204V36.056H78.6188V27.248H79.3508V28.46C79.5988 28.068 79.9308 27.752 80.3468 27.512C80.7628 27.264 81.2068 27.14 81.6788 27.14C82.1108 27.14 82.5068 27.232 82.8668 27.416C83.2268 27.592 83.5388 27.832 83.8028 28.136C84.0668 28.44 84.2708 28.788 84.4148 29.18C84.5668 29.564 84.6428 29.964 84.6428 30.38C84.6428 30.964 84.5228 31.504 84.2828 32C84.0508 32.488 83.7228 32.88 83.2988 33.176C82.8748 33.472 82.3788 33.62 81.8108 33.62ZM81.5828 32.9C81.9268 32.9 82.2348 32.832 82.5068 32.696C82.7788 32.552 83.0108 32.36 83.2028 32.12C83.4028 31.88 83.5548 31.612 83.6588 31.316C83.7628 31.012 83.8148 30.7 83.8148 30.38C83.8148 30.044 83.7548 29.724 83.6348 29.42C83.5228 29.116 83.3588 28.848 83.1428 28.616C82.9268 28.384 82.6788 28.2 82.3988 28.064C82.1188 27.928 81.8148 27.86 81.4868 27.86C81.2788 27.86 81.0628 27.9 80.8388 27.98C80.6148 28.06 80.3988 28.176 80.1908 28.328C79.9908 28.472 79.8228 28.636 79.6868 28.82C79.5508 29.004 79.4668 29.2 79.4348 29.408V31.328C79.5628 31.624 79.7348 31.892 79.9508 32.132C80.1668 32.364 80.4148 32.552 80.6948 32.696C80.9828 32.832 81.2788 32.9 81.5828 32.9ZM85.521 31.7C85.521 31.308 85.633 30.972 85.857 30.692C86.081 30.404 86.389 30.184 86.781 30.032C87.181 29.872 87.641 29.792 88.161 29.792C88.465 29.792 88.781 29.816 89.109 29.864C89.437 29.912 89.729 29.984 89.985 30.08V29.552C89.985 29.024 89.829 28.604 89.517 28.292C89.205 27.98 88.773 27.824 88.221 27.824C87.885 27.824 87.553 27.888 87.225 28.016C86.905 28.136 86.569 28.316 86.217 28.556L85.905 27.98C86.313 27.7 86.713 27.492 87.105 27.356C87.497 27.212 87.897 27.14 88.305 27.14C89.073 27.14 89.681 27.36 90.129 27.8C90.577 28.24 90.801 28.848 90.801 29.624V32.516C90.801 32.628 90.825 32.712 90.873 32.768C90.921 32.816 90.997 32.844 91.101 32.852V33.5C91.013 33.508 90.937 33.516 90.873 33.524C90.809 33.532 90.761 33.532 90.729 33.524C90.529 33.516 90.377 33.452 90.273 33.332C90.169 33.212 90.113 33.084 90.105 32.948L90.093 32.492C89.813 32.852 89.449 33.132 89.001 33.332C88.553 33.524 88.097 33.62 87.633 33.62C87.233 33.62 86.869 33.536 86.541 33.368C86.221 33.192 85.969 32.96 85.785 32.672C85.609 32.376 85.521 32.052 85.521 31.7ZM89.709 32.18C89.797 32.068 89.865 31.96 89.913 31.856C89.961 31.752 89.985 31.66 89.985 31.58V30.668C89.713 30.564 89.429 30.484 89.133 30.428C88.845 30.372 88.553 30.344 88.257 30.344C87.673 30.344 87.201 30.46 86.841 30.692C86.481 30.924 86.301 31.24 86.301 31.64C86.301 31.872 86.361 32.092 86.481 32.3C86.601 32.5 86.777 32.668 87.009 32.804C87.241 32.932 87.513 32.996 87.825 32.996C88.217 32.996 88.581 32.92 88.917 32.768C89.261 32.616 89.525 32.42 89.709 32.18ZM94.3761 33.572C93.8001 33.572 93.3081 33.464 92.9001 33.248C92.4921 33.024 92.1801 32.712 91.9641 32.312L92.6361 32.012C92.7881 32.292 93.0081 32.512 93.2961 32.672C93.5841 32.824 93.9321 32.9 94.3401 32.9C94.8281 32.9 95.2161 32.788 95.5041 32.564C95.8001 32.34 95.9481 32.04 95.9481 31.664C95.9481 31.32 95.8321 31.044 95.6001 30.836C95.3681 30.628 95.0481 30.52 94.6401 30.512H94.0041V29.948H94.6881C94.8641 29.948 95.0241 29.9 95.1681 29.804C95.3121 29.708 95.4241 29.58 95.5041 29.42C95.5841 29.26 95.6241 29.08 95.6241 28.88C95.6241 28.568 95.5121 28.316 95.2881 28.124C95.0721 27.932 94.7521 27.836 94.3281 27.836C93.9761 27.836 93.6801 27.908 93.4401 28.052C93.2081 28.188 93.0201 28.392 92.8761 28.664L92.2521 28.328C92.4361 27.96 92.7081 27.672 93.0681 27.464C93.4361 27.256 93.8641 27.152 94.3521 27.152C94.7521 27.152 95.1001 27.22 95.3961 27.356C95.7001 27.484 95.9361 27.672 96.1041 27.92C96.2801 28.16 96.3681 28.452 96.3681 28.796C96.3681 29.092 96.2961 29.368 96.1521 29.624C96.0081 29.872 95.8081 30.06 95.5521 30.188C95.9201 30.3 96.2041 30.496 96.4041 30.776C96.6121 31.056 96.7161 31.384 96.7161 31.76C96.7161 32.136 96.6161 32.46 96.4161 32.732C96.2161 33.004 95.9401 33.212 95.5881 33.356C95.2361 33.5 94.8321 33.572 94.3761 33.572ZM101.276 33.62C100.756 33.62 100.288 33.484 99.8716 33.212C99.4636 32.94 99.1396 32.604 98.8996 32.204V36.056H98.0836V27.248H98.8156V28.46C99.0636 28.068 99.3956 27.752 99.8116 27.512C100.228 27.264 100.672 27.14 101.144 27.14C101.576 27.14 101.972 27.232 102.332 27.416C102.692 27.592 103.004 27.832 103.268 28.136C103.532 28.44 103.736 28.788 103.88 29.18C104.032 29.564 104.108 29.964 104.108 30.38C104.108 30.964 103.988 31.504 103.748 32C103.516 32.488 103.188 32.88 102.764 33.176C102.34 33.472 101.844 33.62 101.276 33.62ZM101.048 32.9C101.392 32.9 101.7 32.832 101.972 32.696C102.244 32.552 102.476 32.36 102.668 32.12C102.868 31.88 103.02 31.612 103.124 31.316C103.228 31.012 103.28 30.7 103.28 30.38C103.28 30.044 103.22 29.724 103.1 29.42C102.988 29.116 102.824 28.848 102.608 28.616C102.392 28.384 102.144 28.2 101.864 28.064C101.584 27.928 101.28 27.86 100.952 27.86C100.744 27.86 100.528 27.9 100.304 27.98C100.08 28.06 99.8636 28.176 99.6556 28.328C99.4556 28.472 99.2876 28.636 99.1516 28.82C99.0156 29.004 98.9316 29.2 98.8996 29.408V31.328C99.0276 31.624 99.1996 31.892 99.4156 32.132C99.6316 32.364 99.8796 32.552 100.16 32.696C100.448 32.832 100.744 32.9 101.048 32.9ZM104.986 31.7C104.986 31.308 105.098 30.972 105.322 30.692C105.546 30.404 105.854 30.184 106.246 30.032C106.646 29.872 107.106 29.792 107.626 29.792C107.93 29.792 108.246 29.816 108.574 29.864C108.902 29.912 109.194 29.984 109.45 30.08V29.552C109.45 29.024 109.294 28.604 108.982 28.292C108.67 27.98 108.238 27.824 107.686 27.824C107.35 27.824 107.018 27.888 106.69 28.016C106.37 28.136 106.034 28.316 105.682 28.556L105.37 27.98C105.778 27.7 106.178 27.492 106.57 27.356C106.962 27.212 107.362 27.14 107.77 27.14C108.538 27.14 109.146 27.36 109.594 27.8C110.042 28.24 110.266 28.848 110.266 29.624V32.516C110.266 32.628 110.29 32.712 110.338 32.768C110.386 32.816 110.462 32.844 110.566 32.852V33.5C110.478 33.508 110.402 33.516 110.338 33.524C110.274 33.532 110.226 33.532 110.194 33.524C109.994 33.516 109.842 33.452 109.738 33.332C109.634 33.212 109.578 33.084 109.57 32.948L109.558 32.492C109.278 32.852 108.914 33.132 108.466 33.332C108.018 33.524 107.562 33.62 107.098 33.62C106.698 33.62 106.334 33.536 106.006 33.368C105.686 33.192 105.434 32.96 105.25 32.672C105.074 32.376 104.986 32.052 104.986 31.7ZM109.174 32.18C109.262 32.068 109.33 31.96 109.378 31.856C109.426 31.752 109.45 31.66 109.45 31.58V30.668C109.178 30.564 108.894 30.484 108.598 30.428C108.31 30.372 108.018 30.344 107.722 30.344C107.138 30.344 106.666 30.46 106.306 30.692C105.946 30.924 105.766 31.24 105.766 31.64C105.766 31.872 105.826 32.092 105.946 32.3C106.066 32.5 106.242 32.668 106.474 32.804C106.706 32.932 106.978 32.996 107.29 32.996C107.682 32.996 108.046 32.92 108.382 32.768C108.726 32.616 108.99 32.42 109.174 32.18ZM114.897 33.62C113.889 33.62 113.125 33.312 112.605 32.696C112.093 32.072 111.837 31.212 111.837 30.116C111.837 29.34 111.901 28.684 112.029 28.148C112.157 27.612 112.345 27.172 112.593 26.828C112.841 26.476 113.145 26.188 113.505 25.964C113.873 25.74 114.293 25.556 114.765 25.412L117.393 24.548L117.465 25.256L114.933 26.084C114.453 26.244 114.053 26.448 113.733 26.696C113.413 26.944 113.161 27.26 112.977 27.644C112.801 28.02 112.685 28.512 112.629 29.12C112.837 28.656 113.157 28.3 113.589 28.052C114.021 27.796 114.521 27.668 115.089 27.668C115.697 27.668 116.213 27.792 116.637 28.04C117.069 28.288 117.397 28.632 117.621 29.072C117.845 29.512 117.957 30.02 117.957 30.596C117.957 31.204 117.837 31.736 117.597 32.192C117.365 32.64 117.021 32.992 116.565 33.248C116.117 33.496 115.561 33.62 114.897 33.62ZM114.897 32.9C115.609 32.9 116.157 32.696 116.541 32.288C116.933 31.872 117.129 31.32 117.129 30.632C117.129 29.96 116.937 29.412 116.553 28.988C116.177 28.564 115.625 28.352 114.897 28.352C114.481 28.352 114.105 28.44 113.769 28.616C113.433 28.792 113.165 29.048 112.965 29.384C112.773 29.72 112.677 30.136 112.677 30.632C112.677 31.064 112.761 31.452 112.929 31.796C113.105 32.14 113.357 32.412 113.685 32.612C114.013 32.804 114.417 32.9 114.897 32.9ZM121.994 33.62C121.546 33.62 121.13 33.536 120.746 33.368C120.37 33.192 120.042 32.956 119.762 32.66C119.49 32.356 119.278 32.012 119.126 31.628C118.974 31.236 118.898 30.824 118.898 30.392C118.898 29.944 118.974 29.528 119.126 29.144C119.278 28.752 119.494 28.408 119.774 28.112C120.054 27.808 120.382 27.572 120.758 27.404C121.142 27.228 121.558 27.14 122.006 27.14C122.454 27.14 122.866 27.228 123.242 27.404C123.618 27.572 123.946 27.808 124.226 28.112C124.506 28.408 124.722 28.752 124.874 29.144C125.026 29.528 125.102 29.944 125.102 30.392C125.102 30.824 125.026 31.236 124.874 31.628C124.722 32.012 124.506 32.356 124.226 32.66C123.954 32.956 123.626 33.192 123.242 33.368C122.866 33.536 122.45 33.62 121.994 33.62ZM119.726 30.404C119.726 30.868 119.826 31.292 120.026 31.676C120.234 32.052 120.51 32.352 120.854 32.576C121.198 32.792 121.578 32.9 121.994 32.9C122.41 32.9 122.79 32.788 123.134 32.564C123.478 32.34 123.754 32.036 123.962 31.652C124.17 31.26 124.274 30.836 124.274 30.38C124.274 29.916 124.17 29.492 123.962 29.108C123.754 28.724 123.478 28.42 123.134 28.196C122.79 27.972 122.41 27.86 121.994 27.86C121.578 27.86 121.198 27.976 120.854 28.208C120.518 28.44 120.246 28.748 120.038 29.132C119.83 29.508 119.726 29.932 119.726 30.404ZM128.026 33.5V27.98H125.794V27.248H131.074V27.98H128.842V33.5H128.026ZM135.761 33.5V30.884C135.505 31.004 135.237 31.096 134.957 31.16C134.677 31.216 134.377 31.244 134.057 31.244C133.369 31.244 132.849 31.068 132.497 30.716C132.153 30.364 131.981 29.824 131.981 29.096V27.248H132.797V28.988C132.797 29.548 132.909 29.956 133.133 30.212C133.365 30.468 133.733 30.596 134.237 30.596C134.517 30.596 134.797 30.564 135.077 30.5C135.357 30.436 135.585 30.352 135.761 30.248V27.248H136.577V33.5H135.761ZM138.361 33.5V27.26H139.177V32.396L142.981 27.248H143.713V33.5H142.897V28.448L139.153 33.5H138.361ZM145.486 33.5V27.248H146.302V29.924H147.238L149.338 27.248H150.274L147.886 30.284L150.574 33.5H149.614L147.238 30.68H146.302V33.5H145.486Z" fill="#292929"/>
<rect x="189.5" y="20.5" width="18" height="18" rx="1.5" stroke="#155DA4"/>
<path d="M25.068 64.5V55.98H30.66V56.724H25.908V59.856H29.916V60.552H25.908V64.5H25.068ZM34.6294 58.968C34.0854 58.984 33.6054 59.136 33.1894 59.424C32.7814 59.712 32.4934 60.108 32.3254 60.612V64.5H31.5094V58.248H32.2774V59.748C32.4934 59.308 32.7774 58.952 33.1294 58.68C33.4894 58.408 33.8694 58.256 34.2694 58.224C34.3494 58.216 34.4174 58.212 34.4734 58.212C34.5374 58.212 34.5894 58.216 34.6294 58.224V58.968ZM38.1929 64.62C37.7449 64.62 37.3289 64.536 36.9449 64.368C36.5689 64.192 36.2409 63.956 35.9609 63.66C35.6889 63.356 35.4769 63.012 35.3249 62.628C35.1729 62.236 35.0969 61.824 35.0969 61.392C35.0969 60.944 35.1729 60.528 35.3249 60.144C35.4769 59.752 35.6929 59.408 35.9729 59.112C36.2529 58.808 36.5809 58.572 36.9569 58.404C37.3409 58.228 37.7569 58.14 38.2049 58.14C38.6529 58.14 39.0649 58.228 39.4409 58.404C39.8169 58.572 40.1449 58.808 40.4249 59.112C40.7049 59.408 40.9209 59.752 41.0729 60.144C41.2249 60.528 41.3009 60.944 41.3009 61.392C41.3009 61.824 41.2249 62.236 41.0729 62.628C40.9209 63.012 40.7049 63.356 40.4249 63.66C40.1529 63.956 39.8249 64.192 39.4409 64.368C39.0649 64.536 38.6489 64.62 38.1929 64.62ZM35.9249 61.404C35.9249 61.868 36.0249 62.292 36.2249 62.676C36.4329 63.052 36.7089 63.352 37.0529 63.576C37.3969 63.792 37.7769 63.9 38.1929 63.9C38.6089 63.9 38.9889 63.788 39.3329 63.564C39.6769 63.34 39.9529 63.036 40.1609 62.652C40.3689 62.26 40.4729 61.836 40.4729 61.38C40.4729 60.916 40.3689 60.492 40.1609 60.108C39.9529 59.724 39.6769 59.42 39.3329 59.196C38.9889 58.972 38.6089 58.86 38.1929 58.86C37.7769 58.86 37.3969 58.976 37.0529 59.208C36.7169 59.44 36.4449 59.748 36.2369 60.132C36.0289 60.508 35.9249 60.932 35.9249 61.404ZM47.9216 64.5H47.1056V61.008C47.1056 60.272 46.9976 59.736 46.7816 59.4C46.5656 59.056 46.2256 58.884 45.7616 58.884C45.4416 58.884 45.1256 58.964 44.8136 59.124C44.5016 59.276 44.2256 59.488 43.9856 59.76C43.7536 60.024 43.5856 60.328 43.4816 60.672V64.5H42.6656V58.248H43.4096V59.664C43.5776 59.36 43.7976 59.096 44.0696 58.872C44.3416 58.64 44.6496 58.46 44.9936 58.332C45.3376 58.204 45.6936 58.14 46.0616 58.14C46.4056 58.14 46.6976 58.204 46.9376 58.332C47.1776 58.46 47.3696 58.644 47.5136 58.884C47.6576 59.116 47.7616 59.4 47.8256 59.736C47.8896 60.064 47.9216 60.432 47.9216 60.84V64.5ZM52.6031 64.2C52.5391 64.224 52.4391 64.268 52.3031 64.332C52.1671 64.396 52.0031 64.452 51.8111 64.5C51.6191 64.548 51.4111 64.572 51.1871 64.572C50.9551 64.572 50.7351 64.528 50.5271 64.44C50.3271 64.352 50.1671 64.22 50.0471 64.044C49.9271 63.86 49.8671 63.636 49.8671 63.372V58.896H49.0031V58.248H49.8671V56.136H50.6831V58.248H52.1231V58.896H50.6831V63.144C50.6991 63.368 50.7791 63.536 50.9231 63.648C51.0751 63.76 51.2471 63.816 51.4391 63.816C51.6631 63.816 51.8671 63.78 52.0511 63.708C52.2351 63.628 52.3471 63.572 52.3871 63.54L52.6031 64.2ZM56.2172 64.62C55.7692 64.62 55.3532 64.536 54.9692 64.368C54.5852 64.192 54.2532 63.956 53.9732 63.66C53.6932 63.356 53.4732 63.008 53.3132 62.616C53.1612 62.224 53.0852 61.804 53.0852 61.356C53.0852 60.772 53.2172 60.236 53.4812 59.748C53.7532 59.26 54.1252 58.872 54.5972 58.584C55.0692 58.288 55.6052 58.14 56.2052 58.14C56.8212 58.14 57.3572 58.288 57.8132 58.584C58.2772 58.88 58.6412 59.272 58.9052 59.76C59.1692 60.24 59.3012 60.768 59.3012 61.344C59.3012 61.408 59.3012 61.472 59.3012 61.536C59.3012 61.592 59.2972 61.636 59.2892 61.668H53.9372C53.9772 62.116 54.1012 62.516 54.3092 62.868C54.5252 63.212 54.8012 63.488 55.1372 63.696C55.4812 63.896 55.8532 63.996 56.2532 63.996C56.6612 63.996 57.0452 63.892 57.4052 63.684C57.7732 63.476 58.0292 63.204 58.1732 62.868L58.8812 63.06C58.7532 63.356 58.5572 63.624 58.2932 63.864C58.0292 64.104 57.7172 64.292 57.3572 64.428C57.0052 64.556 56.6252 64.62 56.2172 64.62ZM53.9132 61.08H58.5332C58.5012 60.624 58.3772 60.224 58.1612 59.88C57.9532 59.536 57.6772 59.268 57.3332 59.076C56.9972 58.876 56.6252 58.776 56.2172 58.776C55.8092 58.776 55.4372 58.876 55.1012 59.076C54.7652 59.268 54.4892 59.54 54.2732 59.892C54.0652 60.236 53.9452 60.632 53.9132 61.08ZM65.8162 64.5H65.0002V61.008C65.0002 60.272 64.8922 59.736 64.6762 59.4C64.4602 59.056 64.1202 58.884 63.6562 58.884C63.3362 58.884 63.0202 58.964 62.7082 59.124C62.3962 59.276 62.1202 59.488 61.8802 59.76C61.6482 60.024 61.4802 60.328 61.3762 60.672V64.5H60.5602V58.248H61.3042V59.664C61.4722 59.36 61.6922 59.096 61.9642 58.872C62.2362 58.64 62.5442 58.46 62.8882 58.332C63.2322 58.204 63.5882 58.14 63.9562 58.14C64.3002 58.14 64.5922 58.204 64.8322 58.332C65.0722 58.46 65.2642 58.644 65.4082 58.884C65.5522 59.116 65.6562 59.4 65.7202 59.736C65.7842 60.064 65.8162 60.432 65.8162 60.84V64.5ZM67.1363 61.392C67.1363 60.8 67.2563 60.26 67.4963 59.772C67.7443 59.276 68.0843 58.88 68.5163 58.584C68.9483 58.288 69.4403 58.14 69.9923 58.14C70.5123 58.14 70.9763 58.28 71.3843 58.56C71.8003 58.832 72.1243 59.164 72.3563 59.556V55.74H73.1723V63.516C73.1723 63.628 73.1963 63.712 73.2443 63.768C73.2923 63.816 73.3643 63.844 73.4603 63.852V64.5C73.3003 64.524 73.1763 64.532 73.0883 64.524C72.9203 64.516 72.7723 64.448 72.6443 64.32C72.5163 64.192 72.4523 64.052 72.4523 63.9V63.288C72.2043 63.696 71.8683 64.02 71.4443 64.26C71.0203 64.5 70.5803 64.62 70.1243 64.62C69.6923 64.62 69.2923 64.532 68.9243 64.356C68.5643 64.18 68.2483 63.94 67.9763 63.636C67.7123 63.332 67.5043 62.988 67.3523 62.604C67.2083 62.212 67.1363 61.808 67.1363 61.392ZM72.3563 62.352V60.42C72.2523 60.132 72.0843 59.872 71.8523 59.64C71.6203 59.4 71.3563 59.212 71.0603 59.076C70.7723 58.932 70.4843 58.86 70.1963 58.86C69.8603 58.86 69.5563 58.932 69.2843 59.076C69.0123 59.212 68.7763 59.4 68.5763 59.64C68.3843 59.88 68.2363 60.152 68.1323 60.456C68.0283 60.76 67.9763 61.072 67.9763 61.392C67.9763 61.728 68.0323 62.048 68.1443 62.352C68.2643 62.656 68.4323 62.928 68.6483 63.168C68.8643 63.4 69.1123 63.58 69.3923 63.708C69.6723 63.836 69.9763 63.9 70.3043 63.9C70.5123 63.9 70.7283 63.86 70.9523 63.78C71.1763 63.7 71.3883 63.592 71.5883 63.456C71.7963 63.312 71.9683 63.144 72.1043 62.952C72.2403 62.76 72.3243 62.56 72.3563 62.352ZM74.9011 61.608V60.852H78.4051V61.608H74.9011ZM83.2756 64.62C82.7556 64.62 82.2876 64.484 81.8716 64.212C81.4636 63.94 81.1396 63.604 80.8996 63.204V67.056H80.0836V58.248H80.8156V59.46C81.0636 59.068 81.3956 58.752 81.8116 58.512C82.2276 58.264 82.6716 58.14 83.1436 58.14C83.5756 58.14 83.9716 58.232 84.3316 58.416C84.6916 58.592 85.0036 58.832 85.2676 59.136C85.5316 59.44 85.7356 59.788 85.8796 60.18C86.0316 60.564 86.1076 60.964 86.1076 61.38C86.1076 61.964 85.9876 62.504 85.7476 63C85.5156 63.488 85.1876 63.88 84.7636 64.176C84.3396 64.472 83.8436 64.62 83.2756 64.62ZM83.0476 63.9C83.3916 63.9 83.6996 63.832 83.9716 63.696C84.2436 63.552 84.4756 63.36 84.6676 63.12C84.8676 62.88 85.0196 62.612 85.1236 62.316C85.2276 62.012 85.2796 61.7 85.2796 61.38C85.2796 61.044 85.2196 60.724 85.0996 60.42C84.9876 60.116 84.8236 59.848 84.6076 59.616C84.3916 59.384 84.1436 59.2 83.8636 59.064C83.5836 58.928 83.2796 58.86 82.9516 58.86C82.7436 58.86 82.5276 58.9 82.3036 58.98C82.0796 59.06 81.8636 59.176 81.6556 59.328C81.4556 59.472 81.2876 59.636 81.1516 59.82C81.0156 60.004 80.9316 60.2 80.8996 60.408V62.328C81.0276 62.624 81.1996 62.892 81.4156 63.132C81.6316 63.364 81.8796 63.552 82.1596 63.696C82.4476 63.832 82.7436 63.9 83.0476 63.9ZM86.9858 62.7C86.9858 62.308 87.0978 61.972 87.3218 61.692C87.5458 61.404 87.8538 61.184 88.2458 61.032C88.6458 60.872 89.1058 60.792 89.6258 60.792C89.9298 60.792 90.2458 60.816 90.5738 60.864C90.9018 60.912 91.1938 60.984 91.4498 61.08V60.552C91.4498 60.024 91.2938 59.604 90.9818 59.292C90.6698 58.98 90.2378 58.824 89.6858 58.824C89.3498 58.824 89.0178 58.888 88.6898 59.016C88.3698 59.136 88.0338 59.316 87.6818 59.556L87.3698 58.98C87.7778 58.7 88.1778 58.492 88.5698 58.356C88.9618 58.212 89.3618 58.14 89.7698 58.14C90.5378 58.14 91.1458 58.36 91.5938 58.8C92.0418 59.24 92.2658 59.848 92.2658 60.624V63.516C92.2658 63.628 92.2898 63.712 92.3378 63.768C92.3858 63.816 92.4618 63.844 92.5658 63.852V64.5C92.4778 64.508 92.4018 64.516 92.3378 64.524C92.2738 64.532 92.2258 64.532 92.1938 64.524C91.9938 64.516 91.8418 64.452 91.7378 64.332C91.6338 64.212 91.5778 64.084 91.5698 63.948L91.5578 63.492C91.2778 63.852 90.9138 64.132 90.4658 64.332C90.0178 64.524 89.5618 64.62 89.0978 64.62C88.6978 64.62 88.3338 64.536 88.0058 64.368C87.6858 64.192 87.4338 63.96 87.2498 63.672C87.0738 63.376 86.9858 63.052 86.9858 62.7ZM91.1738 63.18C91.2618 63.068 91.3298 62.96 91.3778 62.856C91.4258 62.752 91.4498 62.66 91.4498 62.58V61.668C91.1778 61.564 90.8938 61.484 90.5978 61.428C90.3098 61.372 90.0178 61.344 89.7218 61.344C89.1378 61.344 88.6658 61.46 88.3058 61.692C87.9458 61.924 87.7658 62.24 87.7658 62.64C87.7658 62.872 87.8258 63.092 87.9458 63.3C88.0658 63.5 88.2418 63.668 88.4738 63.804C88.7058 63.932 88.9778 63.996 89.2898 63.996C89.6818 63.996 90.0458 63.92 90.3818 63.768C90.7258 63.616 90.9898 63.42 91.1738 63.18ZM95.8409 64.572C95.2649 64.572 94.7729 64.464 94.3649 64.248C93.9569 64.024 93.6449 63.712 93.4289 63.312L94.1009 63.012C94.2529 63.292 94.4729 63.512 94.7609 63.672C95.0489 63.824 95.3969 63.9 95.8049 63.9C96.2929 63.9 96.6809 63.788 96.9689 63.564C97.2649 63.34 97.4129 63.04 97.4129 62.664C97.4129 62.32 97.2969 62.044 97.0649 61.836C96.8329 61.628 96.5129 61.52 96.1049 61.512H95.4689V60.948H96.1529C96.3289 60.948 96.4889 60.9 96.6329 60.804C96.7769 60.708 96.8889 60.58 96.9689 60.42C97.0489 60.26 97.0889 60.08 97.0889 59.88C97.0889 59.568 96.9769 59.316 96.7529 59.124C96.5369 58.932 96.2169 58.836 95.7929 58.836C95.4409 58.836 95.1449 58.908 94.9049 59.052C94.6729 59.188 94.4849 59.392 94.3409 59.664L93.7169 59.328C93.9009 58.96 94.1729 58.672 94.5329 58.464C94.9009 58.256 95.3289 58.152 95.8169 58.152C96.2169 58.152 96.5649 58.22 96.8609 58.356C97.1649 58.484 97.4009 58.672 97.5689 58.92C97.7449 59.16 97.8329 59.452 97.8329 59.796C97.8329 60.092 97.7609 60.368 97.6169 60.624C97.4729 60.872 97.2729 61.06 97.0169 61.188C97.3849 61.3 97.6689 61.496 97.8689 61.776C98.0769 62.056 98.1809 62.384 98.1809 62.76C98.1809 63.136 98.0809 63.46 97.8809 63.732C97.6809 64.004 97.4049 64.212 97.0529 64.356C96.7009 64.5 96.2969 64.572 95.8409 64.572ZM102.74 64.62C102.22 64.62 101.752 64.484 101.336 64.212C100.928 63.94 100.604 63.604 100.364 63.204V67.056H99.5484V58.248H100.28V59.46C100.528 59.068 100.86 58.752 101.276 58.512C101.692 58.264 102.136 58.14 102.608 58.14C103.04 58.14 103.436 58.232 103.796 58.416C104.156 58.592 104.468 58.832 104.732 59.136C104.996 59.44 105.2 59.788 105.344 60.18C105.496 60.564 105.572 60.964 105.572 61.38C105.572 61.964 105.452 62.504 105.212 63C104.98 63.488 104.652 63.88 104.228 64.176C103.804 64.472 103.308 64.62 102.74 64.62ZM102.512 63.9C102.856 63.9 103.164 63.832 103.436 63.696C103.708 63.552 103.94 63.36 104.132 63.12C104.332 62.88 104.484 62.612 104.588 62.316C104.692 62.012 104.744 61.7 104.744 61.38C104.744 61.044 104.684 60.724 104.564 60.42C104.452 60.116 104.288 59.848 104.072 59.616C103.856 59.384 103.608 59.2 103.328 59.064C103.048 58.928 102.744 58.86 102.416 58.86C102.208 58.86 101.992 58.9 101.768 58.98C101.544 59.06 101.328 59.176 101.12 59.328C100.92 59.472 100.752 59.636 100.616 59.82C100.48 60.004 100.396 60.2 100.364 60.408V62.328C100.492 62.624 100.664 62.892 100.88 63.132C101.096 63.364 101.344 63.552 101.624 63.696C101.912 63.832 102.208 63.9 102.512 63.9ZM106.451 62.7C106.451 62.308 106.563 61.972 106.787 61.692C107.011 61.404 107.319 61.184 107.711 61.032C108.111 60.872 108.571 60.792 109.091 60.792C109.395 60.792 109.711 60.816 110.039 60.864C110.367 60.912 110.659 60.984 110.915 61.08V60.552C110.915 60.024 110.759 59.604 110.447 59.292C110.135 58.98 109.703 58.824 109.151 58.824C108.815 58.824 108.483 58.888 108.155 59.016C107.835 59.136 107.499 59.316 107.147 59.556L106.835 58.98C107.243 58.7 107.643 58.492 108.035 58.356C108.427 58.212 108.827 58.14 109.235 58.14C110.003 58.14 110.611 58.36 111.059 58.8C111.507 59.24 111.731 59.848 111.731 60.624V63.516C111.731 63.628 111.755 63.712 111.803 63.768C111.851 63.816 111.927 63.844 112.031 63.852V64.5C111.943 64.508 111.867 64.516 111.803 64.524C111.739 64.532 111.691 64.532 111.659 64.524C111.459 64.516 111.307 64.452 111.203 64.332C111.099 64.212 111.043 64.084 111.035 63.948L111.023 63.492C110.743 63.852 110.379 64.132 109.931 64.332C109.483 64.524 109.027 64.62 108.563 64.62C108.163 64.62 107.799 64.536 107.471 64.368C107.151 64.192 106.899 63.96 106.715 63.672C106.539 63.376 106.451 63.052 106.451 62.7ZM110.639 63.18C110.727 63.068 110.795 62.96 110.843 62.856C110.891 62.752 110.915 62.66 110.915 62.58V61.668C110.643 61.564 110.359 61.484 110.063 61.428C109.775 61.372 109.483 61.344 109.187 61.344C108.603 61.344 108.131 61.46 107.771 61.692C107.411 61.924 107.231 62.24 107.231 62.64C107.231 62.872 107.291 63.092 107.411 63.3C107.531 63.5 107.707 63.668 107.939 63.804C108.171 63.932 108.443 63.996 108.755 63.996C109.147 63.996 109.511 63.92 109.847 63.768C110.191 63.616 110.455 63.42 110.639 63.18ZM116.362 64.62C115.354 64.62 114.59 64.312 114.07 63.696C113.558 63.072 113.302 62.212 113.302 61.116C113.302 60.34 113.366 59.684 113.494 59.148C113.622 58.612 113.81 58.172 114.058 57.828C114.306 57.476 114.61 57.188 114.97 56.964C115.338 56.74 115.758 56.556 116.23 56.412L118.858 55.548L118.93 56.256L116.398 57.084C115.918 57.244 115.518 57.448 115.198 57.696C114.878 57.944 114.626 58.26 114.442 58.644C114.266 59.02 114.15 59.512 114.094 60.12C114.302 59.656 114.622 59.3 115.054 59.052C115.486 58.796 115.986 58.668 116.554 58.668C117.162 58.668 117.678 58.792 118.102 59.04C118.534 59.288 118.862 59.632 119.086 60.072C119.31 60.512 119.422 61.02 119.422 61.596C119.422 62.204 119.302 62.736 119.062 63.192C118.83 63.64 118.486 63.992 118.03 64.248C117.582 64.496 117.026 64.62 116.362 64.62ZM116.362 63.9C117.074 63.9 117.622 63.696 118.006 63.288C118.398 62.872 118.594 62.32 118.594 61.632C118.594 60.96 118.402 60.412 118.018 59.988C117.642 59.564 117.09 59.352 116.362 59.352C115.946 59.352 115.57 59.44 115.234 59.616C114.898 59.792 114.63 60.048 114.43 60.384C114.238 60.72 114.142 61.136 114.142 61.632C114.142 62.064 114.226 62.452 114.394 62.796C114.57 63.14 114.822 63.412 115.15 63.612C115.478 63.804 115.882 63.9 116.362 63.9ZM123.459 64.62C123.011 64.62 122.595 64.536 122.211 64.368C121.835 64.192 121.507 63.956 121.227 63.66C120.955 63.356 120.743 63.012 120.591 62.628C120.439 62.236 120.363 61.824 120.363 61.392C120.363 60.944 120.439 60.528 120.591 60.144C120.743 59.752 120.959 59.408 121.239 59.112C121.519 58.808 121.847 58.572 122.223 58.404C122.607 58.228 123.023 58.14 123.471 58.14C123.919 58.14 124.331 58.228 124.707 58.404C125.083 58.572 125.411 58.808 125.691 59.112C125.971 59.408 126.187 59.752 126.339 60.144C126.491 60.528 126.567 60.944 126.567 61.392C126.567 61.824 126.491 62.236 126.339 62.628C126.187 63.012 125.971 63.356 125.691 63.66C125.419 63.956 125.091 64.192 124.707 64.368C124.331 64.536 123.915 64.62 123.459 64.62ZM121.191 61.404C121.191 61.868 121.291 62.292 121.491 62.676C121.699 63.052 121.975 63.352 122.319 63.576C122.663 63.792 123.043 63.9 123.459 63.9C123.875 63.9 124.255 63.788 124.599 63.564C124.943 63.34 125.219 63.036 125.427 62.652C125.635 62.26 125.739 61.836 125.739 61.38C125.739 60.916 125.635 60.492 125.427 60.108C125.219 59.724 124.943 59.42 124.599 59.196C124.255 58.972 123.875 58.86 123.459 58.86C123.043 58.86 122.663 58.976 122.319 59.208C121.983 59.44 121.711 59.748 121.503 60.132C121.295 60.508 121.191 60.932 121.191 61.404ZM129.491 64.5V58.98H127.259V58.248H132.539V58.98H130.307V64.5H129.491ZM137.226 64.5V61.884C136.97 62.004 136.702 62.096 136.422 62.16C136.142 62.216 135.842 62.244 135.522 62.244C134.834 62.244 134.314 62.068 133.962 61.716C133.618 61.364 133.446 60.824 133.446 60.096V58.248H134.262V59.988C134.262 60.548 134.374 60.956 134.598 61.212C134.83 61.468 135.198 61.596 135.702 61.596C135.982 61.596 136.262 61.564 136.542 61.5C136.822 61.436 137.05 61.352 137.226 61.248V58.248H138.042V64.5H137.226ZM139.826 64.5V58.26H140.642V63.396L144.446 58.248H145.178V64.5H144.362V59.448L140.618 64.5H139.826ZM146.951 64.5V58.248H147.767V60.924H148.703L150.803 58.248H151.739L149.351 61.284L152.039 64.5H151.079L148.703 61.68H147.767V64.5H146.951Z" fill="#292929"/>
<rect x="189.5" y="51.5" width="18" height="18" rx="1.5" stroke="#155DA4"/>
<path d="M27.708 86.98H28.416L31.956 95.5H31.068L29.964 92.836H26.136L25.044 95.5H24.144L27.708 86.98ZM29.772 92.176L28.056 87.964L26.316 92.176H29.772ZM32.9974 95.5V89.248H33.8134V91.936H37.3894V89.248H38.2054V95.5H37.3894V92.668H33.8134V95.5H32.9974ZM39.5015 93.7C39.5015 93.308 39.6135 92.972 39.8375 92.692C40.0615 92.404 40.3695 92.184 40.7615 92.032C41.1615 91.872 41.6215 91.792 42.1415 91.792C42.4455 91.792 42.7615 91.816 43.0895 91.864C43.4175 91.912 43.7095 91.984 43.9655 92.08V91.552C43.9655 91.024 43.8095 90.604 43.4975 90.292C43.1855 89.98 42.7535 89.824 42.2015 89.824C41.8655 89.824 41.5335 89.888 41.2055 90.016C40.8855 90.136 40.5495 90.316 40.1975 90.556L39.8855 89.98C40.2935 89.7 40.6935 89.492 41.0855 89.356C41.4775 89.212 41.8775 89.14 42.2855 89.14C43.0535 89.14 43.6615 89.36 44.1095 89.8C44.5575 90.24 44.7815 90.848 44.7815 91.624V94.516C44.7815 94.628 44.8055 94.712 44.8535 94.768C44.9015 94.816 44.9775 94.844 45.0815 94.852V95.5C44.9935 95.508 44.9175 95.516 44.8535 95.524C44.7895 95.532 44.7415 95.532 44.7095 95.524C44.5095 95.516 44.3575 95.452 44.2535 95.332C44.1495 95.212 44.0935 95.084 44.0855 94.948L44.0735 94.492C43.7935 94.852 43.4295 95.132 42.9815 95.332C42.5335 95.524 42.0775 95.62 41.6135 95.62C41.2135 95.62 40.8495 95.536 40.5215 95.368C40.2015 95.192 39.9495 94.96 39.7655 94.672C39.5895 94.376 39.5015 94.052 39.5015 93.7ZM43.6895 94.18C43.7775 94.068 43.8455 93.96 43.8935 93.856C43.9415 93.752 43.9655 93.66 43.9655 93.58V92.668C43.6935 92.564 43.4095 92.484 43.1135 92.428C42.8255 92.372 42.5335 92.344 42.2375 92.344C41.6535 92.344 41.1815 92.46 40.8215 92.692C40.4615 92.924 40.2815 93.24 40.2815 93.64C40.2815 93.872 40.3415 94.092 40.4615 94.3C40.5815 94.5 40.7575 94.668 40.9895 94.804C41.2215 94.932 41.4935 94.996 41.8055 94.996C42.1975 94.996 42.5615 94.92 42.8975 94.768C43.2415 94.616 43.5055 94.42 43.6895 94.18ZM45.9445 95.536V94.792C46.1605 94.792 46.3525 94.736 46.5205 94.624C46.6885 94.504 46.8365 94.304 46.9645 94.024C47.1005 93.744 47.2085 93.36 47.2885 92.872C47.3685 92.376 47.4205 91.748 47.4445 90.988L47.5165 89.248H51.5725V95.5H50.7565V89.98H48.2365L48.2125 91.06C48.1805 91.924 48.1125 92.648 48.0085 93.232C47.9045 93.808 47.7565 94.264 47.5645 94.6C47.3805 94.936 47.1525 95.176 46.8805 95.32C46.6085 95.464 46.2965 95.536 45.9445 95.536ZM53.3646 95.5V89.26H54.1806V94.396L57.9846 89.248H58.7166V95.5H57.9006V90.448L54.1566 95.5H53.3646ZM62.0616 95.5V89.98H59.8296V89.248H65.1096V89.98H62.8776V95.5H62.0616ZM66.2083 95.5V89.26H67.0243V94.396L70.8283 89.248H71.5603V95.5H70.7443V90.448L67.0003 95.5H66.2083ZM73.3333 95.5V89.248H74.1493V91.924H75.0853L77.1853 89.248H78.1213L75.7333 92.284L78.4213 95.5H77.4613L75.0853 92.68H74.1493V95.5H73.3333Z" fill="#292929"/>
<rect x="189.5" y="82.5" width="18" height="18" rx="1.5" stroke="#155DA4"/>
<path d="M32.616 126.5V119.564L29.532 124.952H29.004L25.908 119.564V126.5H25.068V117.98H25.932L29.256 123.812L32.604 117.98H33.456V126.5H32.616ZM38.0297 126.62C37.5817 126.62 37.1657 126.536 36.7817 126.368C36.3977 126.192 36.0657 125.956 35.7857 125.66C35.5057 125.356 35.2857 125.008 35.1257 124.616C34.9737 124.224 34.8977 123.804 34.8977 123.356C34.8977 122.772 35.0297 122.236 35.2937 121.748C35.5657 121.26 35.9377 120.872 36.4097 120.584C36.8817 120.288 37.4177 120.14 38.0177 120.14C38.6337 120.14 39.1697 120.288 39.6257 120.584C40.0897 120.88 40.4537 121.272 40.7177 121.76C40.9817 122.24 41.1137 122.768 41.1137 123.344C41.1137 123.408 41.1137 123.472 41.1137 123.536C41.1137 123.592 41.1097 123.636 41.1017 123.668H35.7497C35.7897 124.116 35.9137 124.516 36.1217 124.868C36.3377 125.212 36.6137 125.488 36.9497 125.696C37.2937 125.896 37.6657 125.996 38.0657 125.996C38.4737 125.996 38.8577 125.892 39.2177 125.684C39.5857 125.476 39.8417 125.204 39.9857 124.868L40.6937 125.06C40.5657 125.356 40.3697 125.624 40.1057 125.864C39.8417 126.104 39.5297 126.292 39.1697 126.428C38.8177 126.556 38.4377 126.62 38.0297 126.62ZM35.7257 123.08H40.3457C40.3137 122.624 40.1897 122.224 39.9737 121.88C39.7657 121.536 39.4897 121.268 39.1457 121.076C38.8097 120.876 38.4377 120.776 38.0297 120.776C37.6217 120.776 37.2497 120.876 36.9137 121.076C36.5777 121.268 36.3017 121.54 36.0857 121.892C35.8777 122.236 35.7577 122.632 35.7257 123.08ZM42.3607 126.5V120.248H43.1767V122.936H46.7527V120.248H47.5687V126.5H46.7527V123.668H43.1767V126.5H42.3607ZM52.0688 126.62C51.6208 126.62 51.2048 126.536 50.8208 126.368C50.4368 126.192 50.1048 125.956 49.8248 125.66C49.5448 125.356 49.3248 125.008 49.1648 124.616C49.0128 124.224 48.9368 123.804 48.9368 123.356C48.9368 122.772 49.0688 122.236 49.3328 121.748C49.6048 121.26 49.9768 120.872 50.4488 120.584C50.9208 120.288 51.4568 120.14 52.0568 120.14C52.6728 120.14 53.2088 120.288 53.6648 120.584C54.1288 120.88 54.4928 121.272 54.7568 121.76C55.0208 122.24 55.1528 122.768 55.1528 123.344C55.1528 123.408 55.1528 123.472 55.1528 123.536C55.1528 123.592 55.1488 123.636 55.1408 123.668H49.7888C49.8288 124.116 49.9528 124.516 50.1608 124.868C50.3768 125.212 50.6528 125.488 50.9888 125.696C51.3328 125.896 51.7048 125.996 52.1048 125.996C52.5128 125.996 52.8968 125.892 53.2568 125.684C53.6248 125.476 53.8808 125.204 54.0248 124.868L54.7328 125.06C54.6048 125.356 54.4088 125.624 54.1448 125.864C53.8808 126.104 53.5688 126.292 53.2088 126.428C52.8568 126.556 52.4768 126.62 52.0688 126.62ZM49.7648 123.08H54.3848C54.3528 122.624 54.2288 122.224 54.0128 121.88C53.8048 121.536 53.5288 121.268 53.1848 121.076C52.8488 120.876 52.4768 120.776 52.0688 120.776C51.6608 120.776 51.2888 120.876 50.9528 121.076C50.6168 121.268 50.3408 121.54 50.1248 121.892C49.9168 122.236 49.7968 122.632 49.7648 123.08ZM55.7157 127.952V125.768H55.8237C56.0077 125.768 56.1757 125.712 56.3277 125.6C56.4797 125.488 56.6157 125.292 56.7357 125.012C56.8557 124.732 56.9517 124.348 57.0237 123.86C57.0957 123.364 57.1437 122.74 57.1677 121.988L57.2277 120.248H61.2957V125.768H62.1357V127.952H61.4037V126.5H56.4357V127.952H55.7157ZM57.0597 125.768H60.4797V120.98H57.9597L57.9237 122.06C57.8997 122.804 57.8477 123.428 57.7677 123.932C57.6957 124.428 57.5997 124.824 57.4797 125.12C57.3677 125.408 57.2277 125.624 57.0597 125.768ZM62.9287 126.5L65.2687 123.284L63.1567 120.248H64.0807L65.9647 122.948H66.7807V120.248H67.6207V122.948H68.4607L70.3087 120.248H71.2447L69.1207 123.284L71.4847 126.5H70.5367L68.4607 123.668H67.6207V126.5H66.7807V123.668H65.9647L63.8767 126.5H62.9287ZM75.5414 126.62C75.0934 126.62 74.6774 126.536 74.2934 126.368C73.9094 126.192 73.5774 125.956 73.2974 125.66C73.0174 125.356 72.7974 125.008 72.6374 124.616C72.4854 124.224 72.4094 123.804 72.4094 123.356C72.4094 122.772 72.5414 122.236 72.8054 121.748C73.0774 121.26 73.4494 120.872 73.9214 120.584C74.3934 120.288 74.9294 120.14 75.5294 120.14C76.1454 120.14 76.6814 120.288 77.1374 120.584C77.6014 120.88 77.9654 121.272 78.2294 121.76C78.4934 122.24 78.6254 122.768 78.6254 123.344C78.6254 123.408 78.6254 123.472 78.6254 123.536C78.6254 123.592 78.6214 123.636 78.6134 123.668H73.2614C73.3014 124.116 73.4254 124.516 73.6334 124.868C73.8494 125.212 74.1254 125.488 74.4614 125.696C74.8054 125.896 75.1774 125.996 75.5774 125.996C75.9854 125.996 76.3694 125.892 76.7294 125.684C77.0974 125.476 77.3534 125.204 77.4974 124.868L78.2054 125.06C78.0774 125.356 77.8814 125.624 77.6174 125.864C77.3534 126.104 77.0414 126.292 76.6814 126.428C76.3294 126.556 75.9494 126.62 75.5414 126.62ZM73.2374 123.08H77.8574C77.8254 122.624 77.7014 122.224 77.4854 121.88C77.2774 121.536 77.0014 121.268 76.6574 121.076C76.3214 120.876 75.9494 120.776 75.5414 120.776C75.1334 120.776 74.7614 120.876 74.4254 121.076C74.0894 121.268 73.8134 121.54 73.5974 121.892C73.3894 122.236 73.2694 122.632 73.2374 123.08ZM83.0764 126.62C82.5564 126.62 82.0884 126.484 81.6724 126.212C81.2644 125.94 80.9404 125.604 80.7004 125.204V129.056H79.8844V120.248H80.6164V121.46C80.8644 121.068 81.1964 120.752 81.6124 120.512C82.0284 120.264 82.4724 120.14 82.9444 120.14C83.3764 120.14 83.7724 120.232 84.1324 120.416C84.4924 120.592 84.8044 120.832 85.0684 121.136C85.3324 121.44 85.5364 121.788 85.6804 122.18C85.8324 122.564 85.9084 122.964 85.9084 123.38C85.9084 123.964 85.7884 124.504 85.5484 125C85.3164 125.488 84.9884 125.88 84.5644 126.176C84.1404 126.472 83.6444 126.62 83.0764 126.62ZM82.8484 125.9C83.1924 125.9 83.5004 125.832 83.7724 125.696C84.0444 125.552 84.2764 125.36 84.4684 125.12C84.6684 124.88 84.8204 124.612 84.9244 124.316C85.0284 124.012 85.0804 123.7 85.0804 123.38C85.0804 123.044 85.0204 122.724 84.9004 122.42C84.7884 122.116 84.6244 121.848 84.4084 121.616C84.1924 121.384 83.9444 121.2 83.6644 121.064C83.3844 120.928 83.0804 120.86 82.7524 120.86C82.5444 120.86 82.3284 120.9 82.1044 120.98C81.8804 121.06 81.6644 121.176 81.4564 121.328C81.2564 121.472 81.0884 121.636 80.9524 121.82C80.8164 122.004 80.7324 122.2 80.7004 122.408V124.328C80.8284 124.624 81.0004 124.892 81.2164 125.132C81.4324 125.364 81.6804 125.552 81.9604 125.696C82.2484 125.832 82.5444 125.9 82.8484 125.9Z" fill="#292929"/>
<rect x="189.5" y="113.5" width="18" height="18" rx="1.5" fill="#155DA4"/>
<rect x="189.5" y="113.5" width="18" height="18" rx="1.5" stroke="#155DA4"/>
<line y1="-0.5" x2="8.22439" y2="-0.5" transform="matrix(0.729537 0.683941 -0.595228 0.803557 192 121.375)" stroke="white"/>
<line y1="-0.5" x2="11.4018" y2="-0.5" transform="matrix(0.613941 -0.789352 0.712652 0.701517 198 127)" stroke="white"/>
<path d="M24.456 159.132V156.756H24.816C25.04 156.756 25.236 156.664 25.404 156.48C25.58 156.296 25.728 156 25.848 155.592C25.976 155.176 26.076 154.62 26.148 153.924C26.228 153.228 26.284 152.364 26.316 151.332L26.376 148.98H31.476V156.756H32.496V159.132H31.752V157.5H25.2V159.132H24.456ZM26.016 156.756H30.636V149.724H27.144L27.096 151.428C27.072 152.508 27.016 153.412 26.928 154.14C26.848 154.86 26.732 155.432 26.58 155.856C26.428 156.272 26.24 156.572 26.016 156.756ZM33.8763 157.5V151.26H34.6923V156.396L38.4963 151.248H39.2283V157.5H38.4123V152.448L34.6683 157.5H33.8763ZM42.8253 157.572C42.2493 157.572 41.7573 157.464 41.3493 157.248C40.9413 157.024 40.6293 156.712 40.4133 156.312L41.0853 156.012C41.2373 156.292 41.4573 156.512 41.7453 156.672C42.0333 156.824 42.3813 156.9 42.7893 156.9C43.2773 156.9 43.6653 156.788 43.9533 156.564C44.2493 156.34 44.3973 156.04 44.3973 155.664C44.3973 155.32 44.2813 155.044 44.0493 154.836C43.8173 154.628 43.4973 154.52 43.0893 154.512H42.4533V153.948H43.1373C43.3133 153.948 43.4733 153.9 43.6173 153.804C43.7613 153.708 43.8733 153.58 43.9533 153.42C44.0333 153.26 44.0733 153.08 44.0733 152.88C44.0733 152.568 43.9613 152.316 43.7373 152.124C43.5213 151.932 43.2013 151.836 42.7773 151.836C42.4253 151.836 42.1293 151.908 41.8893 152.052C41.6573 152.188 41.4693 152.392 41.3253 152.664L40.7013 152.328C40.8853 151.96 41.1573 151.672 41.5173 151.464C41.8853 151.256 42.3133 151.152 42.8013 151.152C43.2013 151.152 43.5493 151.22 43.8453 151.356C44.1493 151.484 44.3853 151.672 44.5533 151.92C44.7293 152.16 44.8173 152.452 44.8173 152.796C44.8173 153.092 44.7453 153.368 44.6013 153.624C44.4573 153.872 44.2573 154.06 44.0013 154.188C44.3693 154.3 44.6533 154.496 44.8533 154.776C45.0613 155.056 45.1653 155.384 45.1653 155.76C45.1653 156.136 45.0653 156.46 44.8653 156.732C44.6653 157.004 44.3893 157.212 44.0373 157.356C43.6853 157.5 43.2813 157.572 42.8253 157.572ZM46.0288 155.7C46.0288 155.308 46.1408 154.972 46.3648 154.692C46.5888 154.404 46.8968 154.184 47.2888 154.032C47.6888 153.872 48.1488 153.792 48.6688 153.792C48.9728 153.792 49.2888 153.816 49.6168 153.864C49.9448 153.912 50.2368 153.984 50.4928 154.08V153.552C50.4928 153.024 50.3368 152.604 50.0248 152.292C49.7128 151.98 49.2808 151.824 48.7288 151.824C48.3928 151.824 48.0608 151.888 47.7328 152.016C47.4128 152.136 47.0768 152.316 46.7248 152.556L46.4128 151.98C46.8208 151.7 47.2208 151.492 47.6128 151.356C48.0048 151.212 48.4048 151.14 48.8128 151.14C49.5808 151.14 50.1888 151.36 50.6368 151.8C51.0848 152.24 51.3088 152.848 51.3088 153.624V156.516C51.3088 156.628 51.3328 156.712 51.3808 156.768C51.4288 156.816 51.5048 156.844 51.6088 156.852V157.5C51.5208 157.508 51.4448 157.516 51.3808 157.524C51.3168 157.532 51.2688 157.532 51.2368 157.524C51.0368 157.516 50.8848 157.452 50.7808 157.332C50.6768 157.212 50.6208 157.084 50.6128 156.948L50.6008 156.492C50.3208 156.852 49.9568 157.132 49.5088 157.332C49.0608 157.524 48.6048 157.62 48.1408 157.62C47.7408 157.62 47.3768 157.536 47.0488 157.368C46.7288 157.192 46.4768 156.96 46.2928 156.672C46.1168 156.376 46.0288 156.052 46.0288 155.7ZM50.2168 156.18C50.3048 156.068 50.3728 155.96 50.4208 155.856C50.4688 155.752 50.4928 155.66 50.4928 155.58V154.668C50.2208 154.564 49.9368 154.484 49.6408 154.428C49.3528 154.372 49.0608 154.344 48.7648 154.344C48.1808 154.344 47.7088 154.46 47.3488 154.692C46.9888 154.924 46.8088 155.24 46.8088 155.64C46.8088 155.872 46.8688 156.092 46.9888 156.3C47.1088 156.5 47.2848 156.668 47.5168 156.804C47.7488 156.932 48.0208 156.996 48.3328 156.996C48.7248 156.996 49.0888 156.92 49.4248 156.768C49.7688 156.616 50.0328 156.42 50.2168 156.18ZM53.0599 157.5V151.26H53.8759V156.396L57.6799 151.248H58.4119V157.5H57.5959V152.448L53.8519 157.5H53.0599ZM55.7479 150.456C55.2039 150.456 54.7839 150.328 54.4879 150.072C54.1919 149.816 54.0439 149.492 54.0439 149.1H54.6439C54.6439 149.34 54.7319 149.54 54.9079 149.7C55.0919 149.86 55.3719 149.94 55.7479 149.94C56.1159 149.94 56.3839 149.864 56.5519 149.712C56.7279 149.56 56.8279 149.356 56.8519 149.1H57.4399C57.4399 149.492 57.2919 149.816 56.9959 150.072C56.6999 150.328 56.2839 150.456 55.7479 150.456ZM60.1849 157.5V151.248H61.0009V153.936H64.5769V151.248H65.3929V157.5H64.5769V154.668H61.0009V157.5H60.1849ZM69.893 157.62C69.445 157.62 69.029 157.536 68.645 157.368C68.261 157.192 67.929 156.956 67.649 156.66C67.369 156.356 67.149 156.008 66.989 155.616C66.837 155.224 66.761 154.804 66.761 154.356C66.761 153.772 66.893 153.236 67.157 152.748C67.429 152.26 67.801 151.872 68.273 151.584C68.745 151.288 69.281 151.14 69.881 151.14C70.497 151.14 71.033 151.288 71.489 151.584C71.953 151.88 72.317 152.272 72.581 152.76C72.845 153.24 72.977 153.768 72.977 154.344C72.977 154.408 72.977 154.472 72.977 154.536C72.977 154.592 72.973 154.636 72.965 154.668H67.613C67.653 155.116 67.777 155.516 67.985 155.868C68.201 156.212 68.477 156.488 68.813 156.696C69.157 156.896 69.529 156.996 69.929 156.996C70.337 156.996 70.721 156.892 71.081 156.684C71.449 156.476 71.705 156.204 71.849 155.868L72.557 156.06C72.429 156.356 72.233 156.624 71.969 156.864C71.705 157.104 71.393 157.292 71.033 157.428C70.681 157.556 70.301 157.62 69.893 157.62ZM67.589 154.08H72.209C72.177 153.624 72.053 153.224 71.837 152.88C71.629 152.536 71.353 152.268 71.009 152.076C70.673 151.876 70.301 151.776 69.893 151.776C69.485 151.776 69.113 151.876 68.777 152.076C68.441 152.268 68.165 152.54 67.949 152.892C67.741 153.236 67.621 153.632 67.589 154.08ZM77.4279 157.62C76.9079 157.62 76.4399 157.484 76.0239 157.212C75.6159 156.94 75.2919 156.604 75.0519 156.204V160.056H74.2359V151.248H74.9679V152.46C75.2159 152.068 75.5479 151.752 75.9639 151.512C76.3799 151.264 76.8239 151.14 77.2959 151.14C77.7279 151.14 78.1239 151.232 78.4839 151.416C78.8439 151.592 79.1559 151.832 79.4199 152.136C79.6839 152.44 79.8879 152.788 80.0319 153.18C80.1839 153.564 80.2599 153.964 80.2599 154.38C80.2599 154.964 80.1399 155.504 79.8999 156C79.6679 156.488 79.3399 156.88 78.9159 157.176C78.4919 157.472 77.9959 157.62 77.4279 157.62ZM77.1999 156.9C77.5439 156.9 77.8519 156.832 78.1239 156.696C78.3959 156.552 78.6279 156.36 78.8199 156.12C79.0199 155.88 79.1719 155.612 79.2759 155.316C79.3799 155.012 79.4319 154.7 79.4319 154.38C79.4319 154.044 79.3719 153.724 79.2519 153.42C79.1399 153.116 78.9759 152.848 78.7599 152.616C78.5439 152.384 78.2959 152.2 78.0159 152.064C77.7359 151.928 77.4319 151.86 77.1039 151.86C76.8959 151.86 76.6799 151.9 76.4559 151.98C76.2319 152.06 76.0159 152.176 75.8079 152.328C75.6079 152.472 75.4399 152.636 75.3039 152.82C75.1679 153.004 75.0839 153.2 75.0519 153.408V155.328C75.1799 155.624 75.3519 155.892 75.5679 156.132C75.7839 156.364 76.0319 156.552 76.3119 156.696C76.5999 156.832 76.8959 156.9 77.1999 156.9Z" fill="#292929"/>
<rect x="189.5" y="144.5" width="18" height="18" rx="1.5" stroke="#155DA4"/>
<path d="M25.068 188.5V179.98H30.66V180.724H25.908V183.856H29.916V184.552H25.908V188.5H25.068ZM31.508 185.92V182.248H32.324V185.776C32.324 186.488 32.444 187.02 32.684 187.372C32.932 187.724 33.296 187.9 33.776 187.9C34.096 187.9 34.404 187.832 34.7 187.696C35.004 187.552 35.272 187.352 35.504 187.096C35.736 186.832 35.912 186.528 36.032 186.184V182.248H36.848V187.516C36.848 187.628 36.872 187.712 36.92 187.768C36.968 187.816 37.04 187.844 37.136 187.852V188.5C37.04 188.508 36.964 188.512 36.908 188.512C36.852 188.52 36.8 188.524 36.752 188.524C36.592 188.508 36.452 188.444 36.332 188.332C36.22 188.22 36.16 188.084 36.152 187.924L36.128 187.084C35.856 187.564 35.484 187.94 35.012 188.212C34.548 188.484 34.044 188.62 33.5 188.62C32.844 188.62 32.348 188.392 32.012 187.936C31.676 187.48 31.508 186.808 31.508 185.92ZM38.729 179.74H39.545V187.084C39.545 187.396 39.601 187.6 39.713 187.696C39.825 187.792 39.961 187.84 40.121 187.84C40.265 187.84 40.409 187.824 40.553 187.792C40.697 187.76 40.821 187.728 40.925 187.696L41.069 188.356C40.917 188.42 40.729 188.472 40.505 188.512C40.289 188.552 40.101 188.572 39.941 188.572C39.573 188.572 39.277 188.464 39.053 188.248C38.837 188.032 38.729 187.736 38.729 187.36V179.74ZM41.9985 179.74H42.8145V187.084C42.8145 187.396 42.8705 187.6 42.9825 187.696C43.0945 187.792 43.2305 187.84 43.3905 187.84C43.5345 187.84 43.6785 187.824 43.8225 187.792C43.9665 187.76 44.0905 187.728 44.1945 187.696L44.3385 188.356C44.1865 188.42 43.9985 188.472 43.7745 188.512C43.5585 188.552 43.3705 188.572 43.2105 188.572C42.8425 188.572 42.5465 188.464 42.3225 188.248C42.1065 188.032 41.9985 187.736 41.9985 187.36V179.74ZM47.284 188.62C46.772 188.62 46.296 188.536 45.856 188.368C45.416 188.2 45.036 187.944 44.716 187.6L45.052 187.024C45.404 187.352 45.756 187.592 46.108 187.744C46.468 187.888 46.848 187.96 47.248 187.96C47.736 187.96 48.132 187.864 48.436 187.672C48.74 187.472 48.892 187.188 48.892 186.82C48.892 186.572 48.816 186.384 48.664 186.256C48.52 186.12 48.308 186.012 48.028 185.932C47.756 185.844 47.428 185.752 47.044 185.656C46.612 185.536 46.248 185.412 45.952 185.284C45.664 185.148 45.444 184.98 45.292 184.78C45.148 184.572 45.076 184.304 45.076 183.976C45.076 183.568 45.176 183.232 45.376 182.968C45.584 182.696 45.864 182.492 46.216 182.356C46.576 182.212 46.976 182.14 47.416 182.14C47.896 182.14 48.32 182.216 48.688 182.368C49.056 182.52 49.356 182.732 49.588 183.004L49.192 183.556C48.968 183.3 48.7 183.112 48.388 182.992C48.084 182.864 47.744 182.8 47.368 182.8C47.112 182.8 46.868 182.836 46.636 182.908C46.404 182.972 46.212 183.084 46.06 183.244C45.916 183.396 45.844 183.608 45.844 183.88C45.844 184.104 45.9 184.28 46.012 184.408C46.124 184.528 46.292 184.632 46.516 184.72C46.74 184.8 47.016 184.888 47.344 184.984C47.816 185.112 48.228 185.244 48.58 185.38C48.932 185.508 49.204 185.676 49.396 185.884C49.588 186.092 49.684 186.384 49.684 186.76C49.684 187.344 49.464 187.8 49.024 188.128C48.584 188.456 48.004 188.62 47.284 188.62ZM54.0328 188.2C53.9688 188.224 53.8688 188.268 53.7328 188.332C53.5968 188.396 53.4328 188.452 53.2408 188.5C53.0488 188.548 52.8408 188.572 52.6168 188.572C52.3848 188.572 52.1648 188.528 51.9568 188.44C51.7568 188.352 51.5968 188.22 51.4768 188.044C51.3568 187.86 51.2968 187.636 51.2968 187.372V182.896H50.4328V182.248H51.2968V180.136H52.1128V182.248H53.5528V182.896H52.1128V187.144C52.1288 187.368 52.2088 187.536 52.3528 187.648C52.5048 187.76 52.6768 187.816 52.8688 187.816C53.0928 187.816 53.2968 187.78 53.4808 187.708C53.6648 187.628 53.7768 187.572 53.8168 187.54L54.0328 188.2ZM54.5483 186.7C54.5483 186.308 54.6603 185.972 54.8843 185.692C55.1083 185.404 55.4163 185.184 55.8083 185.032C56.2083 184.872 56.6683 184.792 57.1883 184.792C57.4923 184.792 57.8083 184.816 58.1363 184.864C58.4643 184.912 58.7563 184.984 59.0123 185.08V184.552C59.0123 184.024 58.8563 183.604 58.5443 183.292C58.2323 182.98 57.8003 182.824 57.2483 182.824C56.9123 182.824 56.5803 182.888 56.2523 183.016C55.9323 183.136 55.5963 183.316 55.2443 183.556L54.9323 182.98C55.3403 182.7 55.7403 182.492 56.1323 182.356C56.5243 182.212 56.9243 182.14 57.3323 182.14C58.1003 182.14 58.7083 182.36 59.1563 182.8C59.6043 183.24 59.8283 183.848 59.8283 184.624V187.516C59.8283 187.628 59.8523 187.712 59.9003 187.768C59.9483 187.816 60.0243 187.844 60.1283 187.852V188.5C60.0403 188.508 59.9643 188.516 59.9003 188.524C59.8363 188.532 59.7883 188.532 59.7563 188.524C59.5563 188.516 59.4043 188.452 59.3003 188.332C59.1963 188.212 59.1403 188.084 59.1323 187.948L59.1203 187.492C58.8403 187.852 58.4763 188.132 58.0283 188.332C57.5803 188.524 57.1243 188.62 56.6603 188.62C56.2603 188.62 55.8963 188.536 55.5683 188.368C55.2483 188.192 54.9963 187.96 54.8123 187.672C54.6363 187.376 54.5483 187.052 54.5483 186.7ZM58.7363 187.18C58.8243 187.068 58.8923 186.96 58.9403 186.856C58.9883 186.752 59.0123 186.66 59.0123 186.58V185.668C58.7403 185.564 58.4563 185.484 58.1603 185.428C57.8723 185.372 57.5803 185.344 57.2843 185.344C56.7003 185.344 56.2283 185.46 55.8683 185.692C55.5083 185.924 55.3283 186.24 55.3283 186.64C55.3283 186.872 55.3883 187.092 55.5083 187.3C55.6283 187.5 55.8043 187.668 56.0363 187.804C56.2683 187.932 56.5403 187.996 56.8523 187.996C57.2443 187.996 57.6083 187.92 57.9443 187.768C58.2883 187.616 58.5523 187.42 58.7363 187.18ZM64.3034 188.62C63.8474 188.62 63.4274 188.536 63.0434 188.368C62.6674 188.192 62.3354 187.952 62.0474 187.648C61.7674 187.344 61.5474 186.996 61.3874 186.604C61.2354 186.212 61.1594 185.796 61.1594 185.356C61.1594 184.764 61.2914 184.224 61.5554 183.736C61.8194 183.248 62.1874 182.86 62.6594 182.572C63.1314 182.284 63.6754 182.14 64.2914 182.14C64.8754 182.14 65.3914 182.276 65.8394 182.548C66.2874 182.812 66.6194 183.172 66.8354 183.628L66.0434 183.88C65.8674 183.56 65.6194 183.312 65.2994 183.136C64.9874 182.952 64.6394 182.86 64.2554 182.86C63.8394 182.86 63.4594 182.968 63.1154 183.184C62.7714 183.4 62.4954 183.696 62.2874 184.072C62.0874 184.448 61.9874 184.876 61.9874 185.356C61.9874 185.828 62.0914 186.256 62.2994 186.64C62.5074 187.024 62.7834 187.332 63.1274 187.564C63.4714 187.788 63.8514 187.9 64.2674 187.9C64.5394 187.9 64.7994 187.852 65.0474 187.756C65.3034 187.66 65.5234 187.532 65.7074 187.372C65.8994 187.204 66.0274 187.024 66.0914 186.832L66.8954 187.072C66.7834 187.368 66.5954 187.636 66.3314 187.876C66.0754 188.108 65.7714 188.292 65.4194 188.428C65.0754 188.556 64.7034 188.62 64.3034 188.62ZM72.6413 188.5L70.3253 185.296L68.9933 186.544V188.5H68.1773V179.74H68.9933V185.668L72.5333 182.26H73.4333L70.8773 184.816L73.5293 188.5H72.6413Z" fill="#292929"/>
<rect x="189.5" y="175.5" width="18" height="18" rx="1.5" stroke="#155DA4"/>
</g>
<defs>
<filter id="filter0_d_25_177" x="0" y="0" width="232" height="222" filterUnits="userSpaceOnUse" color-interpolation-filters="sRGB">
<feFlood flood-opacity="0" result="BackgroundImageFix"/>
<feColorMatrix in="SourceAlpha" type="matrix" values="0 0 0 0 0 0 0 0 0 0 0 0 0 0 0 0 0 0 127 0" result="hardAlpha"/>
<feOffset dy="4"/>
<feGaussianBlur stdDeviation="2"/>
<feComposite in2="hardAlpha" operator="out"/>
<feColorMatrix type="matrix" values="0 0 0 0 0 0 0 0 0 0 0 0 0 0 0 0 0 0 0.25 0"/>
<feBlend mode="normal" in2="BackgroundImageFix" result="effect1_dropShadow_25_177"/>
<feBlend mode="normal" in="SourceGraphic" in2="effect1_dropShadow_25_177" result="shape"/>
</filter>
</defs>
</svg>
