<svg width="272" height="34" viewBox="0 0 272 34" fill="none" xmlns="http://www.w3.org/2000/svg">
<rect x="0.25" y="0.25" width="271.5" height="33.5" rx="4.75" stroke="#155DA4" stroke-width="0.5"/>
<path d="M11.068 21V12.48H17.5V21H16.66V13.224H11.908V21H11.068ZM22.1304 21.12C21.6824 21.12 21.2664 21.036 20.8824 20.868C20.5064 20.692 20.1784 20.456 19.8984 20.16C19.6264 19.856 19.4144 19.512 19.2624 19.128C19.1104 18.736 19.0344 18.324 19.0344 17.892C19.0344 17.444 19.1104 17.028 19.2624 16.644C19.4144 16.252 19.6304 15.908 19.9104 15.612C20.1904 15.308 20.5184 15.072 20.8944 14.904C21.2784 14.728 21.6944 14.64 22.1424 14.64C22.5904 14.64 23.0024 14.728 23.3784 14.904C23.7544 15.072 24.0824 15.308 24.3624 15.612C24.6424 15.908 24.8584 16.252 25.0104 16.644C25.1624 17.028 25.2384 17.444 25.2384 17.892C25.2384 18.324 25.1624 18.736 25.0104 19.128C24.8584 19.512 24.6424 19.856 24.3624 20.16C24.0904 20.456 23.7624 20.692 23.3784 20.868C23.0024 21.036 22.5864 21.12 22.1304 21.12ZM19.8624 17.904C19.8624 18.368 19.9624 18.792 20.1624 19.176C20.3704 19.552 20.6464 19.852 20.9904 20.076C21.3344 20.292 21.7144 20.4 22.1304 20.4C22.5464 20.4 22.9264 20.288 23.2704 20.064C23.6144 19.84 23.8904 19.536 24.0984 19.152C24.3064 18.76 24.4104 18.336 24.4104 17.88C24.4104 17.416 24.3064 16.992 24.0984 16.608C23.8904 16.224 23.6144 15.92 23.2704 15.696C22.9264 15.472 22.5464 15.36 22.1304 15.36C21.7144 15.36 21.3344 15.476 20.9904 15.708C20.6544 15.94 20.3824 16.248 20.1744 16.632C19.9664 17.008 19.8624 17.432 19.8624 17.904ZM26.5911 21V14.76H27.4071V19.896L31.2111 14.748H31.9431V21H31.1271V15.948L27.3831 21H26.5911ZM36.4401 21.12C35.9841 21.12 35.5641 21.036 35.1801 20.868C34.8041 20.692 34.4721 20.452 34.1841 20.148C33.9041 19.844 33.6841 19.496 33.5241 19.104C33.3721 18.712 33.2961 18.296 33.2961 17.856C33.2961 17.264 33.4281 16.724 33.6921 16.236C33.9561 15.748 34.3241 15.36 34.7961 15.072C35.2681 14.784 35.8121 14.64 36.4281 14.64C37.0121 14.64 37.5281 14.776 37.9761 15.048C38.4241 15.312 38.7561 15.672 38.9721 16.128L38.1801 16.38C38.0041 16.06 37.7561 15.812 37.4361 15.636C37.1241 15.452 36.7761 15.36 36.3921 15.36C35.9761 15.36 35.5961 15.468 35.2521 15.684C34.9081 15.9 34.6321 16.196 34.4241 16.572C34.2241 16.948 34.1241 17.376 34.1241 17.856C34.1241 18.328 34.2281 18.756 34.4361 19.14C34.6441 19.524 34.9201 19.832 35.2641 20.064C35.6081 20.288 35.9881 20.4 36.4041 20.4C36.6761 20.4 36.9361 20.352 37.1841 20.256C37.4401 20.16 37.6601 20.032 37.8441 19.872C38.0361 19.704 38.1641 19.524 38.2281 19.332L39.0321 19.572C38.9201 19.868 38.7321 20.136 38.4681 20.376C38.2121 20.608 37.9081 20.792 37.5561 20.928C37.2121 21.056 36.8401 21.12 36.4401 21.12ZM40.3021 21V14.748H41.1181V17.424H42.0541L44.1541 14.748H45.0901L42.7021 17.784L45.3901 21H44.4301L42.0541 18.18H41.1181V21H40.3021Z" fill="#818181"/>
</svg>
