<svg width="272" height="28" viewBox="0 0 272 28" fill="none" xmlns="http://www.w3.org/2000/svg">
<rect width="272" height="28" rx="4" fill="#155DA4"/>
<path d="M124.956 9.48V18H123.6V14.244H119.304V18H117.96V9.48H119.304V13.044H123.6V9.48H124.956ZM126.424 16.164C126.424 15.764 126.536 15.416 126.76 15.12C126.992 14.816 127.308 14.584 127.708 14.424C128.108 14.256 128.572 14.172 129.1 14.172C129.38 14.172 129.664 14.192 129.952 14.232C130.248 14.272 130.508 14.336 130.732 14.424V14.028C130.732 13.588 130.6 13.244 130.336 12.996C130.072 12.748 129.692 12.624 129.196 12.624C128.844 12.624 128.512 12.688 128.2 12.816C127.888 12.936 127.556 13.108 127.204 13.332L126.76 12.444C127.176 12.164 127.592 11.956 128.008 11.82C128.432 11.684 128.876 11.616 129.34 11.616C130.18 11.616 130.84 11.84 131.32 12.288C131.808 12.728 132.052 13.356 132.052 14.172V16.512C132.052 16.664 132.076 16.772 132.124 16.836C132.18 16.9 132.272 16.936 132.4 16.944V18C132.28 18.024 132.172 18.04 132.076 18.048C131.98 18.056 131.9 18.06 131.836 18.06C131.556 18.06 131.344 17.992 131.2 17.856C131.056 17.72 130.972 17.56 130.948 17.376L130.912 17.016C130.64 17.368 130.292 17.64 129.868 17.832C129.444 18.024 129.016 18.12 128.584 18.12C128.168 18.12 127.796 18.036 127.468 17.868C127.14 17.692 126.884 17.456 126.7 17.16C126.516 16.864 126.424 16.532 126.424 16.164ZM130.42 16.548C130.516 16.444 130.592 16.34 130.648 16.236C130.704 16.132 130.732 16.04 130.732 15.96V15.24C130.508 15.152 130.272 15.088 130.024 15.048C129.776 15 129.532 14.976 129.292 14.976C128.812 14.976 128.42 15.072 128.116 15.264C127.82 15.456 127.672 15.72 127.672 16.056C127.672 16.24 127.72 16.416 127.816 16.584C127.92 16.752 128.064 16.888 128.248 16.992C128.44 17.096 128.676 17.148 128.956 17.148C129.244 17.148 129.52 17.092 129.784 16.98C130.048 16.868 130.26 16.724 130.42 16.548ZM133.893 18V11.736H135.213V16.236L138.393 11.724H139.593V18H138.273V13.596L135.129 18H133.893ZM136.749 11.076C136.157 11.076 135.697 10.928 135.369 10.632C135.049 10.336 134.889 9.964 134.889 9.516H135.753C135.753 9.748 135.829 9.94 135.981 10.092C136.141 10.244 136.397 10.32 136.749 10.32C137.093 10.32 137.337 10.248 137.481 10.104C137.633 9.96 137.725 9.764 137.757 9.516H138.621C138.621 9.964 138.457 10.336 138.129 10.632C137.809 10.928 137.349 11.076 136.749 11.076ZM142.898 18V12.888H140.822V11.724H146.306V12.888H144.218V18H142.898ZM147.533 18V11.736H148.853V16.236L152.033 11.724H153.233V18H151.913V13.596L148.769 18H147.533Z" fill="white"/>
</svg>
