<svg width="70" height="34" viewBox="0 0 70 34" fill="none" xmlns="http://www.w3.org/2000/svg">
<rect width="70" height="34" rx="5" fill="#F2F2F2"/>
<path d="M18.568 21V12.48H24.16V13.224H19.408V16.356H23.416V17.052H19.408V21H18.568ZM25.4664 21V14.748H26.2824V21H25.4664ZM25.4664 13.44V12.24H26.2824V13.44H25.4664ZM30.5877 21.084C30.1637 21.084 29.7717 20.996 29.4117 20.82C29.0517 20.644 28.7397 20.408 28.4757 20.112C28.2197 19.808 28.0197 19.464 27.8757 19.08C27.7317 18.696 27.6597 18.3 27.6597 17.892C27.6597 17.452 27.7277 17.04 27.8637 16.656C28.0077 16.264 28.2077 15.916 28.4637 15.612C28.7277 15.308 29.0357 15.072 29.3877 14.904C29.7397 14.728 30.1317 14.64 30.5637 14.64C31.0997 14.64 31.5637 14.776 31.9557 15.048C32.3557 15.32 32.6917 15.656 32.9637 16.056V14.748H33.6957V21.024C33.6957 21.6 33.5557 22.084 33.2757 22.476C33.0037 22.876 32.6317 23.176 32.1597 23.376C31.6957 23.576 31.1877 23.676 30.6357 23.676C29.9237 23.676 29.3477 23.548 28.9077 23.292C28.4677 23.036 28.1077 22.692 27.8277 22.26L28.3317 21.864C28.5797 22.256 28.9077 22.548 29.3157 22.74C29.7317 22.932 30.1717 23.028 30.6357 23.028C31.0437 23.028 31.4157 22.952 31.7517 22.8C32.0957 22.656 32.3677 22.436 32.5677 22.14C32.7757 21.844 32.8797 21.472 32.8797 21.024V19.788C32.6397 20.18 32.3117 20.496 31.8957 20.736C31.4797 20.968 31.0437 21.084 30.5877 21.084ZM30.8157 20.4C31.0637 20.4 31.2997 20.356 31.5237 20.268C31.7557 20.18 31.9677 20.064 32.1597 19.92C32.3517 19.768 32.5117 19.6 32.6397 19.416C32.7677 19.232 32.8477 19.044 32.8797 18.852V16.92C32.7597 16.616 32.5877 16.348 32.3637 16.116C32.1397 15.876 31.8837 15.692 31.5957 15.564C31.3157 15.428 31.0237 15.36 30.7197 15.36C30.3677 15.36 30.0517 15.436 29.7717 15.588C29.4997 15.732 29.2677 15.928 29.0757 16.176C28.8917 16.416 28.7477 16.688 28.6437 16.992C28.5397 17.296 28.4877 17.6 28.4877 17.904C28.4877 18.24 28.5477 18.56 28.6677 18.864C28.7877 19.16 28.9517 19.428 29.1597 19.668C29.3757 19.9 29.6237 20.08 29.9037 20.208C30.1917 20.336 30.4957 20.4 30.8157 20.4ZM44.7977 21H43.9817V17.508C43.9817 16.78 43.8657 16.244 43.6337 15.9C43.4017 15.556 43.0577 15.384 42.6017 15.384C42.1297 15.384 41.7057 15.552 41.3297 15.888C40.9617 16.224 40.7017 16.656 40.5497 17.184V21H39.7337V17.508C39.7337 16.772 39.6217 16.236 39.3977 15.9C39.1737 15.556 38.8297 15.384 38.3657 15.384C37.9017 15.384 37.4817 15.548 37.1057 15.876C36.7297 16.204 36.4657 16.636 36.3137 17.172V21H35.4977V14.748H36.2417V16.164C36.5057 15.676 36.8417 15.3 37.2497 15.036C37.6657 14.772 38.1257 14.64 38.6297 14.64C39.1497 14.64 39.5697 14.788 39.8897 15.084C40.2097 15.38 40.4057 15.768 40.4777 16.248C40.7657 15.72 41.1097 15.32 41.5097 15.048C41.9177 14.776 42.3777 14.64 42.8897 14.64C43.2417 14.64 43.5377 14.704 43.7777 14.832C44.0257 14.96 44.2217 15.144 44.3657 15.384C44.5177 15.616 44.6257 15.9 44.6897 16.236C44.7617 16.564 44.7977 16.932 44.7977 17.34V21ZM46.021 19.2C46.021 18.808 46.133 18.472 46.357 18.192C46.581 17.904 46.889 17.684 47.281 17.532C47.681 17.372 48.141 17.292 48.661 17.292C48.965 17.292 49.281 17.316 49.609 17.364C49.937 17.412 50.229 17.484 50.485 17.58V17.052C50.485 16.524 50.329 16.104 50.017 15.792C49.705 15.48 49.273 15.324 48.721 15.324C48.385 15.324 48.053 15.388 47.725 15.516C47.405 15.636 47.069 15.816 46.717 16.056L46.405 15.48C46.813 15.2 47.213 14.992 47.605 14.856C47.997 14.712 48.397 14.64 48.805 14.64C49.573 14.64 50.181 14.86 50.629 15.3C51.077 15.74 51.301 16.348 51.301 17.124V20.016C51.301 20.128 51.325 20.212 51.373 20.268C51.421 20.316 51.497 20.344 51.601 20.352V21C51.513 21.008 51.437 21.016 51.373 21.024C51.309 21.032 51.261 21.032 51.229 21.024C51.029 21.016 50.877 20.952 50.773 20.832C50.669 20.712 50.613 20.584 50.605 20.448L50.593 19.992C50.313 20.352 49.949 20.632 49.501 20.832C49.053 21.024 48.597 21.12 48.133 21.12C47.733 21.12 47.369 21.036 47.041 20.868C46.721 20.692 46.469 20.46 46.285 20.172C46.109 19.876 46.021 19.552 46.021 19.2ZM50.209 19.68C50.297 19.568 50.365 19.46 50.413 19.356C50.461 19.252 50.485 19.16 50.485 19.08V18.168C50.213 18.064 49.929 17.984 49.633 17.928C49.345 17.872 49.053 17.844 48.757 17.844C48.173 17.844 47.701 17.96 47.341 18.192C46.981 18.424 46.801 18.74 46.801 19.14C46.801 19.372 46.861 19.592 46.981 19.8C47.101 20 47.277 20.168 47.509 20.304C47.741 20.432 48.013 20.496 48.325 20.496C48.717 20.496 49.081 20.42 49.417 20.268C49.761 20.116 50.025 19.92 50.209 19.68Z" fill="#292929"/>
</svg>
