<svg width="87" height="34" viewBox="0 0 87 34" fill="none" xmlns="http://www.w3.org/2000/svg">
<rect width="87" height="34" rx="5" fill="white"/>
<path fill-rule="evenodd" clip-rule="evenodd" d="M15.6782 16.9999L19.8595 12.8187C20.0468 12.6314 20.0468 12.3278 19.8595 12.1405C19.6722 11.9532 19.3686 11.9532 19.1813 12.1405L15 16.3217L10.8187 12.1411C10.6314 11.9538 10.3278 11.9538 10.1405 12.1411C9.95318 12.3284 9.95318 12.632 10.1405 12.8193L14.3218 17.0006L10.1411 21.1811C9.95381 21.3684 9.95381 21.6721 10.1411 21.8594C10.2351 21.9527 10.3572 22 10.4799 22C10.6026 22 10.7254 21.9533 10.8187 21.8594L15 17.6781L19.1813 21.8594C19.2753 21.9527 19.3974 22 19.5201 22C19.6428 22 19.7656 21.9533 19.8589 21.8594C20.0462 21.6721 20.0462 21.3684 19.8589 21.1811L15.6782 16.9999Z" fill="#292929"/>
<path d="M31.2 21V15.396H30.336V14.748H31.2V14.58C31.2 14.068 31.272 13.628 31.416 13.26C31.568 12.892 31.78 12.612 32.052 12.42C32.332 12.22 32.66 12.12 33.036 12.12C33.284 12.12 33.524 12.156 33.756 12.228C33.988 12.3 34.188 12.396 34.356 12.516L34.104 13.104C34 13.016 33.864 12.948 33.696 12.9C33.528 12.852 33.36 12.828 33.192 12.828C32.816 12.828 32.524 12.976 32.316 13.272C32.116 13.568 32.016 13.996 32.016 14.556V14.748H33.744V15.396H32.016V21H31.2ZM34.8009 18.42V14.748H35.6169V18.276C35.6169 18.988 35.7369 19.52 35.9769 19.872C36.2249 20.224 36.5889 20.4 37.0689 20.4C37.3889 20.4 37.6969 20.332 37.9929 20.196C38.2969 20.052 38.5649 19.852 38.7969 19.596C39.0289 19.332 39.2049 19.028 39.3249 18.684V14.748H40.1409V20.016C40.1409 20.128 40.1649 20.212 40.2129 20.268C40.2609 20.316 40.3329 20.344 40.4289 20.352V21C40.3329 21.008 40.2569 21.012 40.2009 21.012C40.1449 21.02 40.0929 21.024 40.0449 21.024C39.8849 21.008 39.7449 20.944 39.6249 20.832C39.5129 20.72 39.4529 20.584 39.4449 20.424L39.4209 19.584C39.1489 20.064 38.7769 20.44 38.3049 20.712C37.8409 20.984 37.3369 21.12 36.7929 21.12C36.1369 21.12 35.6409 20.892 35.3049 20.436C34.9689 19.98 34.8009 19.308 34.8009 18.42ZM42.0219 12.24H42.8379V19.584C42.8379 19.896 42.8939 20.1 43.0059 20.196C43.1179 20.292 43.2539 20.34 43.4139 20.34C43.5579 20.34 43.7019 20.324 43.8459 20.292C43.9899 20.26 44.1139 20.228 44.2179 20.196L44.3619 20.856C44.2099 20.92 44.0219 20.972 43.7979 21.012C43.5819 21.052 43.3939 21.072 43.2339 21.072C42.8659 21.072 42.5699 20.964 42.3459 20.748C42.1299 20.532 42.0219 20.236 42.0219 19.86V12.24ZM45.2915 12.24H46.1075V19.584C46.1075 19.896 46.1635 20.1 46.2755 20.196C46.3875 20.292 46.5235 20.34 46.6835 20.34C46.8275 20.34 46.9715 20.324 47.1155 20.292C47.2595 20.26 47.3835 20.228 47.4875 20.196L47.6315 20.856C47.4795 20.92 47.2915 20.972 47.0675 21.012C46.8515 21.052 46.6635 21.072 46.5035 21.072C46.1355 21.072 45.8395 20.964 45.6155 20.748C45.3995 20.532 45.2915 20.236 45.2915 19.86V12.24ZM50.577 21.12C50.065 21.12 49.589 21.036 49.149 20.868C48.709 20.7 48.329 20.444 48.009 20.1L48.345 19.524C48.697 19.852 49.049 20.092 49.401 20.244C49.761 20.388 50.141 20.46 50.541 20.46C51.029 20.46 51.425 20.364 51.729 20.172C52.033 19.972 52.185 19.688 52.185 19.32C52.185 19.072 52.109 18.884 51.957 18.756C51.813 18.62 51.601 18.512 51.321 18.432C51.049 18.344 50.721 18.252 50.337 18.156C49.905 18.036 49.541 17.912 49.245 17.784C48.957 17.648 48.737 17.48 48.585 17.28C48.441 17.072 48.369 16.804 48.369 16.476C48.369 16.068 48.469 15.732 48.669 15.468C48.877 15.196 49.157 14.992 49.509 14.856C49.869 14.712 50.269 14.64 50.709 14.64C51.189 14.64 51.613 14.716 51.981 14.868C52.349 15.02 52.649 15.232 52.881 15.504L52.485 16.056C52.261 15.8 51.993 15.612 51.681 15.492C51.377 15.364 51.037 15.3 50.661 15.3C50.405 15.3 50.161 15.336 49.929 15.408C49.697 15.472 49.505 15.584 49.353 15.744C49.209 15.896 49.137 16.108 49.137 16.38C49.137 16.604 49.193 16.78 49.305 16.908C49.417 17.028 49.585 17.132 49.809 17.22C50.033 17.3 50.309 17.388 50.637 17.484C51.109 17.612 51.521 17.744 51.873 17.88C52.225 18.008 52.497 18.176 52.689 18.384C52.881 18.592 52.977 18.884 52.977 19.26C52.977 19.844 52.757 20.3 52.317 20.628C51.877 20.956 51.297 21.12 50.577 21.12ZM57.3258 20.7C57.2618 20.724 57.1618 20.768 57.0258 20.832C56.8898 20.896 56.7258 20.952 56.5338 21C56.3418 21.048 56.1338 21.072 55.9098 21.072C55.6778 21.072 55.4578 21.028 55.2498 20.94C55.0498 20.852 54.8898 20.72 54.7698 20.544C54.6498 20.36 54.5898 20.136 54.5898 19.872V15.396H53.7258V14.748H54.5898V12.636H55.4058V14.748H56.8458V15.396H55.4058V19.644C55.4218 19.868 55.5018 20.036 55.6458 20.148C55.7978 20.26 55.9698 20.316 56.1618 20.316C56.3858 20.316 56.5898 20.28 56.7738 20.208C56.9578 20.128 57.0698 20.072 57.1098 20.04L57.3258 20.7ZM57.8413 19.2C57.8413 18.808 57.9533 18.472 58.1773 18.192C58.4013 17.904 58.7093 17.684 59.1013 17.532C59.5013 17.372 59.9613 17.292 60.4813 17.292C60.7853 17.292 61.1013 17.316 61.4293 17.364C61.7573 17.412 62.0493 17.484 62.3053 17.58V17.052C62.3053 16.524 62.1493 16.104 61.8373 15.792C61.5253 15.48 61.0933 15.324 60.5413 15.324C60.2053 15.324 59.8733 15.388 59.5453 15.516C59.2253 15.636 58.8893 15.816 58.5373 16.056L58.2253 15.48C58.6333 15.2 59.0333 14.992 59.4253 14.856C59.8173 14.712 60.2173 14.64 60.6253 14.64C61.3933 14.64 62.0013 14.86 62.4493 15.3C62.8973 15.74 63.1213 16.348 63.1213 17.124V20.016C63.1213 20.128 63.1453 20.212 63.1933 20.268C63.2413 20.316 63.3173 20.344 63.4213 20.352V21C63.3333 21.008 63.2573 21.016 63.1933 21.024C63.1293 21.032 63.0813 21.032 63.0493 21.024C62.8493 21.016 62.6973 20.952 62.5933 20.832C62.4893 20.712 62.4333 20.584 62.4253 20.448L62.4133 19.992C62.1333 20.352 61.7693 20.632 61.3213 20.832C60.8733 21.024 60.4173 21.12 59.9533 21.12C59.5533 21.12 59.1893 21.036 58.8613 20.868C58.5413 20.692 58.2893 20.46 58.1053 20.172C57.9293 19.876 57.8413 19.552 57.8413 19.2ZM62.0293 19.68C62.1173 19.568 62.1853 19.46 62.2333 19.356C62.2813 19.252 62.3053 19.16 62.3053 19.08V18.168C62.0333 18.064 61.7493 17.984 61.4533 17.928C61.1653 17.872 60.8733 17.844 60.5773 17.844C59.9933 17.844 59.5213 17.96 59.1613 18.192C58.8013 18.424 58.6213 18.74 58.6213 19.14C58.6213 19.372 58.6813 19.592 58.8013 19.8C58.9213 20 59.0973 20.168 59.3293 20.304C59.5613 20.432 59.8333 20.496 60.1453 20.496C60.5373 20.496 60.9013 20.42 61.2373 20.268C61.5813 20.116 61.8453 19.92 62.0293 19.68ZM67.5964 21.12C67.1404 21.12 66.7204 21.036 66.3364 20.868C65.9604 20.692 65.6284 20.452 65.3404 20.148C65.0604 19.844 64.8404 19.496 64.6804 19.104C64.5284 18.712 64.4524 18.296 64.4524 17.856C64.4524 17.264 64.5844 16.724 64.8484 16.236C65.1124 15.748 65.4804 15.36 65.9524 15.072C66.4244 14.784 66.9684 14.64 67.5844 14.64C68.1684 14.64 68.6844 14.776 69.1324 15.048C69.5804 15.312 69.9124 15.672 70.1284 16.128L69.3364 16.38C69.1604 16.06 68.9124 15.812 68.5924 15.636C68.2804 15.452 67.9324 15.36 67.5484 15.36C67.1324 15.36 66.7524 15.468 66.4084 15.684C66.0644 15.9 65.7884 16.196 65.5804 16.572C65.3804 16.948 65.2804 17.376 65.2804 17.856C65.2804 18.328 65.3844 18.756 65.5924 19.14C65.8004 19.524 66.0764 19.832 66.4204 20.064C66.7644 20.288 67.1444 20.4 67.5604 20.4C67.8324 20.4 68.0924 20.352 68.3404 20.256C68.5964 20.16 68.8164 20.032 69.0004 19.872C69.1924 19.704 69.3204 19.524 69.3844 19.332L70.1884 19.572C70.0764 19.868 69.8884 20.136 69.6244 20.376C69.3684 20.608 69.0644 20.792 68.7124 20.928C68.3684 21.056 67.9964 21.12 67.5964 21.12ZM75.9343 21L73.6183 17.796L72.2863 19.044V21H71.4703V12.24H72.2863V18.168L75.8263 14.76H76.7263L74.1703 17.316L76.8223 21H75.9343Z" fill="#292929"/>
</svg>
