<svg width="126" height="88" viewBox="0 0 126 88" fill="none" xmlns="http://www.w3.org/2000/svg">
<rect x="0.5" y="0.5" width="125" height="87" rx="4.5" stroke="#9747FF" stroke-dasharray="10 5"/>
<path d="M21.956 32.632V30.256H22.316C22.54 30.256 22.736 30.164 22.904 29.98C23.08 29.796 23.228 29.5 23.348 29.092C23.476 28.676 23.576 28.12 23.648 27.424C23.728 26.728 23.784 25.864 23.816 24.832L23.876 22.48H28.976V30.256H29.996V32.632H29.252V31H22.7V32.632H21.956ZM23.516 30.256H28.136V23.224H24.644L24.596 24.928C24.572 26.008 24.516 26.912 24.428 27.64C24.348 28.36 24.232 28.932 24.08 29.356C23.928 29.772 23.74 30.072 23.516 30.256ZM34.0523 31.12C33.6043 31.12 33.1883 31.036 32.8043 30.868C32.4283 30.692 32.1003 30.456 31.8203 30.16C31.5483 29.856 31.3363 29.512 31.1843 29.128C31.0323 28.736 30.9563 28.324 30.9563 27.892C30.9563 27.444 31.0323 27.028 31.1843 26.644C31.3363 26.252 31.5523 25.908 31.8323 25.612C32.1123 25.308 32.4403 25.072 32.8163 24.904C33.2003 24.728 33.6163 24.64 34.0643 24.64C34.5123 24.64 34.9243 24.728 35.3003 24.904C35.6763 25.072 36.0043 25.308 36.2843 25.612C36.5643 25.908 36.7803 26.252 36.9323 26.644C37.0843 27.028 37.1603 27.444 37.1603 27.892C37.1603 28.324 37.0843 28.736 36.9323 29.128C36.7803 29.512 36.5643 29.856 36.2843 30.16C36.0123 30.456 35.6843 30.692 35.3003 30.868C34.9243 31.036 34.5083 31.12 34.0523 31.12ZM31.7843 27.904C31.7843 28.368 31.8843 28.792 32.0843 29.176C32.2923 29.552 32.5683 29.852 32.9123 30.076C33.2563 30.292 33.6363 30.4 34.0523 30.4C34.4683 30.4 34.8483 30.288 35.1923 30.064C35.5363 29.84 35.8123 29.536 36.0203 29.152C36.2283 28.76 36.3323 28.336 36.3323 27.88C36.3323 27.416 36.2283 26.992 36.0203 26.608C35.8123 26.224 35.5363 25.92 35.1923 25.696C34.8483 25.472 34.4683 25.36 34.0523 25.36C33.6363 25.36 33.2563 25.476 32.9123 25.708C32.5763 25.94 32.3043 26.248 32.0963 26.632C31.8883 27.008 31.7843 27.432 31.7843 27.904ZM37.925 31.036V30.292C38.141 30.292 38.333 30.236 38.501 30.124C38.669 30.004 38.817 29.804 38.945 29.524C39.081 29.244 39.189 28.86 39.269 28.372C39.349 27.876 39.401 27.248 39.425 26.488L39.497 24.748H43.553V31H42.737V25.48H40.217L40.193 26.56C40.161 27.424 40.093 28.148 39.989 28.732C39.885 29.308 39.737 29.764 39.545 30.1C39.361 30.436 39.133 30.676 38.861 30.82C38.589 30.964 38.277 31.036 37.925 31.036ZM44.913 31L47.253 27.784L45.141 24.748H46.065L47.949 27.448H48.765V24.748H49.605V27.448H50.445L52.293 24.748H53.229L51.105 27.784L53.469 31H52.521L50.445 28.168H49.605V31H48.765V28.168H47.949L45.861 31H44.913ZM54.8138 31V24.748H55.6298V27.436H59.2058V24.748H60.0218V31H59.2058V28.168H55.6298V31H54.8138ZM64.4859 31.12C64.0379 31.12 63.6219 31.036 63.2379 30.868C62.8619 30.692 62.5339 30.456 62.2539 30.16C61.9819 29.856 61.7699 29.512 61.6179 29.128C61.4659 28.736 61.3899 28.324 61.3899 27.892C61.3899 27.444 61.4659 27.028 61.6179 26.644C61.7699 26.252 61.9859 25.908 62.2659 25.612C62.5459 25.308 62.8739 25.072 63.2499 24.904C63.6339 24.728 64.0499 24.64 64.4979 24.64C64.9459 24.64 65.3579 24.728 65.7339 24.904C66.1099 25.072 66.4379 25.308 66.7179 25.612C66.9979 25.908 67.2139 26.252 67.3659 26.644C67.5179 27.028 67.5939 27.444 67.5939 27.892C67.5939 28.324 67.5179 28.736 67.3659 29.128C67.2139 29.512 66.9979 29.856 66.7179 30.16C66.4459 30.456 66.1179 30.692 65.7339 30.868C65.3579 31.036 64.9419 31.12 64.4859 31.12ZM62.2179 27.904C62.2179 28.368 62.3179 28.792 62.5179 29.176C62.7259 29.552 63.0019 29.852 63.3459 30.076C63.6899 30.292 64.0699 30.4 64.4859 30.4C64.9019 30.4 65.2819 30.288 65.6259 30.064C65.9699 29.84 66.2459 29.536 66.4539 29.152C66.6619 28.76 66.7659 28.336 66.7659 27.88C66.7659 27.416 66.6619 26.992 66.4539 26.608C66.2459 26.224 65.9699 25.92 65.6259 25.696C65.2819 25.472 64.9019 25.36 64.4859 25.36C64.0699 25.36 63.6899 25.476 63.3459 25.708C63.0099 25.94 62.7379 26.248 62.5299 26.632C62.3219 27.008 62.2179 27.432 62.2179 27.904ZM71.6706 31.12C71.2146 31.12 70.7946 31.036 70.4106 30.868C70.0346 30.692 69.7026 30.452 69.4146 30.148C69.1346 29.844 68.9146 29.496 68.7546 29.104C68.6026 28.712 68.5266 28.296 68.5266 27.856C68.5266 27.264 68.6586 26.724 68.9226 26.236C69.1866 25.748 69.5546 25.36 70.0266 25.072C70.4986 24.784 71.0426 24.64 71.6586 24.64C72.2426 24.64 72.7586 24.776 73.2066 25.048C73.6546 25.312 73.9866 25.672 74.2026 26.128L73.4106 26.38C73.2346 26.06 72.9866 25.812 72.6666 25.636C72.3546 25.452 72.0066 25.36 71.6226 25.36C71.2066 25.36 70.8266 25.468 70.4826 25.684C70.1386 25.9 69.8626 26.196 69.6546 26.572C69.4546 26.948 69.3546 27.376 69.3546 27.856C69.3546 28.328 69.4586 28.756 69.6666 29.14C69.8746 29.524 70.1506 29.832 70.4946 30.064C70.8386 30.288 71.2186 30.4 71.6346 30.4C71.9066 30.4 72.1666 30.352 72.4146 30.256C72.6706 30.16 72.8906 30.032 73.0746 29.872C73.2666 29.704 73.3946 29.524 73.4586 29.332L74.2626 29.572C74.1506 29.868 73.9626 30.136 73.6986 30.376C73.4426 30.608 73.1386 30.792 72.7866 30.928C72.4426 31.056 72.0706 31.12 71.6706 31.12ZM77.1045 31V25.48H74.8725V24.748H80.1525V25.48H77.9205V31H77.1045ZM81.2513 31V24.748H82.0673V26.956H83.6873C84.3993 26.956 84.9353 27.14 85.2953 27.508C85.6633 27.868 85.8473 28.344 85.8473 28.936C85.8473 29.32 85.7673 29.668 85.6073 29.98C85.4473 30.292 85.2113 30.54 84.8993 30.724C84.5953 30.908 84.2113 31 83.7473 31H81.2513ZM82.0673 30.352H83.6393C83.9673 30.352 84.2313 30.288 84.4313 30.16C84.6313 30.024 84.7793 29.852 84.8753 29.644C84.9713 29.428 85.0193 29.196 85.0193 28.948C85.0193 28.708 84.9753 28.488 84.8873 28.288C84.8073 28.08 84.6633 27.916 84.4553 27.796C84.2553 27.668 83.9753 27.604 83.6153 27.604H82.0673V30.352Z" fill="#292929"/>
<path d="M94.5 24.5L98.6162 29.0932C99.1023 29.6356 99.8977 29.6356 100.384 29.0932L104.5 24.5" stroke="#155DA4" stroke-miterlimit="10" stroke-linecap="round" stroke-linejoin="round"/>
<path d="M21.42 66.632V64.04H21.804C22.028 64.04 22.224 63.952 22.392 63.776C22.56 63.592 22.704 63.304 22.824 62.912C22.944 62.512 23.04 61.98 23.112 61.316C23.184 60.652 23.236 59.832 23.268 58.856L23.328 56.48H28.608V64.04H29.664V66.632H28.704V65H22.38V66.632H21.42ZM23.244 64.04H27.528V57.44H24.324L24.288 58.988C24.264 59.996 24.212 60.84 24.132 61.52C24.052 62.2 23.94 62.744 23.796 63.152C23.652 63.56 23.468 63.856 23.244 64.04ZM33.67 65.12C33.198 65.12 32.77 65.036 32.386 64.868C32.002 64.692 31.67 64.456 31.39 64.16C31.11 63.856 30.894 63.508 30.742 63.116C30.59 62.724 30.514 62.312 30.514 61.88C30.514 61.44 30.59 61.024 30.742 60.632C30.894 60.24 31.11 59.896 31.39 59.6C31.67 59.296 32.002 59.06 32.386 58.892C32.778 58.716 33.21 58.628 33.682 58.628C34.146 58.628 34.57 58.716 34.954 58.892C35.338 59.06 35.67 59.296 35.95 59.6C36.238 59.896 36.458 60.24 36.61 60.632C36.762 61.024 36.838 61.44 36.838 61.88C36.838 62.312 36.762 62.724 36.61 63.116C36.458 63.508 36.242 63.856 35.962 64.16C35.682 64.456 35.346 64.692 34.954 64.868C34.57 65.036 34.142 65.12 33.67 65.12ZM31.594 61.892C31.594 62.324 31.686 62.716 31.87 63.068C32.062 63.42 32.314 63.7 32.626 63.908C32.938 64.108 33.286 64.208 33.67 64.208C34.054 64.208 34.402 64.104 34.714 63.896C35.034 63.688 35.286 63.408 35.47 63.056C35.662 62.696 35.758 62.3 35.758 61.868C35.758 61.436 35.662 61.044 35.47 60.692C35.286 60.34 35.034 60.06 34.714 59.852C34.402 59.644 34.054 59.54 33.67 59.54C33.286 59.54 32.938 59.648 32.626 59.864C32.314 60.072 32.062 60.352 31.87 60.704C31.686 61.056 31.594 61.452 31.594 61.892ZM37.5656 65.048V64.1C37.7736 64.1 37.9576 64.048 38.1176 63.944C38.2856 63.832 38.4336 63.648 38.5616 63.392C38.6896 63.128 38.7896 62.768 38.8616 62.312C38.9416 61.848 38.9936 61.26 39.0176 60.548L39.0896 58.736H43.3496V65H42.2936V59.672H40.0256L40.0016 60.644C39.9696 61.5 39.8976 62.212 39.7856 62.78C39.6736 63.348 39.5176 63.796 39.3176 64.124C39.1176 64.452 38.8696 64.688 38.5736 64.832C38.2856 64.976 37.9496 65.048 37.5656 65.048ZM44.6231 65L46.9271 61.772L44.8271 58.736H46.0151L47.8151 61.34H48.4871V58.736H49.5671V61.34H50.2631L52.0271 58.736H53.2271L51.1271 61.772L53.4431 65H52.2311L50.2631 62.264H49.5671V65H48.4871V62.264H47.8151L45.8351 65H44.6231ZM54.6994 65V58.736H55.7554V61.328H59.0194V58.736H60.0754V65H59.0194V62.264H55.7554V65H54.6994ZM64.5138 65.12C64.0418 65.12 63.6138 65.036 63.2298 64.868C62.8458 64.692 62.5138 64.456 62.2338 64.16C61.9538 63.856 61.7378 63.508 61.5858 63.116C61.4338 62.724 61.3578 62.312 61.3578 61.88C61.3578 61.44 61.4338 61.024 61.5858 60.632C61.7378 60.24 61.9538 59.896 62.2338 59.6C62.5138 59.296 62.8458 59.06 63.2298 58.892C63.6218 58.716 64.0538 58.628 64.5258 58.628C64.9898 58.628 65.4138 58.716 65.7978 58.892C66.1818 59.06 66.5138 59.296 66.7938 59.6C67.0818 59.896 67.3018 60.24 67.4538 60.632C67.6058 61.024 67.6818 61.44 67.6818 61.88C67.6818 62.312 67.6058 62.724 67.4538 63.116C67.3018 63.508 67.0858 63.856 66.8058 64.16C66.5258 64.456 66.1898 64.692 65.7978 64.868C65.4138 65.036 64.9858 65.12 64.5138 65.12ZM62.4378 61.892C62.4378 62.324 62.5298 62.716 62.7138 63.068C62.9058 63.42 63.1578 63.7 63.4698 63.908C63.7818 64.108 64.1298 64.208 64.5138 64.208C64.8978 64.208 65.2458 64.104 65.5578 63.896C65.8778 63.688 66.1298 63.408 66.3138 63.056C66.5058 62.696 66.6018 62.3 66.6018 61.868C66.6018 61.436 66.5058 61.044 66.3138 60.692C66.1298 60.34 65.8778 60.06 65.5578 59.852C65.2458 59.644 64.8978 59.54 64.5138 59.54C64.1298 59.54 63.7818 59.648 63.4698 59.864C63.1578 60.072 62.9058 60.352 62.7138 60.704C62.5298 61.056 62.4378 61.452 62.4378 61.892ZM71.7334 65.12C71.2614 65.12 70.8294 65.036 70.4374 64.868C70.0534 64.692 69.7174 64.452 69.4294 64.148C69.1494 63.844 68.9294 63.496 68.7694 63.104C68.6174 62.712 68.5414 62.296 68.5414 61.856C68.5414 61.264 68.6734 60.724 68.9374 60.236C69.2014 59.748 69.5734 59.36 70.0534 59.072C70.5334 58.776 71.0894 58.628 71.7214 58.628C72.3374 58.628 72.8734 58.768 73.3294 59.048C73.7934 59.32 74.1374 59.688 74.3614 60.152L73.3294 60.476C73.1694 60.18 72.9454 59.952 72.6574 59.792C72.3694 59.624 72.0494 59.54 71.6974 59.54C71.3134 59.54 70.9614 59.64 70.6414 59.84C70.3294 60.04 70.0814 60.316 69.8974 60.668C69.7134 61.012 69.6214 61.408 69.6214 61.856C69.6214 62.296 69.7134 62.696 69.8974 63.056C70.0894 63.408 70.3414 63.688 70.6534 63.896C70.9734 64.104 71.3254 64.208 71.7094 64.208C71.9574 64.208 72.1934 64.164 72.4174 64.076C72.6494 63.988 72.8494 63.872 73.0174 63.728C73.1934 63.576 73.3134 63.412 73.3774 63.236L74.4094 63.548C74.2814 63.852 74.0854 64.124 73.8214 64.364C73.5654 64.596 73.2574 64.78 72.8974 64.916C72.5454 65.052 72.1574 65.12 71.7334 65.12ZM77.1299 65V59.672H74.9699V58.736H80.3459V59.672H78.1859V65H77.1299ZM81.3947 65V58.736H82.4507V60.872H84.0107C84.7467 60.872 85.3027 61.06 85.6787 61.436C86.0627 61.804 86.2547 62.288 86.2547 62.888C86.2547 63.288 86.1707 63.648 86.0027 63.968C85.8427 64.288 85.6027 64.54 85.2827 64.724C84.9627 64.908 84.5627 65 84.0827 65H81.3947ZM82.4507 64.172H83.9387C84.2347 64.172 84.4707 64.116 84.6467 64.004C84.8307 63.884 84.9667 63.728 85.0547 63.536C85.1427 63.344 85.1867 63.136 85.1867 62.912C85.1867 62.696 85.1467 62.496 85.0667 62.312C84.9867 62.128 84.8547 61.98 84.6707 61.868C84.4867 61.756 84.2347 61.7 83.9147 61.7H82.4507V64.172Z" fill="#155DA4"/>
<path d="M95 63.5L99.1162 58.9068C99.6023 58.3644 100.398 58.3644 100.884 58.9068L105 63.5" stroke="#155DA4" stroke-miterlimit="10" stroke-linecap="round" stroke-linejoin="round"/>
</svg>
