<svg width="1560" height="80" viewBox="0 0 1560 80" fill="none" xmlns="http://www.w3.org/2000/svg">
<line x1="4.37114e-08" y1="0.5" x2="1560" y2="0.500136" stroke="#F2F2F2"/>
<path d="M9.72 48.0002V41.8802C9.42667 42.0136 9.08667 42.1402 8.7 42.2602C8.31333 42.3802 7.89333 42.4802 7.44 42.5602C6.98667 42.6269 6.5 42.6602 5.98 42.6602C4.40667 42.6602 3.24667 42.3202 2.5 41.6402C1.75333 40.9469 1.38 39.8536 1.38 38.3602V33.8002H2.74V38.2002C2.74 39.3069 3.00667 40.1136 3.54 40.6202C4.08667 41.1269 4.96667 41.3802 6.18 41.3802C6.86 41.3802 7.52 41.3069 8.16 41.1602C8.81333 41.0136 9.33333 40.8336 9.72 40.6202V33.8002H11.08V48.0002H9.72ZM18.8711 48.2002C18.1244 48.2002 17.4311 48.0602 16.7911 47.7802C16.1511 47.4869 15.5978 47.0936 15.1311 46.6002C14.6644 46.0936 14.2978 45.5136 14.0311 44.8602C13.7778 44.2069 13.6511 43.5069 13.6511 42.7602C13.6511 41.7869 13.8711 40.8936 14.3111 40.0802C14.7644 39.2669 15.3844 38.6202 16.1711 38.1402C16.9578 37.6469 17.8511 37.4002 18.8511 37.4002C19.8778 37.4002 20.7711 37.6469 21.5311 38.1402C22.3044 38.6336 22.9111 39.2869 23.3511 40.1002C23.7911 40.9002 24.0111 41.7802 24.0111 42.7402C24.0111 42.8469 24.0111 42.9536 24.0111 43.0602C24.0111 43.1536 24.0044 43.2269 23.9911 43.2802H15.0711C15.1378 44.0269 15.3444 44.6936 15.6911 45.2802C16.0511 45.8536 16.5111 46.3136 17.0711 46.6602C17.6444 46.9936 18.2644 47.1602 18.9311 47.1602C19.6111 47.1602 20.2511 46.9869 20.8511 46.6402C21.4644 46.2936 21.8911 45.8402 22.1311 45.2802L23.3111 45.6002C23.0978 46.0936 22.7711 46.5402 22.3311 46.9402C21.8911 47.3402 21.3711 47.6536 20.7711 47.8802C20.1844 48.0936 19.5511 48.2002 18.8711 48.2002ZM15.0311 42.3002H22.7311C22.6778 41.5402 22.4711 40.8736 22.1111 40.3002C21.7644 39.7269 21.3044 39.2802 20.7311 38.9602C20.1711 38.6269 19.5511 38.4602 18.8711 38.4602C18.1911 38.4602 17.5711 38.6269 17.0111 38.9602C16.4511 39.2802 15.9911 39.7336 15.6311 40.3202C15.2844 40.8936 15.0844 41.5536 15.0311 42.3002ZM32.0694 48.0002V43.6402C31.6427 43.8402 31.196 43.9936 30.7294 44.1002C30.2627 44.1936 29.7627 44.2402 29.2294 44.2402C28.0827 44.2402 27.216 43.9469 26.6294 43.3602C26.056 42.7736 25.7694 41.8736 25.7694 40.6602V37.5802H27.1294V40.4802C27.1294 41.4136 27.316 42.0936 27.6894 42.5202C28.076 42.9469 28.6894 43.1602 29.5294 43.1602C29.996 43.1602 30.4627 43.1069 30.9294 43.0002C31.396 42.8936 31.776 42.7536 32.0694 42.5802V37.5802H33.4294V48.0002H32.0694ZM36.4019 48.0002V37.6002H37.7619V46.1602L44.1019 37.5802H45.3219V48.0002H43.9619V39.5802L37.7219 48.0002H36.4019ZM48.6169 37.5802L51.6769 41.6602L51.8369 41.9602L51.9969 41.6602L55.0369 37.5802H56.5769L52.6169 42.8202L56.5769 48.0002H55.0369L51.9969 43.9402L51.8369 43.6602L51.6769 43.9402L48.6369 48.0002H47.0969L51.0369 42.8202L47.0969 37.5802H48.6169ZM58.355 48.0002V37.6002H59.715V46.1602L66.055 37.5802H67.275V48.0002H65.915V39.5802L59.675 48.0002H58.355ZM70.23 48.0002V37.5802H71.59V42.0602H77.55V37.5802H78.91V48.0002H77.55V43.2802H71.59V48.0002H70.23ZM86.2678 50.7202V46.7602H86.8678C87.2411 46.7602 87.5678 46.6069 87.8478 46.3002C88.1411 45.9936 88.3878 45.5002 88.5878 44.8202C88.8011 44.1269 88.9678 43.2002 89.0878 42.0402C89.2211 40.8802 89.3145 39.4402 89.3678 37.7202L89.4678 33.8002H97.9678V46.7602H99.6678V50.7202H98.4278V48.0002H87.5078V50.7202H86.2678ZM88.8678 46.7602H96.5678V35.0402H90.7478L90.6678 37.8802C90.6278 39.6802 90.5345 41.1869 90.3878 42.4002C90.2545 43.6002 90.0611 44.5536 89.8078 45.2602C89.5545 45.9536 89.2411 46.4536 88.8678 46.7602ZM101.968 48.0002V37.5802H103.368L107.508 44.7602L111.668 37.5802H113.008V48.0002H111.708V39.6202L107.948 46.1402H107.068L103.268 39.6202V48.0002H101.968ZM115.992 48.0002V37.6002H117.352V46.1602L123.692 37.5802H124.912V48.0002H123.552V39.5802L117.312 48.0002H115.992ZM130.487 48.0002V38.8002H126.767V37.5802H135.567V38.8002H131.847V48.0002H130.487ZM142.738 48.2002C141.871 48.2002 141.091 47.9736 140.398 47.5202C139.718 47.0669 139.178 46.5069 138.778 45.8402V52.2602H137.418V37.5802H138.638V39.6002C139.051 38.9469 139.605 38.4202 140.298 38.0202C140.991 37.6069 141.731 37.4002 142.518 37.4002C143.238 37.4002 143.898 37.5536 144.498 37.8602C145.098 38.1536 145.618 38.5536 146.058 39.0602C146.498 39.5669 146.838 40.1469 147.078 40.8002C147.331 41.4402 147.458 42.1069 147.458 42.8002C147.458 43.7736 147.258 44.6736 146.858 45.5002C146.471 46.3136 145.925 46.9669 145.218 47.4602C144.511 47.9536 143.685 48.2002 142.738 48.2002ZM142.358 47.0002C142.931 47.0002 143.445 46.8869 143.898 46.6602C144.351 46.4202 144.738 46.1002 145.058 45.7002C145.391 45.3002 145.645 44.8536 145.818 44.3602C145.991 43.8536 146.078 43.3336 146.078 42.8002C146.078 42.2402 145.978 41.7069 145.778 41.2002C145.591 40.6936 145.318 40.2469 144.958 39.8602C144.598 39.4736 144.185 39.1669 143.718 38.9402C143.251 38.7136 142.745 38.6002 142.198 38.6002C141.851 38.6002 141.491 38.6669 141.118 38.8002C140.745 38.9336 140.385 39.1269 140.038 39.3802C139.705 39.6202 139.425 39.8936 139.198 40.2002C138.971 40.5069 138.831 40.8336 138.778 41.1802V44.3802C138.991 44.8736 139.278 45.3202 139.638 45.7202C139.998 46.1069 140.411 46.4202 140.878 46.6602C141.358 46.8869 141.851 47.0002 142.358 47.0002ZM149.742 48.0002V37.6002H151.102V46.1602L157.442 37.5802H158.662V48.0002H157.302V39.5802L151.062 48.0002H149.742ZM161.617 48.0002V37.6002H162.977V46.1602L169.317 37.5802H170.537V48.0002H169.177V39.5802L162.937 48.0002H161.617ZM166.097 36.2602C165.19 36.2602 164.49 36.0469 163.997 35.6202C163.503 35.1936 163.257 34.6536 163.257 34.0002H164.257C164.257 34.4002 164.403 34.7336 164.697 35.0002C165.003 35.2669 165.47 35.4002 166.097 35.4002C166.71 35.4002 167.157 35.2736 167.437 35.0202C167.73 34.7669 167.897 34.4269 167.937 34.0002H168.917C168.917 34.6536 168.67 35.1936 168.177 35.6202C167.683 36.0469 166.99 36.2602 166.097 36.2602ZM182.664 33.8002H183.844L189.744 48.0002H188.264L186.424 43.5602H180.044L178.224 48.0002H176.724L182.664 33.8002ZM186.104 42.4602L183.244 35.4402L180.344 42.4602H186.104ZM191.48 48.0002V37.5802H192.84V42.0602H198.8V37.5802H200.16V48.0002H198.8V43.2802H192.84V48.0002H191.48ZM202 50.4202V46.7802H202.18C202.487 46.7802 202.767 46.6869 203.02 46.5002C203.273 46.3136 203.5 45.9869 203.7 45.5202C203.9 45.0536 204.06 44.4136 204.18 43.6002C204.3 42.7736 204.38 41.7336 204.42 40.4802L204.52 37.5802H211.3V46.7802H212.7V50.4202H211.48V48.0002H203.2V50.4202H202ZM204.24 46.7802H209.94V38.8002H205.74L205.68 40.6002C205.64 41.8402 205.553 42.8802 205.42 43.7202C205.3 44.5469 205.14 45.2069 204.94 45.7002C204.753 46.1802 204.52 46.5402 204.24 46.7802ZM220.082 48.2002C219.215 48.2002 218.435 47.9736 217.742 47.5202C217.062 47.0669 216.522 46.5069 216.122 45.8402V52.2602H214.762V37.5802H215.982V39.6002C216.395 38.9469 216.948 38.4202 217.642 38.0202C218.335 37.6069 219.075 37.4002 219.862 37.4002C220.582 37.4002 221.242 37.5536 221.842 37.8602C222.442 38.1536 222.962 38.5536 223.402 39.0602C223.842 39.5669 224.182 40.1469 224.422 40.8002C224.675 41.4402 224.802 42.1069 224.802 42.8002C224.802 43.7736 224.602 44.6736 224.202 45.5002C223.815 46.3136 223.268 46.9669 222.562 47.4602C221.855 47.9536 221.028 48.2002 220.082 48.2002ZM219.702 47.0002C220.275 47.0002 220.788 46.8869 221.242 46.6602C221.695 46.4202 222.082 46.1002 222.402 45.7002C222.735 45.3002 222.988 44.8536 223.162 44.3602C223.335 43.8536 223.422 43.3336 223.422 42.8002C223.422 42.2402 223.322 41.7069 223.122 41.2002C222.935 40.6936 222.662 40.2469 222.302 39.8602C221.942 39.4736 221.528 39.1669 221.062 38.9402C220.595 38.7136 220.088 38.6002 219.542 38.6002C219.195 38.6002 218.835 38.6669 218.462 38.8002C218.088 38.9336 217.728 39.1269 217.382 39.3802C217.048 39.6202 216.768 39.8936 216.542 40.2002C216.315 40.5069 216.175 40.8336 216.122 41.1802V44.3802C216.335 44.8736 216.622 45.3202 216.982 45.7202C217.342 46.1069 217.755 46.4202 218.222 46.6602C218.702 46.8869 219.195 47.0002 219.702 47.0002ZM231.605 48.2002C230.859 48.2002 230.165 48.0602 229.525 47.7802C228.885 47.4869 228.332 47.0936 227.865 46.6002C227.399 46.0936 227.032 45.5136 226.765 44.8602C226.512 44.2069 226.385 43.5069 226.385 42.7602C226.385 41.7869 226.605 40.8936 227.045 40.0802C227.499 39.2669 228.119 38.6202 228.905 38.1402C229.692 37.6469 230.585 37.4002 231.585 37.4002C232.612 37.4002 233.505 37.6469 234.265 38.1402C235.039 38.6336 235.645 39.2869 236.085 40.1002C236.525 40.9002 236.745 41.7802 236.745 42.7402C236.745 42.8469 236.745 42.9536 236.745 43.0602C236.745 43.1536 236.739 43.2269 236.725 43.2802H227.805C227.872 44.0269 228.079 44.6936 228.425 45.2802C228.785 45.8536 229.245 46.3136 229.805 46.6602C230.379 46.9936 230.999 47.1602 231.665 47.1602C232.345 47.1602 232.985 46.9869 233.585 46.6402C234.199 46.2936 234.625 45.8402 234.865 45.2802L236.045 45.6002C235.832 46.0936 235.505 46.5402 235.065 46.9402C234.625 47.3402 234.105 47.6536 233.505 47.8802C232.919 48.0936 232.285 48.2002 231.605 48.2002ZM227.765 42.3002H235.465C235.412 41.5402 235.205 40.8736 234.845 40.3002C234.499 39.7269 234.039 39.2802 233.465 38.9602C232.905 38.6269 232.285 38.4602 231.605 38.4602C230.925 38.4602 230.305 38.6269 229.745 38.9602C229.185 39.2802 228.725 39.7336 228.365 40.3202C228.019 40.8936 227.819 41.5536 227.765 42.3002ZM243.344 48.2002C242.597 48.2002 241.904 48.0602 241.264 47.7802C240.624 47.4869 240.07 47.0936 239.604 46.6002C239.137 46.0936 238.77 45.5136 238.504 44.8602C238.25 44.2069 238.124 43.5069 238.124 42.7602C238.124 41.7869 238.344 40.8936 238.784 40.0802C239.237 39.2669 239.857 38.6202 240.644 38.1402C241.43 37.6469 242.324 37.4002 243.324 37.4002C244.35 37.4002 245.244 37.6469 246.004 38.1402C246.777 38.6336 247.384 39.2869 247.824 40.1002C248.264 40.9002 248.484 41.7802 248.484 42.7402C248.484 42.8469 248.484 42.9536 248.484 43.0602C248.484 43.1536 248.477 43.2269 248.464 43.2802H239.544C239.61 44.0269 239.817 44.6936 240.164 45.2802C240.524 45.8536 240.984 46.3136 241.544 46.6602C242.117 46.9936 242.737 47.1602 243.404 47.1602C244.084 47.1602 244.724 46.9869 245.324 46.6402C245.937 46.2936 246.364 45.8402 246.604 45.2802L247.784 45.6002C247.57 46.0936 247.244 46.5402 246.804 46.9402C246.364 47.3402 245.844 47.6536 245.244 47.8802C244.657 48.0936 244.024 48.2002 243.344 48.2002ZM239.504 42.3002H247.204C247.15 41.5402 246.944 40.8736 246.584 40.3002C246.237 39.7269 245.777 39.2802 245.204 38.9602C244.644 38.6269 244.024 38.4602 243.344 38.4602C242.664 38.4602 242.044 38.6269 241.484 38.9602C240.924 39.2802 240.464 39.7336 240.104 40.3202C239.757 40.8936 239.557 41.5536 239.504 42.3002ZM250.562 48.0002V37.5802H255.762C256.349 37.5802 256.842 37.7069 257.242 37.9602C257.642 38.2002 257.942 38.5136 258.142 38.9002C258.355 39.2869 258.462 39.7002 258.462 40.1402C258.462 40.7002 258.329 41.2069 258.062 41.6602C257.795 42.1002 257.409 42.4336 256.902 42.6602C257.502 42.8336 257.989 43.1469 258.362 43.6002C258.735 44.0536 258.922 44.6002 258.922 45.2402C258.922 45.8002 258.782 46.2869 258.502 46.7002C258.235 47.1136 257.862 47.4336 257.382 47.6602C256.915 47.8869 256.375 48.0002 255.762 48.0002H250.562ZM251.862 47.0202H255.722C256.069 47.0202 256.382 46.9336 256.662 46.7602C256.955 46.5736 257.182 46.3336 257.342 46.0402C257.515 45.7469 257.602 45.4402 257.602 45.1202C257.602 44.7736 257.522 44.4602 257.362 44.1802C257.202 43.8869 256.989 43.6536 256.722 43.4802C256.455 43.3069 256.149 43.2202 255.802 43.2202H251.862V47.0202ZM251.862 42.2802H255.402C255.749 42.2802 256.055 42.1869 256.322 42.0002C256.589 41.8136 256.795 41.5736 256.942 41.2802C257.089 40.9869 257.162 40.6802 257.162 40.3602C257.162 39.8802 257.002 39.4602 256.682 39.1002C256.375 38.7402 255.975 38.5602 255.482 38.5602H251.862V42.2802ZM261.265 48.0002V37.6002H262.625V46.1602L268.965 37.5802H270.185V48.0002H268.825V39.5802L262.585 48.0002H261.265ZM279.12 48.0002V43.6402C278.693 43.8402 278.247 43.9936 277.78 44.1002C277.313 44.1936 276.813 44.2402 276.28 44.2402C275.133 44.2402 274.267 43.9469 273.68 43.3602C273.107 42.7736 272.82 41.8736 272.82 40.6602V37.5802H274.18V40.4802C274.18 41.4136 274.367 42.0936 274.74 42.5202C275.127 42.9469 275.74 43.1602 276.58 43.1602C277.047 43.1602 277.513 43.1069 277.98 43.0002C278.447 42.8936 278.827 42.7536 279.12 42.5802V37.5802H280.48V48.0002H279.12Z" fill="#292929"/>
<path d="M726.78 48.0002V33.8002H736.1V35.0402H728.18V40.2602H734.86V41.4202H728.18V48.0002H726.78ZM742.716 38.7802C741.809 38.8069 741.009 39.0602 740.316 39.5402C739.636 40.0202 739.156 40.6802 738.876 41.5202V48.0002H737.516V37.5802H738.796V40.0802C739.156 39.3469 739.629 38.7536 740.216 38.3002C740.816 37.8469 741.449 37.5936 742.116 37.5402C742.249 37.5269 742.362 37.5202 742.456 37.5202C742.562 37.5202 742.649 37.5269 742.716 37.5402V38.7802ZM748.655 48.2002C747.908 48.2002 747.215 48.0602 746.575 47.7802C745.948 47.4869 745.402 47.0936 744.935 46.6002C744.482 46.0936 744.128 45.5202 743.875 44.8802C743.622 44.2269 743.495 43.5402 743.495 42.8202C743.495 42.0736 743.622 41.3802 743.875 40.7402C744.128 40.0869 744.488 39.5136 744.955 39.0202C745.422 38.5136 745.968 38.1202 746.595 37.8402C747.235 37.5469 747.928 37.4002 748.675 37.4002C749.422 37.4002 750.108 37.5469 750.735 37.8402C751.362 38.1202 751.908 38.5136 752.375 39.0202C752.842 39.5136 753.202 40.0869 753.455 40.7402C753.708 41.3802 753.835 42.0736 753.835 42.8202C753.835 43.5402 753.708 44.2269 753.455 44.8802C753.202 45.5202 752.842 46.0936 752.375 46.6002C751.922 47.0936 751.375 47.4869 750.735 47.7802C750.108 48.0602 749.415 48.2002 748.655 48.2002ZM744.875 42.8402C744.875 43.6136 745.042 44.3202 745.375 44.9602C745.722 45.5869 746.182 46.0869 746.755 46.4602C747.328 46.8202 747.962 47.0002 748.655 47.0002C749.348 47.0002 749.982 46.8136 750.555 46.4402C751.128 46.0669 751.588 45.5602 751.935 44.9202C752.282 44.2669 752.455 43.5602 752.455 42.8002C752.455 42.0269 752.282 41.3202 751.935 40.6802C751.588 40.0402 751.128 39.5336 750.555 39.1602C749.982 38.7869 749.348 38.6002 748.655 38.6002C747.962 38.6002 747.328 38.7936 746.755 39.1802C746.195 39.5669 745.742 40.0802 745.395 40.7202C745.048 41.3469 744.875 42.0536 744.875 42.8402ZM764.869 48.0002H763.509V42.1802C763.509 40.9536 763.329 40.0602 762.969 39.5002C762.609 38.9269 762.043 38.6402 761.269 38.6402C760.736 38.6402 760.209 38.7736 759.689 39.0402C759.169 39.2936 758.709 39.6469 758.309 40.1002C757.923 40.5402 757.643 41.0469 757.469 41.6202V48.0002H756.109V37.5802H757.349V39.9402C757.629 39.4336 757.996 38.9936 758.449 38.6202C758.903 38.2336 759.416 37.9336 759.989 37.7202C760.563 37.5069 761.156 37.4002 761.769 37.4002C762.343 37.4002 762.829 37.5069 763.229 37.7202C763.629 37.9336 763.949 38.2402 764.189 38.6402C764.429 39.0269 764.603 39.5002 764.709 40.0602C764.816 40.6069 764.869 41.2202 764.869 41.9002V48.0002ZM772.672 47.5002C772.565 47.5402 772.399 47.6136 772.172 47.7202C771.945 47.8269 771.672 47.9202 771.352 48.0002C771.032 48.0802 770.685 48.1202 770.312 48.1202C769.925 48.1202 769.559 48.0469 769.212 47.9002C768.879 47.7536 768.612 47.5336 768.412 47.2402C768.212 46.9336 768.112 46.5602 768.112 46.1202V38.6602H766.672V37.5802H768.112V34.0602H769.472V37.5802H771.872V38.6602H769.472V45.7402C769.499 46.1136 769.632 46.3936 769.872 46.5802C770.125 46.7669 770.412 46.8602 770.732 46.8602C771.105 46.8602 771.445 46.8002 771.752 46.6802C772.059 46.5469 772.245 46.4536 772.312 46.4002L772.672 47.5002ZM778.695 48.2002C777.949 48.2002 777.255 48.0602 776.615 47.7802C775.975 47.4869 775.422 47.0936 774.955 46.6002C774.489 46.0936 774.122 45.5136 773.855 44.8602C773.602 44.2069 773.475 43.5069 773.475 42.7602C773.475 41.7869 773.695 40.8936 774.135 40.0802C774.589 39.2669 775.209 38.6202 775.995 38.1402C776.782 37.6469 777.675 37.4002 778.675 37.4002C779.702 37.4002 780.595 37.6469 781.355 38.1402C782.129 38.6336 782.735 39.2869 783.175 40.1002C783.615 40.9002 783.835 41.7802 783.835 42.7402C783.835 42.8469 783.835 42.9536 783.835 43.0602C783.835 43.1536 783.829 43.2269 783.815 43.2802H774.895C774.962 44.0269 775.169 44.6936 775.515 45.2802C775.875 45.8536 776.335 46.3136 776.895 46.6602C777.469 46.9936 778.089 47.1602 778.755 47.1602C779.435 47.1602 780.075 46.9869 780.675 46.6402C781.289 46.2936 781.715 45.8402 781.955 45.2802L783.135 45.6002C782.922 46.0936 782.595 46.5402 782.155 46.9402C781.715 47.3402 781.195 47.6536 780.595 47.8802C780.009 48.0936 779.375 48.2002 778.695 48.2002ZM774.855 42.3002H782.555C782.502 41.5402 782.295 40.8736 781.935 40.3002C781.589 39.7269 781.129 39.2802 780.555 38.9602C779.995 38.6269 779.375 38.4602 778.695 38.4602C778.015 38.4602 777.395 38.6269 776.835 38.9602C776.275 39.2802 775.815 39.7336 775.455 40.3202C775.109 40.8936 774.909 41.5536 774.855 42.3002ZM794.694 48.0002H793.334V42.1802C793.334 40.9536 793.154 40.0602 792.794 39.5002C792.434 38.9269 791.867 38.6402 791.094 38.6402C790.56 38.6402 790.034 38.7736 789.514 39.0402C788.994 39.2936 788.534 39.6469 788.134 40.1002C787.747 40.5402 787.467 41.0469 787.294 41.6202V48.0002H785.934V37.5802H787.174V39.9402C787.454 39.4336 787.82 38.9936 788.274 38.6202C788.727 38.2336 789.24 37.9336 789.814 37.7202C790.387 37.5069 790.98 37.4002 791.594 37.4002C792.167 37.4002 792.654 37.5069 793.054 37.7202C793.454 37.9336 793.774 38.2402 794.014 38.6402C794.254 39.0269 794.427 39.5002 794.534 40.0602C794.64 40.6069 794.694 41.2202 794.694 41.9002V48.0002ZM796.894 42.8202C796.894 41.8336 797.094 40.9336 797.494 40.1202C797.907 39.2936 798.474 38.6336 799.194 38.1402C799.914 37.6469 800.734 37.4002 801.654 37.4002C802.52 37.4002 803.294 37.6336 803.974 38.1002C804.667 38.5536 805.207 39.1069 805.594 39.7602V33.4002H806.954V46.3602C806.954 46.5469 806.994 46.6869 807.074 46.7802C807.154 46.8602 807.274 46.9069 807.434 46.9202V48.0002C807.167 48.0402 806.96 48.0536 806.814 48.0402C806.534 48.0269 806.287 47.9136 806.074 47.7002C805.86 47.4869 805.754 47.2536 805.754 47.0002V45.9802C805.34 46.6602 804.78 47.2002 804.074 47.6002C803.367 48.0002 802.634 48.2002 801.874 48.2002C801.154 48.2002 800.487 48.0536 799.874 47.7602C799.274 47.4669 798.747 47.0669 798.294 46.5602C797.854 46.0536 797.507 45.4802 797.254 44.8402C797.014 44.1869 796.894 43.5136 796.894 42.8202ZM805.594 44.4202V41.2002C805.42 40.7202 805.14 40.2869 804.754 39.9002C804.367 39.5002 803.927 39.1869 803.434 38.9602C802.954 38.7202 802.474 38.6002 801.994 38.6002C801.434 38.6002 800.927 38.7202 800.474 38.9602C800.02 39.1869 799.627 39.5002 799.294 39.9002C798.974 40.3002 798.727 40.7536 798.554 41.2602C798.38 41.7669 798.294 42.2869 798.294 42.8202C798.294 43.3802 798.387 43.9136 798.574 44.4202C798.774 44.9269 799.054 45.3802 799.414 45.7802C799.774 46.1669 800.187 46.4669 800.654 46.6802C801.12 46.8936 801.627 47.0002 802.174 47.0002C802.52 47.0002 802.88 46.9336 803.254 46.8002C803.627 46.6669 803.98 46.4869 804.314 46.2602C804.66 46.0202 804.947 45.7402 805.174 45.4202C805.4 45.1002 805.54 44.7669 805.594 44.4202ZM809.835 43.1802V41.9202H815.675V43.1802H809.835ZM823.793 48.2002C822.926 48.2002 822.146 47.9736 821.453 47.5202C820.773 47.0669 820.233 46.5069 819.833 45.8402V52.2602H818.473V37.5802H819.693V39.6002C820.106 38.9469 820.659 38.4202 821.353 38.0202C822.046 37.6069 822.786 37.4002 823.573 37.4002C824.293 37.4002 824.953 37.5536 825.553 37.8602C826.153 38.1536 826.673 38.5536 827.113 39.0602C827.553 39.5669 827.893 40.1469 828.133 40.8002C828.386 41.4402 828.513 42.1069 828.513 42.8002C828.513 43.7736 828.313 44.6736 827.913 45.5002C827.526 46.3136 826.979 46.9669 826.273 47.4602C825.566 47.9536 824.739 48.2002 823.793 48.2002ZM823.413 47.0002C823.986 47.0002 824.499 46.8869 824.953 46.6602C825.406 46.4202 825.793 46.1002 826.113 45.7002C826.446 45.3002 826.699 44.8536 826.873 44.3602C827.046 43.8536 827.133 43.3336 827.133 42.8002C827.133 42.2402 827.033 41.7069 826.833 41.2002C826.646 40.6936 826.373 40.2469 826.013 39.8602C825.653 39.4736 825.239 39.1669 824.773 38.9402C824.306 38.7136 823.799 38.6002 823.253 38.6002C822.906 38.6002 822.546 38.6669 822.173 38.8002C821.799 38.9336 821.439 39.1269 821.093 39.3802C820.759 39.6202 820.479 39.8936 820.253 40.2002C820.026 40.5069 819.886 40.8336 819.833 41.1802V44.3802C820.046 44.8736 820.333 45.3202 820.693 45.7202C821.053 46.1069 821.466 46.4202 821.933 46.6602C822.413 46.8869 822.906 47.0002 823.413 47.0002ZM829.976 45.0002C829.976 44.3469 830.163 43.7869 830.536 43.3202C830.91 42.8402 831.423 42.4736 832.076 42.2202C832.743 41.9536 833.51 41.8202 834.376 41.8202C834.883 41.8202 835.41 41.8602 835.956 41.9402C836.503 42.0202 836.99 42.1402 837.416 42.3002V41.4202C837.416 40.5402 837.156 39.8402 836.636 39.3202C836.116 38.8002 835.396 38.5402 834.476 38.5402C833.916 38.5402 833.363 38.6469 832.816 38.8602C832.283 39.0602 831.723 39.3602 831.136 39.7602L830.616 38.8002C831.296 38.3336 831.963 37.9869 832.616 37.7602C833.27 37.5202 833.936 37.4002 834.616 37.4002C835.896 37.4002 836.91 37.7669 837.656 38.5002C838.403 39.2336 838.776 40.2469 838.776 41.5402V46.3602C838.776 46.5469 838.816 46.6869 838.896 46.7802C838.976 46.8602 839.103 46.9069 839.276 46.9202V48.0002C839.13 48.0136 839.003 48.0269 838.896 48.0402C838.79 48.0536 838.71 48.0536 838.656 48.0402C838.323 48.0269 838.07 47.9202 837.896 47.7202C837.723 47.5202 837.63 47.3069 837.616 47.0802L837.596 46.3202C837.13 46.9202 836.523 47.3869 835.776 47.7202C835.03 48.0402 834.27 48.2002 833.496 48.2002C832.83 48.2002 832.223 48.0602 831.676 47.7802C831.143 47.4869 830.723 47.1002 830.416 46.6202C830.123 46.1269 829.976 45.5869 829.976 45.0002ZM836.956 45.8002C837.103 45.6136 837.216 45.4336 837.296 45.2602C837.376 45.0869 837.416 44.9336 837.416 44.8002V43.2802C836.963 43.1069 836.49 42.9736 835.996 42.8802C835.516 42.7869 835.03 42.7402 834.536 42.7402C833.563 42.7402 832.776 42.9336 832.176 43.3202C831.576 43.7069 831.276 44.2336 831.276 44.9002C831.276 45.2869 831.376 45.6536 831.576 46.0002C831.776 46.3336 832.07 46.6136 832.456 46.8402C832.843 47.0536 833.296 47.1602 833.816 47.1602C834.47 47.1602 835.076 47.0336 835.636 46.7802C836.21 46.5269 836.65 46.2002 836.956 45.8002ZM844.735 48.1202C843.775 48.1202 842.955 47.9402 842.275 47.5802C841.595 47.2069 841.075 46.6869 840.715 46.0202L841.835 45.5202C842.088 45.9869 842.455 46.3536 842.935 46.6202C843.415 46.8736 843.995 47.0002 844.675 47.0002C845.488 47.0002 846.135 46.8136 846.615 46.4402C847.108 46.0669 847.355 45.5669 847.355 44.9402C847.355 44.3669 847.162 43.9069 846.775 43.5602C846.388 43.2136 845.855 43.0336 845.175 43.0202H844.115V42.0802H845.255C845.548 42.0802 845.815 42.0002 846.055 41.8402C846.295 41.6802 846.482 41.4669 846.615 41.2002C846.748 40.9336 846.815 40.6336 846.815 40.3002C846.815 39.7802 846.628 39.3602 846.255 39.0402C845.895 38.7202 845.362 38.5602 844.655 38.5602C844.068 38.5602 843.575 38.6802 843.175 38.9202C842.788 39.1469 842.475 39.4869 842.235 39.9402L841.195 39.3802C841.502 38.7669 841.955 38.2869 842.555 37.9402C843.168 37.5936 843.882 37.4202 844.695 37.4202C845.362 37.4202 845.942 37.5336 846.435 37.7602C846.942 37.9736 847.335 38.2869 847.615 38.7002C847.908 39.1002 848.055 39.5869 848.055 40.1602C848.055 40.6536 847.935 41.1136 847.695 41.5402C847.455 41.9536 847.122 42.2669 846.695 42.4802C847.308 42.6669 847.782 42.9936 848.115 43.4602C848.462 43.9269 848.635 44.4736 848.635 45.1002C848.635 45.7269 848.468 46.2669 848.135 46.7202C847.802 47.1736 847.342 47.5202 846.755 47.7602C846.168 48.0002 845.495 48.1202 844.735 48.1202ZM856.234 48.2002C855.367 48.2002 854.587 47.9736 853.894 47.5202C853.214 47.0669 852.674 46.5069 852.274 45.8402V52.2602H850.914V37.5802H852.134V39.6002C852.547 38.9469 853.101 38.4202 853.794 38.0202C854.487 37.6069 855.227 37.4002 856.014 37.4002C856.734 37.4002 857.394 37.5536 857.994 37.8602C858.594 38.1536 859.114 38.5536 859.554 39.0602C859.994 39.5669 860.334 40.1469 860.574 40.8002C860.827 41.4402 860.954 42.1069 860.954 42.8002C860.954 43.7736 860.754 44.6736 860.354 45.5002C859.967 46.3136 859.421 46.9669 858.714 47.4602C858.007 47.9536 857.181 48.2002 856.234 48.2002ZM855.854 47.0002C856.427 47.0002 856.941 46.8869 857.394 46.6602C857.847 46.4202 858.234 46.1002 858.554 45.7002C858.887 45.3002 859.141 44.8536 859.314 44.3602C859.487 43.8536 859.574 43.3336 859.574 42.8002C859.574 42.2402 859.474 41.7069 859.274 41.2002C859.087 40.6936 858.814 40.2469 858.454 39.8602C858.094 39.4736 857.681 39.1669 857.214 38.9402C856.747 38.7136 856.241 38.6002 855.694 38.6002C855.347 38.6002 854.987 38.6669 854.614 38.8002C854.241 38.9336 853.881 39.1269 853.534 39.3802C853.201 39.6202 852.921 39.8936 852.694 40.2002C852.467 40.5069 852.327 40.8336 852.274 41.1802V44.3802C852.487 44.8736 852.774 45.3202 853.134 45.7202C853.494 46.1069 853.907 46.4202 854.374 46.6602C854.854 46.8869 855.347 47.0002 855.854 47.0002ZM862.418 45.0002C862.418 44.3469 862.604 43.7869 862.978 43.3202C863.351 42.8402 863.864 42.4736 864.518 42.2202C865.184 41.9536 865.951 41.8202 866.818 41.8202C867.324 41.8202 867.851 41.8602 868.398 41.9402C868.944 42.0202 869.431 42.1402 869.858 42.3002V41.4202C869.858 40.5402 869.598 39.8402 869.078 39.3202C868.558 38.8002 867.838 38.5402 866.918 38.5402C866.358 38.5402 865.804 38.6469 865.258 38.8602C864.724 39.0602 864.164 39.3602 863.578 39.7602L863.058 38.8002C863.738 38.3336 864.404 37.9869 865.058 37.7602C865.711 37.5202 866.378 37.4002 867.058 37.4002C868.338 37.4002 869.351 37.7669 870.098 38.5002C870.844 39.2336 871.218 40.2469 871.218 41.5402V46.3602C871.218 46.5469 871.258 46.6869 871.338 46.7802C871.418 46.8602 871.544 46.9069 871.718 46.9202V48.0002C871.571 48.0136 871.444 48.0269 871.338 48.0402C871.231 48.0536 871.151 48.0536 871.098 48.0402C870.764 48.0269 870.511 47.9202 870.338 47.7202C870.164 47.5202 870.071 47.3069 870.058 47.0802L870.038 46.3202C869.571 46.9202 868.964 47.3869 868.218 47.7202C867.471 48.0402 866.711 48.2002 865.938 48.2002C865.271 48.2002 864.664 48.0602 864.118 47.7802C863.584 47.4869 863.164 47.1002 862.858 46.6202C862.564 46.1269 862.418 45.5869 862.418 45.0002ZM869.398 45.8002C869.544 45.6136 869.658 45.4336 869.738 45.2602C869.818 45.0869 869.858 44.9336 869.858 44.8002V43.2802C869.404 43.1069 868.931 42.9736 868.438 42.8802C867.958 42.7869 867.471 42.7402 866.978 42.7402C866.004 42.7402 865.218 42.9336 864.618 43.3202C864.018 43.7069 863.718 44.2336 863.718 44.9002C863.718 45.2869 863.818 45.6536 864.018 46.0002C864.218 46.3336 864.511 46.6136 864.898 46.8402C865.284 47.0536 865.738 47.1602 866.258 47.1602C866.911 47.1602 867.518 47.0336 868.078 46.7802C868.651 46.5269 869.091 46.2002 869.398 45.8002ZM878.936 48.2002C877.256 48.2002 875.983 47.6869 875.116 46.6602C874.263 45.6202 873.836 44.1869 873.836 42.3602C873.836 41.0669 873.943 39.9736 874.156 39.0802C874.37 38.1869 874.683 37.4536 875.096 36.8802C875.51 36.2936 876.016 35.8136 876.616 35.4402C877.23 35.0669 877.93 34.7602 878.716 34.5202L883.096 33.0802L883.216 34.2602L878.996 35.6402C878.196 35.9069 877.53 36.2469 876.996 36.6602C876.463 37.0736 876.043 37.6002 875.736 38.2402C875.443 38.8669 875.25 39.6869 875.156 40.7002C875.503 39.9269 876.036 39.3336 876.756 38.9202C877.476 38.4936 878.31 38.2802 879.256 38.2802C880.27 38.2802 881.13 38.4869 881.836 38.9002C882.556 39.3136 883.103 39.8869 883.476 40.6202C883.85 41.3536 884.036 42.2002 884.036 43.1602C884.036 44.1736 883.836 45.0602 883.436 45.8202C883.05 46.5669 882.476 47.1536 881.716 47.5802C880.97 47.9936 880.043 48.2002 878.936 48.2002ZM878.936 47.0002C880.123 47.0002 881.036 46.6602 881.676 45.9802C882.33 45.2869 882.656 44.3669 882.656 43.2202C882.656 42.1002 882.336 41.1869 881.696 40.4802C881.07 39.7736 880.15 39.4202 878.936 39.4202C878.243 39.4202 877.616 39.5669 877.056 39.8602C876.496 40.1536 876.05 40.5802 875.716 41.1402C875.396 41.7002 875.236 42.3936 875.236 43.2202C875.236 43.9402 875.376 44.5869 875.656 45.1602C875.95 45.7336 876.37 46.1869 876.916 46.5202C877.463 46.8402 878.136 47.0002 878.936 47.0002ZM890.764 48.2002C890.018 48.2002 889.324 48.0602 888.684 47.7802C888.058 47.4869 887.511 47.0936 887.044 46.6002C886.591 46.0936 886.238 45.5202 885.984 44.8802C885.731 44.2269 885.604 43.5402 885.604 42.8202C885.604 42.0736 885.731 41.3802 885.984 40.7402C886.238 40.0869 886.598 39.5136 887.064 39.0202C887.531 38.5136 888.078 38.1202 888.704 37.8402C889.344 37.5469 890.038 37.4002 890.784 37.4002C891.531 37.4002 892.218 37.5469 892.844 37.8402C893.471 38.1202 894.018 38.5136 894.484 39.0202C894.951 39.5136 895.311 40.0869 895.564 40.7402C895.818 41.3802 895.944 42.0736 895.944 42.8202C895.944 43.5402 895.818 44.2269 895.564 44.8802C895.311 45.5202 894.951 46.0936 894.484 46.6002C894.031 47.0936 893.484 47.4869 892.844 47.7802C892.218 48.0602 891.524 48.2002 890.764 48.2002ZM886.984 42.8402C886.984 43.6136 887.151 44.3202 887.484 44.9602C887.831 45.5869 888.291 46.0869 888.864 46.4602C889.438 46.8202 890.071 47.0002 890.764 47.0002C891.458 47.0002 892.091 46.8136 892.664 46.4402C893.238 46.0669 893.698 45.5602 894.044 44.9202C894.391 44.2669 894.564 43.5602 894.564 42.8002C894.564 42.0269 894.391 41.3202 894.044 40.6802C893.698 40.0402 893.238 39.5336 892.664 39.1602C892.091 38.7869 891.458 38.6002 890.764 38.6002C890.071 38.6002 889.438 38.7936 888.864 39.1802C888.304 39.5669 887.851 40.0802 887.504 40.7202C887.158 41.3469 886.984 42.0536 886.984 42.8402ZM900.819 48.0002V38.8002H897.099V37.5802H905.899V38.8002H902.179V48.0002H900.819ZM913.71 48.0002V43.6402C913.283 43.8402 912.837 43.9936 912.37 44.1002C911.903 44.1936 911.403 44.2402 910.87 44.2402C909.723 44.2402 908.857 43.9469 908.27 43.3602C907.697 42.7736 907.41 41.8736 907.41 40.6602V37.5802H908.77V40.4802C908.77 41.4136 908.957 42.0936 909.33 42.5202C909.717 42.9469 910.33 43.1602 911.17 43.1602C911.637 43.1602 912.103 43.1069 912.57 43.0002C913.037 42.8936 913.417 42.7536 913.71 42.5802V37.5802H915.07V48.0002H913.71ZM918.043 48.0002V37.6002H919.403V46.1602L925.743 37.5802H926.963V48.0002H925.603V39.5802L919.363 48.0002H918.043ZM929.918 48.0002V37.5802H931.278V42.0402H932.838L936.338 37.5802H937.898L933.918 42.6402L938.398 48.0002H936.798L932.838 43.3002H931.278V48.0002H929.918Z" fill="#292929"/>
<path d="M1134.26 40.3402V41.4602H1131.78V44.1602H1130.52V41.4602H1128.04V40.3402H1130.52V37.6402H1131.78V40.3402H1134.26ZM1143.15 37.6002H1135.49V36.3402H1145.31L1138.13 50.5402H1136.57L1143.15 37.6002ZM1151.33 41.4602C1151.33 40.5536 1151.55 39.7336 1151.99 39.0002C1152.45 38.2669 1153.05 37.6802 1153.81 37.2402C1154.59 36.8002 1155.44 36.5802 1156.37 36.5802C1157.37 36.5802 1158.25 36.8202 1159.01 37.3002C1159.79 37.7669 1160.39 38.4469 1160.81 39.3402C1161.25 40.2202 1161.47 41.2802 1161.47 42.5202C1161.47 44.4536 1161.25 46.0536 1160.81 47.3202C1160.37 48.5736 1159.76 49.5136 1158.97 50.1402C1158.19 50.7669 1157.27 51.0802 1156.23 51.0802C1155.3 51.0802 1154.45 50.8402 1153.69 50.3602C1152.95 49.8936 1152.38 49.2536 1151.99 48.4402L1152.87 47.6402C1153.15 48.3069 1153.6 48.8469 1154.21 49.2602C1154.83 49.6736 1155.5 49.8802 1156.23 49.8802C1157.03 49.8802 1157.72 49.6336 1158.29 49.1402C1158.88 48.6469 1159.33 47.9402 1159.65 47.0202C1159.99 46.1002 1160.16 44.9869 1160.17 43.6802C1159.99 44.1869 1159.69 44.6402 1159.29 45.0402C1158.89 45.4269 1158.43 45.7269 1157.91 45.9402C1157.39 46.1536 1156.83 46.2602 1156.21 46.2602C1155.32 46.2602 1154.5 46.0469 1153.75 45.6202C1153.01 45.1936 1152.41 44.6202 1151.97 43.9002C1151.55 43.1669 1151.33 42.3536 1151.33 41.4602ZM1156.35 37.7802C1155.67 37.7802 1155.05 37.9469 1154.49 38.2802C1153.93 38.6136 1153.48 39.0602 1153.13 39.6202C1152.8 40.1669 1152.63 40.7802 1152.63 41.4602C1152.63 42.1269 1152.8 42.7402 1153.13 43.3002C1153.48 43.8602 1153.93 44.3069 1154.49 44.6402C1155.07 44.9736 1155.69 45.1402 1156.35 45.1402C1157.03 45.1402 1157.65 44.9736 1158.21 44.6402C1158.77 44.3069 1159.22 43.8602 1159.55 43.3002C1159.89 42.7402 1160.05 42.1269 1160.05 41.4602C1160.05 40.7936 1159.89 40.1802 1159.55 39.6202C1159.22 39.0602 1158.77 38.6136 1158.19 38.2802C1157.63 37.9469 1157.02 37.7802 1156.35 37.7802ZM1169.19 43.2802C1169.79 43.3736 1170.31 43.5869 1170.73 43.9202C1171.16 44.2536 1171.49 44.6736 1171.73 45.1802C1171.97 45.6869 1172.09 46.2602 1172.09 46.9002C1172.09 47.7002 1171.9 48.4069 1171.51 49.0202C1171.13 49.6336 1170.59 50.1069 1169.89 50.4402C1169.2 50.7736 1168.39 50.9402 1167.47 50.9402C1166.46 50.9402 1165.57 50.7336 1164.81 50.3202C1164.05 49.9202 1163.48 49.3602 1163.09 48.6402L1164.03 47.7802C1164.33 48.3536 1164.76 48.8136 1165.33 49.1602C1165.91 49.5202 1166.62 49.7002 1167.47 49.7002C1168.46 49.7002 1169.24 49.4536 1169.81 48.9602C1170.4 48.4802 1170.69 47.7869 1170.69 46.8802C1170.69 45.9736 1170.39 45.2536 1169.77 44.7202C1169.17 44.1736 1168.31 43.9002 1167.19 43.9002H1166.69V42.7402H1167.23C1168.26 42.7402 1169.05 42.5002 1169.59 42.0202C1170.14 41.5402 1170.41 40.9269 1170.41 40.1802C1170.41 39.6336 1170.29 39.1802 1170.03 38.8202C1169.78 38.4602 1169.43 38.1869 1168.99 38.0002C1168.57 37.8136 1168.07 37.7202 1167.51 37.7202C1166.75 37.7202 1166.08 37.8936 1165.49 38.2402C1164.92 38.5736 1164.49 39.0402 1164.19 39.6402L1163.31 38.8002C1163.54 38.3336 1163.87 37.9269 1164.29 37.5802C1164.72 37.2336 1165.22 36.9669 1165.79 36.7802C1166.37 36.5802 1166.98 36.4802 1167.63 36.4802C1168.46 36.4802 1169.19 36.6336 1169.81 36.9402C1170.44 37.2336 1170.93 37.6469 1171.29 38.1802C1171.65 38.7136 1171.83 39.3402 1171.83 40.0602C1171.83 40.5936 1171.73 41.0869 1171.51 41.5402C1171.3 41.9936 1170.99 42.3736 1170.59 42.6802C1170.21 42.9869 1169.74 43.1869 1169.19 43.2802ZM1180.14 50.5402V46.9802H1173.48V45.7802L1180.58 36.5802H1181.5V45.7402H1183.26V46.9802H1181.5V50.5402H1180.14ZM1174.92 45.7402H1180.28V38.7202L1174.92 45.7402ZM1195.89 43.2802C1196.49 43.3736 1197 43.5869 1197.43 43.9202C1197.86 44.2536 1198.19 44.6736 1198.43 45.1802C1198.67 45.6869 1198.79 46.2602 1198.79 46.9002C1198.79 47.7002 1198.6 48.4069 1198.21 49.0202C1197.82 49.6336 1197.28 50.1069 1196.59 50.4402C1195.9 50.7736 1195.09 50.9402 1194.17 50.9402C1193.16 50.9402 1192.27 50.7336 1191.51 50.3202C1190.75 49.9202 1190.18 49.3602 1189.79 48.6402L1190.73 47.7802C1191.02 48.3536 1191.46 48.8136 1192.03 49.1602C1192.6 49.5202 1193.32 49.7002 1194.17 49.7002C1195.16 49.7002 1195.94 49.4536 1196.51 48.9602C1197.1 48.4802 1197.39 47.7869 1197.39 46.8802C1197.39 45.9736 1197.08 45.2536 1196.47 44.7202C1195.87 44.1736 1195.01 43.9002 1193.89 43.9002H1193.39V42.7402H1193.93C1194.96 42.7402 1195.74 42.5002 1196.29 42.0202C1196.84 41.5402 1197.11 40.9269 1197.11 40.1802C1197.11 39.6336 1196.98 39.1802 1196.73 38.8202C1196.48 38.4602 1196.13 38.1869 1195.69 38.0002C1195.26 37.8136 1194.77 37.7202 1194.21 37.7202C1193.45 37.7202 1192.78 37.8936 1192.19 38.2402C1191.62 38.5736 1191.18 39.0402 1190.89 39.6402L1190.01 38.8002C1190.24 38.3336 1190.56 37.9269 1190.99 37.5802C1191.42 37.2336 1191.92 36.9669 1192.49 36.7802C1193.06 36.5802 1193.68 36.4802 1194.33 36.4802C1195.16 36.4802 1195.88 36.6336 1196.51 36.9402C1197.14 37.2336 1197.63 37.6469 1197.99 38.1802C1198.35 38.7136 1198.53 39.3402 1198.53 40.0602C1198.53 40.5936 1198.42 41.0869 1198.21 41.5402C1198 41.9936 1197.69 42.3736 1197.29 42.6802C1196.9 42.9869 1196.44 43.1869 1195.89 43.2802ZM1206.83 50.5402V46.9802H1200.17V45.7802L1207.27 36.5802H1208.19V45.7402H1209.95V46.9802H1208.19V50.5402H1206.83ZM1201.61 45.7402H1206.97V38.7202L1201.61 45.7402ZM1211.35 41.4602C1211.35 40.5536 1211.57 39.7336 1212.01 39.0002C1212.47 38.2669 1213.07 37.6802 1213.83 37.2402C1214.61 36.8002 1215.46 36.5802 1216.39 36.5802C1217.39 36.5802 1218.27 36.8202 1219.03 37.3002C1219.81 37.7669 1220.41 38.4469 1220.83 39.3402C1221.27 40.2202 1221.49 41.2802 1221.49 42.5202C1221.49 44.4536 1221.27 46.0536 1220.83 47.3202C1220.39 48.5736 1219.78 49.5136 1218.99 50.1402C1218.21 50.7669 1217.29 51.0802 1216.25 51.0802C1215.32 51.0802 1214.47 50.8402 1213.71 50.3602C1212.97 49.8936 1212.4 49.2536 1212.01 48.4402L1212.89 47.6402C1213.17 48.3069 1213.62 48.8469 1214.23 49.2602C1214.85 49.6736 1215.52 49.8802 1216.25 49.8802C1217.05 49.8802 1217.74 49.6336 1218.31 49.1402C1218.9 48.6469 1219.35 47.9402 1219.67 47.0202C1220.01 46.1002 1220.18 44.9869 1220.19 43.6802C1220.01 44.1869 1219.71 44.6402 1219.31 45.0402C1218.91 45.4269 1218.45 45.7269 1217.93 45.9402C1217.41 46.1536 1216.85 46.2602 1216.23 46.2602C1215.34 46.2602 1214.52 46.0469 1213.77 45.6202C1213.03 45.1936 1212.43 44.6202 1211.99 43.9002C1211.57 43.1669 1211.35 42.3536 1211.35 41.4602ZM1216.37 37.7802C1215.69 37.7802 1215.07 37.9469 1214.51 38.2802C1213.95 38.6136 1213.5 39.0602 1213.15 39.6202C1212.82 40.1669 1212.65 40.7802 1212.65 41.4602C1212.65 42.1269 1212.82 42.7402 1213.15 43.3002C1213.5 43.8602 1213.95 44.3069 1214.51 44.6402C1215.09 44.9736 1215.71 45.1402 1216.37 45.1402C1217.05 45.1402 1217.67 44.9736 1218.23 44.6402C1218.79 44.3069 1219.24 43.8602 1219.57 43.3002C1219.91 42.7402 1220.07 42.1269 1220.07 41.4602C1220.07 40.7936 1219.91 40.1802 1219.57 39.6202C1219.24 39.0602 1218.79 38.6136 1218.21 38.2802C1217.65 37.9469 1217.04 37.7802 1216.37 37.7802ZM1223.65 43.1802V41.9202H1229.49V43.1802H1223.65ZM1237.77 50.5402V46.9802H1231.11V45.7802L1238.21 36.5802H1239.13V45.7402H1240.89V46.9802H1239.13V50.5402H1237.77ZM1232.55 45.7402H1237.91V38.7202L1232.55 45.7402ZM1248.43 43.2802C1249.03 43.3736 1249.54 43.5869 1249.97 43.9202C1250.4 44.2536 1250.73 44.6736 1250.97 45.1802C1251.21 45.6869 1251.33 46.2602 1251.33 46.9002C1251.33 47.7002 1251.14 48.4069 1250.75 49.0202C1250.36 49.6336 1249.82 50.1069 1249.13 50.4402C1248.44 50.7736 1247.63 50.9402 1246.71 50.9402C1245.7 50.9402 1244.81 50.7336 1244.05 50.3202C1243.29 49.9202 1242.72 49.3602 1242.33 48.6402L1243.27 47.7802C1243.56 48.3536 1244 48.8136 1244.57 49.1602C1245.14 49.5202 1245.86 49.7002 1246.71 49.7002C1247.7 49.7002 1248.48 49.4536 1249.05 48.9602C1249.64 48.4802 1249.93 47.7869 1249.93 46.8802C1249.93 45.9736 1249.62 45.2536 1249.01 44.7202C1248.41 44.1736 1247.55 43.9002 1246.43 43.9002H1245.93V42.7402H1246.47C1247.5 42.7402 1248.28 42.5002 1248.83 42.0202C1249.38 41.5402 1249.65 40.9269 1249.65 40.1802C1249.65 39.6336 1249.52 39.1802 1249.27 38.8202C1249.02 38.4602 1248.67 38.1869 1248.23 38.0002C1247.8 37.8136 1247.31 37.7202 1246.75 37.7202C1245.99 37.7202 1245.32 37.8936 1244.73 38.2402C1244.16 38.5736 1243.72 39.0402 1243.43 39.6402L1242.55 38.8002C1242.78 38.3336 1243.1 37.9269 1243.53 37.5802C1243.96 37.2336 1244.46 36.9669 1245.03 36.7802C1245.6 36.5802 1246.22 36.4802 1246.87 36.4802C1247.7 36.4802 1248.42 36.6336 1249.05 36.9402C1249.68 37.2336 1250.17 37.6469 1250.53 38.1802C1250.89 38.7136 1251.07 39.3402 1251.07 40.0602C1251.07 40.5936 1250.96 41.0869 1250.75 41.5402C1250.54 41.9936 1250.23 42.3736 1249.83 42.6802C1249.44 42.9869 1248.98 43.1869 1248.43 43.2802ZM1253.55 43.1802V41.9202H1259.39V43.1802H1253.55ZM1261.49 48.0002C1261.49 47.5469 1261.53 47.0936 1261.61 46.6402C1261.69 46.1736 1261.85 45.7136 1262.07 45.2602C1262.3 44.8069 1262.63 44.3736 1263.07 43.9602C1263.51 43.5336 1264.09 43.1336 1264.81 42.7602C1265.2 42.5602 1265.6 42.3669 1266.01 42.1802C1266.43 41.9802 1266.81 41.7669 1267.17 41.5402C1267.55 41.3002 1267.84 41.0336 1268.05 40.7402C1268.28 40.4336 1268.39 40.0736 1268.39 39.6602C1268.39 39.3269 1268.29 39.0002 1268.09 38.6802C1267.91 38.3602 1267.61 38.1002 1267.21 37.9002C1266.83 37.7002 1266.34 37.6002 1265.75 37.6002C1265.33 37.6002 1264.94 37.6602 1264.59 37.7802C1264.25 37.9002 1263.94 38.0536 1263.67 38.2402C1263.41 38.4136 1263.18 38.5936 1262.99 38.7802C1262.81 38.9536 1262.65 39.1002 1262.53 39.2202L1261.67 38.2802C1261.74 38.2002 1261.89 38.0602 1262.11 37.8602C1262.35 37.6469 1262.65 37.4269 1263.01 37.2002C1263.39 36.9736 1263.82 36.7802 1264.31 36.6202C1264.82 36.4602 1265.37 36.3802 1265.97 36.3802C1266.79 36.3802 1267.48 36.5269 1268.05 36.8202C1268.64 37.1002 1269.09 37.4802 1269.39 37.9602C1269.7 38.4402 1269.85 38.9602 1269.85 39.5202C1269.85 40.0669 1269.73 40.5402 1269.49 40.9402C1269.27 41.3269 1268.97 41.6669 1268.59 41.9602C1268.23 42.2402 1267.85 42.4869 1267.45 42.7002C1267.07 42.9002 1266.71 43.0736 1266.39 43.2202C1265.77 43.5136 1265.24 43.8069 1264.81 44.1002C1264.39 44.3936 1264.05 44.6936 1263.79 45.0002C1263.54 45.2936 1263.34 45.5869 1263.19 45.8802C1263.06 46.1602 1262.97 46.4536 1262.91 46.7602H1270.07V48.0002H1261.49ZM1277.9 43.2802C1278.5 43.3736 1279.02 43.5869 1279.44 43.9202C1279.87 44.2536 1280.2 44.6736 1280.44 45.1802C1280.68 45.6869 1280.8 46.2602 1280.8 46.9002C1280.8 47.7002 1280.61 48.4069 1280.22 49.0202C1279.84 49.6336 1279.3 50.1069 1278.6 50.4402C1277.91 50.7736 1277.1 50.9402 1276.18 50.9402C1275.17 50.9402 1274.28 50.7336 1273.52 50.3202C1272.76 49.9202 1272.19 49.3602 1271.8 48.6402L1272.74 47.7802C1273.04 48.3536 1273.47 48.8136 1274.04 49.1602C1274.62 49.5202 1275.33 49.7002 1276.18 49.7002C1277.17 49.7002 1277.95 49.4536 1278.52 48.9602C1279.11 48.4802 1279.4 47.7869 1279.4 46.8802C1279.4 45.9736 1279.1 45.2536 1278.48 44.7202C1277.88 44.1736 1277.02 43.9002 1275.9 43.9002H1275.4V42.7402H1275.94C1276.97 42.7402 1277.76 42.5002 1278.3 42.0202C1278.85 41.5402 1279.12 40.9269 1279.12 40.1802C1279.12 39.6336 1279 39.1802 1278.74 38.8202C1278.49 38.4602 1278.14 38.1869 1277.7 38.0002C1277.28 37.8136 1276.78 37.7202 1276.22 37.7202C1275.46 37.7202 1274.79 37.8936 1274.2 38.2402C1273.63 38.5736 1273.2 39.0402 1272.9 39.6402L1272.02 38.8002C1272.25 38.3336 1272.58 37.9269 1273 37.5802C1273.43 37.2336 1273.93 36.9669 1274.5 36.7802C1275.08 36.5802 1275.69 36.4802 1276.34 36.4802C1277.17 36.4802 1277.9 36.6336 1278.52 36.9402C1279.15 37.2336 1279.64 37.6469 1280 38.1802C1280.36 38.7136 1280.54 39.3402 1280.54 40.0602C1280.54 40.5936 1280.44 41.0869 1280.22 41.5402C1280.01 41.9936 1279.7 42.3736 1279.3 42.6802C1278.92 42.9869 1278.45 43.1869 1277.9 43.2802Z" fill="#292929"/>
<path d="M1420.14 42.1402C1420.14 43.3136 1419.92 44.3602 1419.48 45.2802C1419.05 46.1869 1418.46 46.9002 1417.7 47.4202C1416.94 47.9402 1416.08 48.2002 1415.12 48.2002C1414.16 48.2002 1413.3 47.9402 1412.54 47.4202C1411.79 46.9002 1411.2 46.1869 1410.76 45.2802C1410.32 44.3602 1410.1 43.3136 1410.1 42.1402C1410.1 40.9669 1410.32 39.9269 1410.76 39.0202C1411.2 38.1002 1411.79 37.3802 1412.54 36.8602C1413.3 36.3269 1414.16 36.0602 1415.12 36.0602C1416.08 36.0602 1416.94 36.3269 1417.7 36.8602C1418.46 37.3802 1419.05 38.1002 1419.48 39.0202C1419.92 39.9269 1420.14 40.9669 1420.14 42.1402ZM1418.76 42.1402C1418.76 41.1936 1418.61 40.3602 1418.3 39.6402C1417.99 38.9202 1417.57 38.3602 1417.02 37.9602C1416.47 37.5469 1415.84 37.3402 1415.12 37.3402C1414.4 37.3402 1413.77 37.5469 1413.22 37.9602C1412.67 38.3602 1412.24 38.9202 1411.92 39.6402C1411.61 40.3602 1411.46 41.1936 1411.46 42.1402C1411.46 43.0869 1411.61 43.9202 1411.92 44.6402C1412.24 45.3602 1412.67 45.9202 1413.22 46.3202C1413.77 46.7202 1414.4 46.9202 1415.12 46.9202C1415.84 46.9202 1416.47 46.7202 1417.02 46.3202C1417.57 45.9069 1417.99 45.3469 1418.3 44.6402C1418.61 43.9202 1418.76 43.0869 1418.76 42.1402ZM1429.37 46.7602V48.0002H1422.59V46.7602H1425.43V38.2002C1425.32 38.3602 1425.14 38.5336 1424.89 38.7202C1424.63 38.9069 1424.34 39.0802 1424.01 39.2402C1423.69 39.4002 1423.37 39.5336 1423.05 39.6402C1422.73 39.7469 1422.43 39.8002 1422.17 39.8002V38.4802C1422.47 38.4802 1422.81 38.3936 1423.17 38.2202C1423.53 38.0469 1423.87 37.8469 1424.21 37.6202C1424.54 37.3936 1424.82 37.1802 1425.05 36.9802C1425.27 36.7802 1425.4 36.6469 1425.43 36.5802H1426.83V46.7602H1429.37ZM1431.1 48.0002V46.0402H1432.28V48.0002H1431.1ZM1444.73 42.1402C1444.73 43.3136 1444.51 44.3602 1444.07 45.2802C1443.64 46.1869 1443.05 46.9002 1442.29 47.4202C1441.53 47.9402 1440.67 48.2002 1439.71 48.2002C1438.75 48.2002 1437.89 47.9402 1437.13 47.4202C1436.38 46.9002 1435.79 46.1869 1435.35 45.2802C1434.91 44.3602 1434.69 43.3136 1434.69 42.1402C1434.69 40.9669 1434.91 39.9269 1435.35 39.0202C1435.79 38.1002 1436.38 37.3802 1437.13 36.8602C1437.89 36.3269 1438.75 36.0602 1439.71 36.0602C1440.67 36.0602 1441.53 36.3269 1442.29 36.8602C1443.05 37.3802 1443.64 38.1002 1444.07 39.0202C1444.51 39.9269 1444.73 40.9669 1444.73 42.1402ZM1443.35 42.1402C1443.35 41.1936 1443.2 40.3602 1442.89 39.6402C1442.58 38.9202 1442.16 38.3602 1441.61 37.9602C1441.06 37.5469 1440.43 37.3402 1439.71 37.3402C1438.99 37.3402 1438.36 37.5469 1437.81 37.9602C1437.26 38.3602 1436.83 38.9202 1436.51 39.6402C1436.2 40.3602 1436.05 41.1936 1436.05 42.1402C1436.05 43.0869 1436.2 43.9202 1436.51 44.6402C1436.83 45.3602 1437.26 45.9202 1437.81 46.3202C1438.36 46.7202 1438.99 46.9202 1439.71 46.9202C1440.43 46.9202 1441.06 46.7202 1441.61 46.3202C1442.16 45.9069 1442.58 45.3469 1442.89 44.6402C1443.2 43.9202 1443.35 43.0869 1443.35 42.1402ZM1456.7 44.0602C1456.7 44.8869 1456.46 45.6069 1456 46.2202C1455.54 46.8336 1454.94 47.3136 1454.18 47.6602C1453.43 47.9936 1452.61 48.1602 1451.72 48.1602C1450.77 48.1602 1449.93 47.9736 1449.2 47.6002C1448.46 47.2136 1447.88 46.7069 1447.46 46.0802C1447.04 45.4536 1446.84 44.7536 1446.84 43.9802C1446.84 43.3802 1446.98 42.8402 1447.26 42.3602C1447.55 41.8669 1447.91 41.4536 1448.34 41.1202C1448.78 40.7869 1449.22 40.5469 1449.68 40.4002C1449.26 40.2269 1448.88 40.0002 1448.52 39.7202C1448.16 39.4269 1447.87 39.0869 1447.66 38.7002C1447.44 38.3136 1447.34 37.8869 1447.34 37.4202C1447.34 36.8336 1447.46 36.3202 1447.72 35.8802C1447.98 35.4269 1448.33 35.0469 1448.76 34.7402C1449.18 34.4202 1449.66 34.1869 1450.18 34.0402C1450.71 33.8802 1451.24 33.8002 1451.78 33.8002C1452.3 33.8002 1452.82 33.8802 1453.34 34.0402C1453.87 34.1869 1454.35 34.4136 1454.78 34.7202C1455.22 35.0269 1455.56 35.4069 1455.82 35.8602C1456.08 36.3002 1456.22 36.8136 1456.22 37.4002C1456.22 37.8669 1456.1 38.3002 1455.88 38.7002C1455.66 39.0869 1455.38 39.4269 1455.02 39.7202C1454.66 40.0002 1454.26 40.2269 1453.84 40.4002C1454.36 40.5736 1454.83 40.8402 1455.26 41.2002C1455.7 41.5469 1456.04 41.9602 1456.3 42.4402C1456.56 42.9202 1456.7 43.4602 1456.7 44.0602ZM1455.32 43.9602C1455.32 43.4802 1455.21 43.0602 1455 42.7002C1454.8 42.3269 1454.52 42.0136 1454.16 41.7602C1453.81 41.5069 1453.42 41.3136 1453 41.1802C1452.58 41.0469 1452.16 40.9802 1451.74 40.9802C1451.16 40.9802 1450.6 41.1069 1450.06 41.3602C1449.52 41.6002 1449.08 41.9469 1448.74 42.4002C1448.4 42.8402 1448.24 43.3669 1448.24 43.9802C1448.24 44.4469 1448.34 44.8602 1448.54 45.2202C1448.75 45.5802 1449.03 45.8936 1449.38 46.1602C1449.72 46.4136 1450.1 46.6069 1450.52 46.7402C1450.94 46.8736 1451.37 46.9402 1451.8 46.9402C1452.37 46.9402 1452.92 46.8202 1453.46 46.5802C1454 46.3269 1454.45 45.9736 1454.8 45.5202C1455.14 45.0669 1455.32 44.5469 1455.32 43.9602ZM1448.7 37.4802C1448.7 37.9869 1448.85 38.4269 1449.16 38.8002C1449.48 39.1602 1449.88 39.4336 1450.36 39.6202C1450.84 39.8069 1451.3 39.9002 1451.76 39.9002C1452.24 39.9002 1452.71 39.8069 1453.18 39.6202C1453.66 39.4202 1454.05 39.1402 1454.36 38.7802C1454.68 38.4069 1454.84 37.9602 1454.84 37.4402C1454.84 36.9336 1454.69 36.5002 1454.4 36.1402C1454.1 35.7802 1453.72 35.5069 1453.24 35.3202C1452.77 35.1336 1452.27 35.0402 1451.74 35.0402C1451.23 35.0402 1450.74 35.1402 1450.26 35.3402C1449.79 35.5269 1449.41 35.8069 1449.12 36.1802C1448.84 36.5402 1448.7 36.9736 1448.7 37.4802ZM1458.99 48.0002V46.0402H1460.17V48.0002H1458.99ZM1469.6 46.7602V48.0002H1462.82V46.7602H1465.66V38.2002C1465.55 38.3602 1465.37 38.5336 1465.12 38.7202C1464.87 38.9069 1464.57 39.0802 1464.24 39.2402C1463.92 39.4002 1463.6 39.5336 1463.28 39.6402C1462.96 39.7469 1462.67 39.8002 1462.4 39.8002V38.4802C1462.71 38.4802 1463.04 38.3936 1463.4 38.2202C1463.76 38.0469 1464.11 37.8469 1464.44 37.6202C1464.77 37.3936 1465.05 37.1802 1465.28 36.9802C1465.51 36.7802 1465.63 36.6469 1465.66 36.5802H1467.06V46.7602H1469.6ZM1470.76 41.4602C1470.76 40.5536 1470.98 39.7336 1471.42 39.0002C1471.87 38.2669 1472.48 37.6802 1473.24 37.2402C1474.01 36.8002 1474.86 36.5802 1475.8 36.5802C1476.8 36.5802 1477.68 36.8202 1478.44 37.3002C1479.21 37.7669 1479.81 38.4469 1480.24 39.3402C1480.68 40.2202 1480.9 41.2802 1480.9 42.5202C1480.9 44.4536 1480.68 46.0536 1480.24 47.3202C1479.8 48.5736 1479.18 49.5136 1478.4 50.1402C1477.61 50.7669 1476.7 51.0802 1475.66 51.0802C1474.72 51.0802 1473.88 50.8402 1473.12 50.3602C1472.37 49.8936 1471.8 49.2536 1471.42 48.4402L1472.3 47.6402C1472.58 48.3069 1473.02 48.8469 1473.64 49.2602C1474.25 49.6736 1474.92 49.8802 1475.66 49.8802C1476.46 49.8802 1477.14 49.6336 1477.72 49.1402C1478.3 48.6469 1478.76 47.9402 1479.08 47.0202C1479.41 46.1002 1479.58 44.9869 1479.6 43.6802C1479.41 44.1869 1479.12 44.6402 1478.72 45.0402C1478.32 45.4269 1477.86 45.7269 1477.34 45.9402C1476.82 46.1536 1476.25 46.2602 1475.64 46.2602C1474.74 46.2602 1473.92 46.0469 1473.18 45.6202C1472.43 45.1936 1471.84 44.6202 1471.4 43.9002C1470.97 43.1669 1470.76 42.3536 1470.76 41.4602ZM1475.78 37.7802C1475.1 37.7802 1474.48 37.9469 1473.92 38.2802C1473.36 38.6136 1472.9 39.0602 1472.56 39.6202C1472.22 40.1669 1472.06 40.7802 1472.06 41.4602C1472.06 42.1269 1472.22 42.7402 1472.56 43.3002C1472.9 43.8602 1473.36 44.3069 1473.92 44.6402C1474.49 44.9736 1475.11 45.1402 1475.78 45.1402C1476.46 45.1402 1477.08 44.9736 1477.64 44.6402C1478.2 44.3069 1478.64 43.8602 1478.98 43.3002C1479.31 42.7402 1479.48 42.1269 1479.48 41.4602C1479.48 40.7936 1479.31 40.1802 1478.98 39.6202C1478.64 39.0602 1478.19 38.6136 1477.62 38.2802C1477.06 37.9469 1476.44 37.7802 1475.78 37.7802ZM1482.47 41.4602C1482.47 40.5536 1482.69 39.7336 1483.13 39.0002C1483.59 38.2669 1484.19 37.6802 1484.95 37.2402C1485.73 36.8002 1486.58 36.5802 1487.51 36.5802C1488.51 36.5802 1489.39 36.8202 1490.15 37.3002C1490.93 37.7669 1491.53 38.4469 1491.95 39.3402C1492.39 40.2202 1492.61 41.2802 1492.61 42.5202C1492.61 44.4536 1492.39 46.0536 1491.95 47.3202C1491.51 48.5736 1490.9 49.5136 1490.11 50.1402C1489.33 50.7669 1488.41 51.0802 1487.37 51.0802C1486.44 51.0802 1485.59 50.8402 1484.83 50.3602C1484.09 49.8936 1483.52 49.2536 1483.13 48.4402L1484.01 47.6402C1484.29 48.3069 1484.74 48.8469 1485.35 49.2602C1485.97 49.6736 1486.64 49.8802 1487.37 49.8802C1488.17 49.8802 1488.86 49.6336 1489.43 49.1402C1490.02 48.6469 1490.47 47.9402 1490.79 47.0202C1491.13 46.1002 1491.3 44.9869 1491.31 43.6802C1491.13 44.1869 1490.83 44.6402 1490.43 45.0402C1490.03 45.4269 1489.57 45.7269 1489.05 45.9402C1488.53 46.1536 1487.97 46.2602 1487.35 46.2602C1486.46 46.2602 1485.64 46.0469 1484.89 45.6202C1484.15 45.1936 1483.55 44.6202 1483.11 43.9002C1482.69 43.1669 1482.47 42.3536 1482.47 41.4602ZM1487.49 37.7802C1486.81 37.7802 1486.19 37.9469 1485.63 38.2802C1485.07 38.6136 1484.62 39.0602 1484.27 39.6202C1483.94 40.1669 1483.77 40.7802 1483.77 41.4602C1483.77 42.1269 1483.94 42.7402 1484.27 43.3002C1484.62 43.8602 1485.07 44.3069 1485.63 44.6402C1486.21 44.9736 1486.83 45.1402 1487.49 45.1402C1488.17 45.1402 1488.79 44.9736 1489.35 44.6402C1489.91 44.3069 1490.36 43.8602 1490.69 43.3002C1491.03 42.7402 1491.19 42.1269 1491.19 41.4602C1491.19 40.7936 1491.03 40.1802 1490.69 39.6202C1490.36 39.0602 1489.91 38.6136 1489.33 38.2802C1488.77 37.9469 1488.16 37.7802 1487.49 37.7802ZM1494.19 41.4602C1494.19 40.5536 1494.41 39.7336 1494.85 39.0002C1495.31 38.2669 1495.91 37.6802 1496.67 37.2402C1497.45 36.8002 1498.3 36.5802 1499.23 36.5802C1500.23 36.5802 1501.11 36.8202 1501.87 37.3002C1502.65 37.7669 1503.25 38.4469 1503.67 39.3402C1504.11 40.2202 1504.33 41.2802 1504.33 42.5202C1504.33 44.4536 1504.11 46.0536 1503.67 47.3202C1503.23 48.5736 1502.62 49.5136 1501.83 50.1402C1501.05 50.7669 1500.13 51.0802 1499.09 51.0802C1498.16 51.0802 1497.31 50.8402 1496.55 50.3602C1495.81 49.8936 1495.24 49.2536 1494.85 48.4402L1495.73 47.6402C1496.01 48.3069 1496.46 48.8469 1497.07 49.2602C1497.69 49.6736 1498.36 49.8802 1499.09 49.8802C1499.89 49.8802 1500.58 49.6336 1501.15 49.1402C1501.74 48.6469 1502.19 47.9402 1502.51 47.0202C1502.85 46.1002 1503.02 44.9869 1503.03 43.6802C1502.85 44.1869 1502.55 44.6402 1502.15 45.0402C1501.75 45.4269 1501.29 45.7269 1500.77 45.9402C1500.25 46.1536 1499.69 46.2602 1499.07 46.2602C1498.18 46.2602 1497.36 46.0469 1496.61 45.6202C1495.87 45.1936 1495.27 44.6202 1494.83 43.9002C1494.41 43.1669 1494.19 42.3536 1494.19 41.4602ZM1499.21 37.7802C1498.53 37.7802 1497.91 37.9469 1497.35 38.2802C1496.79 38.6136 1496.34 39.0602 1495.99 39.6202C1495.66 40.1669 1495.49 40.7802 1495.49 41.4602C1495.49 42.1269 1495.66 42.7402 1495.99 43.3002C1496.34 43.8602 1496.79 44.3069 1497.35 44.6402C1497.93 44.9736 1498.55 45.1402 1499.21 45.1402C1499.89 45.1402 1500.51 44.9736 1501.07 44.6402C1501.63 44.3069 1502.08 43.8602 1502.41 43.3002C1502.75 42.7402 1502.91 42.1269 1502.91 41.4602C1502.91 40.7936 1502.75 40.1802 1502.41 39.6202C1502.08 39.0602 1501.63 38.6136 1501.05 38.2802C1500.49 37.9469 1499.88 37.7802 1499.21 37.7802Z" fill="#292929"/>
<line x1="4.37114e-08" y1="79.5002" x2="1560" y2="79.5004" stroke="#F2F2F2"/>
</svg>
