<svg width="1584" height="79" viewBox="0 0 1584 79" fill="none" xmlns="http://www.w3.org/2000/svg">
<rect width="1584" height="79" fill="#F2F2F2"/>
<path d="M12.76 49.72V45.76H13.36C13.7333 45.76 14.06 45.6067 14.34 45.3C14.6333 44.9933 14.88 44.5 15.08 43.82C15.2933 43.1267 15.46 42.2 15.58 41.04C15.7133 39.88 15.8067 38.44 15.86 36.72L15.96 32.8H24.46V45.76H26.16V49.72H24.92V47H14V49.72H12.76ZM15.36 45.76H23.06V34.04H17.24L17.16 36.88C17.12 38.68 17.0267 40.1867 16.88 41.4C16.7467 42.6 16.5533 43.5533 16.3 44.26C16.0467 44.9533 15.7333 45.4533 15.36 45.76ZM28.4605 47V36.58H29.8605L34.0005 43.76L38.1605 36.58H39.5005V47H38.2005V38.62L34.4405 45.14H33.5605L29.7605 38.62V47H28.4605ZM42.4839 47V36.6H43.8439V45.16L50.1839 36.58H51.4039V47H50.0439V38.58L43.8039 47H42.4839ZM56.9789 47V37.8H53.2589V36.58H62.0589V37.8H58.3389V47H56.9789ZM69.2302 47.2C68.3635 47.2 67.5835 46.9733 66.8902 46.52C66.2102 46.0667 65.6702 45.5067 65.2702 44.84V51.26H63.9102V36.58H65.1302V38.6C65.5435 37.9467 66.0968 37.42 66.7902 37.02C67.4835 36.6067 68.2235 36.4 69.0102 36.4C69.7302 36.4 70.3902 36.5533 70.9902 36.86C71.5902 37.1533 72.1102 37.5533 72.5502 38.06C72.9902 38.5667 73.3302 39.1467 73.5702 39.8C73.8235 40.44 73.9502 41.1067 73.9502 41.8C73.9502 42.7733 73.7502 43.6733 73.3502 44.5C72.9635 45.3133 72.4168 45.9667 71.7102 46.46C71.0035 46.9533 70.1768 47.2 69.2302 47.2ZM68.8502 46C69.4235 46 69.9368 45.8867 70.3902 45.66C70.8435 45.42 71.2302 45.1 71.5502 44.7C71.8835 44.3 72.1368 43.8533 72.3102 43.36C72.4835 42.8533 72.5702 42.3333 72.5702 41.8C72.5702 41.24 72.4702 40.7067 72.2702 40.2C72.0835 39.6933 71.8102 39.2467 71.4502 38.86C71.0902 38.4733 70.6768 38.1667 70.2102 37.94C69.7435 37.7133 69.2368 37.6 68.6902 37.6C68.3435 37.6 67.9835 37.6667 67.6102 37.8C67.2368 37.9333 66.8768 38.1267 66.5302 38.38C66.1968 38.62 65.9168 38.8933 65.6902 39.2C65.4635 39.5067 65.3235 39.8333 65.2702 40.18V43.38C65.4835 43.8733 65.7702 44.32 66.1302 44.72C66.4902 45.1067 66.9035 45.42 67.3702 45.66C67.8502 45.8867 68.3435 46 68.8502 46ZM76.2339 47V36.6H77.5939V45.16L83.9339 36.58H85.1539V47H83.7939V38.58L77.5539 47H76.2339ZM92.6289 47.2C91.8822 47.2 91.1889 47.06 90.5489 46.78C89.9089 46.4867 89.3556 46.0933 88.8889 45.6C88.4222 45.0933 88.0556 44.5133 87.7889 43.86C87.5356 43.2067 87.4089 42.5067 87.4089 41.76C87.4089 40.7867 87.6289 39.8933 88.0689 39.08C88.5222 38.2667 89.1422 37.62 89.9289 37.14C90.7156 36.6467 91.6089 36.4 92.6089 36.4C93.6356 36.4 94.5289 36.6467 95.2889 37.14C96.0622 37.6333 96.6689 38.2867 97.1089 39.1C97.5489 39.9 97.7689 40.78 97.7689 41.74C97.7689 41.8467 97.7689 41.9533 97.7689 42.06C97.7689 42.1533 97.7622 42.2267 97.7489 42.28H88.8289C88.8956 43.0267 89.1022 43.6933 89.4489 44.28C89.8089 44.8533 90.2689 45.3133 90.8289 45.66C91.4022 45.9933 92.0222 46.16 92.6889 46.16C93.3689 46.16 94.0089 45.9867 94.6089 45.64C95.2222 45.2933 95.6489 44.84 95.8889 44.28L97.0689 44.6C96.8556 45.0933 96.5289 45.54 96.0889 45.94C95.6489 46.34 95.1289 46.6533 94.5289 46.88C93.9422 47.0933 93.3089 47.2 92.6289 47.2ZM88.7889 41.3H96.4889C96.4356 40.54 96.2289 39.8733 95.8689 39.3C95.5222 38.7267 95.0622 38.28 94.4889 37.96C93.9289 37.6267 93.3089 37.46 92.6289 37.46C91.9489 37.46 91.3289 37.6267 90.7689 37.96C90.2089 38.28 89.7489 38.7333 89.3889 39.32C89.0422 39.8933 88.8422 40.5533 88.7889 41.3ZM99.8472 47V36.58H105.047C105.634 36.58 106.127 36.7067 106.527 36.96C106.927 37.2 107.227 37.5133 107.427 37.9C107.641 38.2867 107.747 38.7 107.747 39.14C107.747 39.7 107.614 40.2067 107.347 40.66C107.081 41.1 106.694 41.4333 106.187 41.66C106.787 41.8333 107.274 42.1467 107.647 42.6C108.021 43.0533 108.207 43.6 108.207 44.24C108.207 44.8 108.067 45.2867 107.787 45.7C107.521 46.1133 107.147 46.4333 106.667 46.66C106.201 46.8867 105.661 47 105.047 47H99.8472ZM101.147 46.02H105.007C105.354 46.02 105.667 45.9333 105.947 45.76C106.241 45.5733 106.467 45.3333 106.627 45.04C106.801 44.7467 106.887 44.44 106.887 44.12C106.887 43.7733 106.807 43.46 106.647 43.18C106.487 42.8867 106.274 42.6533 106.007 42.48C105.741 42.3067 105.434 42.22 105.087 42.22H101.147V46.02ZM101.147 41.28H104.687C105.034 41.28 105.341 41.1867 105.607 41C105.874 40.8133 106.081 40.5733 106.227 40.28C106.374 39.9867 106.447 39.68 106.447 39.36C106.447 38.88 106.287 38.46 105.967 38.1C105.661 37.74 105.261 37.56 104.767 37.56H101.147V41.28ZM116.028 47V32.8H117.408V45.08L126.208 32.8H127.508V47H126.128V34.94L117.428 47H116.028ZM130.843 47V36.58H137.063V37.8H132.203V47H130.843ZM143.409 47.2C142.662 47.2 141.969 47.06 141.329 46.78C140.702 46.4867 140.155 46.0933 139.689 45.6C139.235 45.0933 138.882 44.52 138.629 43.88C138.375 43.2267 138.249 42.54 138.249 41.82C138.249 41.0733 138.375 40.38 138.629 39.74C138.882 39.0867 139.242 38.5133 139.709 38.02C140.175 37.5133 140.722 37.12 141.349 36.84C141.989 36.5467 142.682 36.4 143.429 36.4C144.175 36.4 144.862 36.5467 145.489 36.84C146.115 37.12 146.662 37.5133 147.129 38.02C147.595 38.5133 147.955 39.0867 148.209 39.74C148.462 40.38 148.589 41.0733 148.589 41.82C148.589 42.54 148.462 43.2267 148.209 43.88C147.955 44.52 147.595 45.0933 147.129 45.6C146.675 46.0933 146.129 46.4867 145.489 46.78C144.862 47.06 144.169 47.2 143.409 47.2ZM139.629 41.84C139.629 42.6133 139.795 43.32 140.129 43.96C140.475 44.5867 140.935 45.0867 141.509 45.46C142.082 45.82 142.715 46 143.409 46C144.102 46 144.735 45.8133 145.309 45.44C145.882 45.0667 146.342 44.56 146.689 43.92C147.035 43.2667 147.209 42.56 147.209 41.8C147.209 41.0267 147.035 40.32 146.689 39.68C146.342 39.04 145.882 38.5333 145.309 38.16C144.735 37.7867 144.102 37.6 143.409 37.6C142.715 37.6 142.082 37.7933 141.509 38.18C140.949 38.5667 140.495 39.08 140.149 39.72C139.802 40.3467 139.629 41.0533 139.629 41.84ZM156.183 47.2C155.317 47.2 154.537 46.9733 153.843 46.52C153.163 46.0667 152.623 45.5067 152.223 44.84V51.26H150.863V36.58H152.083V38.6C152.497 37.9467 153.05 37.42 153.743 37.02C154.437 36.6067 155.177 36.4 155.963 36.4C156.683 36.4 157.343 36.5533 157.943 36.86C158.543 37.1533 159.063 37.5533 159.503 38.06C159.943 38.5667 160.283 39.1467 160.523 39.8C160.777 40.44 160.903 41.1067 160.903 41.8C160.903 42.7733 160.703 43.6733 160.303 44.5C159.917 45.3133 159.37 45.9667 158.663 46.46C157.957 46.9533 157.13 47.2 156.183 47.2ZM155.803 46C156.377 46 156.89 45.8867 157.343 45.66C157.797 45.42 158.183 45.1 158.503 44.7C158.837 44.3 159.09 43.8533 159.263 43.36C159.437 42.8533 159.523 42.3333 159.523 41.8C159.523 41.24 159.423 40.7067 159.223 40.2C159.037 39.6933 158.763 39.2467 158.403 38.86C158.043 38.4733 157.63 38.1667 157.163 37.94C156.697 37.7133 156.19 37.6 155.643 37.6C155.297 37.6 154.937 37.6667 154.563 37.8C154.19 37.9333 153.83 38.1267 153.483 38.38C153.15 38.62 152.87 38.8933 152.643 39.2C152.417 39.5067 152.277 39.8333 152.223 40.18V43.38C152.437 43.8733 152.723 44.32 153.083 44.72C153.443 45.1067 153.857 45.42 154.323 45.66C154.803 45.8867 155.297 46 155.803 46ZM163.187 47V36.58H164.547V40.26H167.247C168.434 40.26 169.327 40.5667 169.927 41.18C170.54 41.78 170.847 42.5733 170.847 43.56C170.847 44.2 170.714 44.78 170.447 45.3C170.18 45.82 169.787 46.2333 169.267 46.54C168.76 46.8467 168.12 47 167.347 47H163.187ZM164.547 45.92H167.167C167.714 45.92 168.154 45.8133 168.487 45.6C168.82 45.3733 169.067 45.0867 169.227 44.74C169.387 44.38 169.467 43.9933 169.467 43.58C169.467 43.18 169.394 42.8133 169.247 42.48C169.114 42.1333 168.874 41.86 168.527 41.66C168.194 41.4467 167.727 41.34 167.127 41.34H164.547V45.92ZM177.41 39.8C177.41 38.9333 177.557 38.0867 177.85 37.26C178.157 36.42 178.597 35.66 179.17 34.98C179.744 34.2867 180.45 33.74 181.29 33.34C182.13 32.9267 183.084 32.72 184.15 32.72C185.417 32.72 186.497 33.0133 187.39 33.6C188.297 34.1733 188.964 34.9133 189.39 35.82L188.29 36.5C187.984 35.8733 187.597 35.38 187.13 35.02C186.664 34.6467 186.164 34.38 185.63 34.22C185.11 34.06 184.59 33.98 184.07 33.98C183.217 33.98 182.464 34.1533 181.81 34.5C181.157 34.8333 180.604 35.2867 180.15 35.86C179.71 36.42 179.377 37.0533 179.15 37.76C178.924 38.4533 178.81 39.16 178.81 39.88C178.81 40.6667 178.944 41.42 179.21 42.14C179.477 42.86 179.85 43.5 180.33 44.06C180.81 44.6067 181.37 45.0467 182.01 45.38C182.664 45.7 183.37 45.86 184.13 45.86C184.664 45.86 185.21 45.7667 185.77 45.58C186.33 45.3933 186.85 45.1067 187.33 44.72C187.824 44.3333 188.217 43.8333 188.51 43.22L189.67 43.82C189.377 44.5267 188.924 45.1267 188.31 45.62C187.697 46.1133 187.01 46.4867 186.25 46.74C185.504 46.9933 184.77 47.12 184.05 47.12C183.077 47.12 182.184 46.9133 181.37 46.5C180.557 46.0733 179.85 45.5133 179.25 44.82C178.664 44.1133 178.21 43.3267 177.89 42.46C177.57 41.58 177.41 40.6933 177.41 39.8ZM194.381 47V37.8H190.661V36.58H199.461V37.8H195.741V47H194.381ZM205.813 47.2C205.066 47.2 204.373 47.06 203.733 46.78C203.093 46.4867 202.539 46.0933 202.073 45.6C201.606 45.0933 201.239 44.5133 200.973 43.86C200.719 43.2067 200.593 42.5067 200.593 41.76C200.593 40.7867 200.813 39.8933 201.253 39.08C201.706 38.2667 202.326 37.62 203.113 37.14C203.899 36.6467 204.793 36.4 205.793 36.4C206.819 36.4 207.713 36.6467 208.473 37.14C209.246 37.6333 209.853 38.2867 210.293 39.1C210.733 39.9 210.953 40.78 210.953 41.74C210.953 41.8467 210.953 41.9533 210.953 42.06C210.953 42.1533 210.946 42.2267 210.933 42.28H202.013C202.079 43.0267 202.286 43.6933 202.633 44.28C202.993 44.8533 203.453 45.3133 204.013 45.66C204.586 45.9933 205.206 46.16 205.873 46.16C206.553 46.16 207.193 45.9867 207.793 45.64C208.406 45.2933 208.833 44.84 209.073 44.28L210.253 44.6C210.039 45.0933 209.713 45.54 209.273 45.94C208.833 46.34 208.313 46.6533 207.713 46.88C207.126 47.0933 206.493 47.2 205.813 47.2ZM201.973 41.3H209.673C209.619 40.54 209.413 39.8733 209.053 39.3C208.706 38.7267 208.246 38.28 207.673 37.96C207.113 37.6267 206.493 37.46 205.813 37.46C205.133 37.46 204.513 37.6267 203.953 37.96C203.393 38.28 202.933 38.7333 202.573 39.32C202.226 39.8933 202.026 40.5533 201.973 41.3ZM213.031 47V36.58H221.411V47H220.051V37.8H214.391V47H213.031ZM223.578 44C223.578 43.3467 223.765 42.7867 224.138 42.32C224.511 41.84 225.025 41.4733 225.678 41.22C226.345 40.9533 227.111 40.82 227.978 40.82C228.485 40.82 229.011 40.86 229.558 40.94C230.105 41.02 230.591 41.14 231.018 41.3V40.42C231.018 39.54 230.758 38.84 230.238 38.32C229.718 37.8 228.998 37.54 228.078 37.54C227.518 37.54 226.965 37.6467 226.418 37.86C225.885 38.06 225.325 38.36 224.738 38.76L224.218 37.8C224.898 37.3333 225.565 36.9867 226.218 36.76C226.871 36.52 227.538 36.4 228.218 36.4C229.498 36.4 230.511 36.7667 231.258 37.5C232.005 38.2333 232.378 39.2467 232.378 40.54V45.36C232.378 45.5467 232.418 45.6867 232.498 45.78C232.578 45.86 232.705 45.9067 232.878 45.92V47C232.731 47.0133 232.605 47.0267 232.498 47.04C232.391 47.0533 232.311 47.0533 232.258 47.04C231.925 47.0267 231.671 46.92 231.498 46.72C231.325 46.52 231.231 46.3067 231.218 46.08L231.198 45.32C230.731 45.92 230.125 46.3867 229.378 46.72C228.631 47.04 227.871 47.2 227.098 47.2C226.431 47.2 225.825 47.06 225.278 46.78C224.745 46.4867 224.325 46.1 224.018 45.62C223.725 45.1267 223.578 44.5867 223.578 44ZM230.558 44.8C230.705 44.6133 230.818 44.4333 230.898 44.26C230.978 44.0867 231.018 43.9333 231.018 43.8V42.28C230.565 42.1067 230.091 41.9733 229.598 41.88C229.118 41.7867 228.631 41.74 228.138 41.74C227.165 41.74 226.378 41.9333 225.778 42.32C225.178 42.7067 224.878 43.2333 224.878 43.9C224.878 44.2867 224.978 44.6533 225.178 45C225.378 45.3333 225.671 45.6133 226.058 45.84C226.445 46.0533 226.898 46.16 227.418 46.16C228.071 46.16 228.678 46.0333 229.238 45.78C229.811 45.5267 230.251 45.2 230.558 44.8ZM235.296 47V36.58H236.656V41.06H242.616V36.58H243.976V47H242.616V42.28H236.656V47H235.296ZM251.417 47.2C250.67 47.2 249.977 47.06 249.337 46.78C248.71 46.4867 248.163 46.0933 247.697 45.6C247.243 45.0933 246.89 44.52 246.637 43.88C246.383 43.2267 246.257 42.54 246.257 41.82C246.257 41.0733 246.383 40.38 246.637 39.74C246.89 39.0867 247.25 38.5133 247.717 38.02C248.183 37.5133 248.73 37.12 249.357 36.84C249.997 36.5467 250.69 36.4 251.437 36.4C252.183 36.4 252.87 36.5467 253.497 36.84C254.123 37.12 254.67 37.5133 255.137 38.02C255.603 38.5133 255.963 39.0867 256.217 39.74C256.47 40.38 256.597 41.0733 256.597 41.82C256.597 42.54 256.47 43.2267 256.217 43.88C255.963 44.52 255.603 45.0933 255.137 45.6C254.683 46.0933 254.137 46.4867 253.497 46.78C252.87 47.06 252.177 47.2 251.417 47.2ZM247.637 41.84C247.637 42.6133 247.803 43.32 248.137 43.96C248.483 44.5867 248.943 45.0867 249.517 45.46C250.09 45.82 250.723 46 251.417 46C252.11 46 252.743 45.8133 253.317 45.44C253.89 45.0667 254.35 44.56 254.697 43.92C255.043 43.2667 255.217 42.56 255.217 41.8C255.217 41.0267 255.043 40.32 254.697 39.68C254.35 39.04 253.89 38.5333 253.317 38.16C252.743 37.7867 252.11 37.6 251.417 37.6C250.723 37.6 250.09 37.7933 249.517 38.18C248.957 38.5667 248.503 39.08 248.157 39.72C247.81 40.3467 247.637 41.0533 247.637 41.84ZM258.851 47V36.58H264.051C264.638 36.58 265.131 36.7067 265.531 36.96C265.931 37.2 266.231 37.5133 266.431 37.9C266.644 38.2867 266.751 38.7 266.751 39.14C266.751 39.7 266.618 40.2067 266.351 40.66C266.084 41.1 265.698 41.4333 265.191 41.66C265.791 41.8333 266.278 42.1467 266.651 42.6C267.024 43.0533 267.211 43.6 267.211 44.24C267.211 44.8 267.071 45.2867 266.791 45.7C266.524 46.1133 266.151 46.4333 265.671 46.66C265.204 46.8867 264.664 47 264.051 47H258.851ZM260.151 46.02H264.011C264.358 46.02 264.671 45.9333 264.951 45.76C265.244 45.5733 265.471 45.3333 265.631 45.04C265.804 44.7467 265.891 44.44 265.891 44.12C265.891 43.7733 265.811 43.46 265.651 43.18C265.491 42.8867 265.278 42.6533 265.011 42.48C264.744 42.3067 264.438 42.22 264.091 42.22H260.151V46.02ZM260.151 41.28H263.691C264.038 41.28 264.344 41.1867 264.611 41C264.878 40.8133 265.084 40.5733 265.231 40.28C265.378 39.9867 265.451 39.68 265.451 39.36C265.451 38.88 265.291 38.46 264.971 38.1C264.664 37.74 264.264 37.56 263.771 37.56H260.151V41.28ZM269.554 47V36.6H270.914V45.16L277.254 36.58H278.474V47H277.114V38.58L270.874 47H269.554ZM287.409 47V42.64C286.983 42.84 286.536 42.9933 286.069 43.1C285.603 43.1933 285.103 43.24 284.569 43.24C283.423 43.24 282.556 42.9467 281.969 42.36C281.396 41.7733 281.109 40.8733 281.109 39.66V36.58H282.469V39.48C282.469 40.4133 282.656 41.0933 283.029 41.52C283.416 41.9467 284.029 42.16 284.869 42.16C285.336 42.16 285.803 42.1067 286.269 42C286.736 41.8933 287.116 41.7533 287.409 41.58V36.58H288.769V47H287.409Z" fill="#292929"/>
<path d="M737.76 49.72V45.76H738.36C738.733 45.76 739.06 45.6067 739.34 45.3C739.633 44.9933 739.88 44.5 740.08 43.82C740.293 43.1267 740.46 42.2 740.58 41.04C740.713 39.88 740.807 38.44 740.86 36.72L740.96 32.8H749.46V45.76H751.16V49.72H749.92V47H739V49.72H737.76ZM740.36 45.76H748.06V34.04H742.24L742.16 36.88C742.12 38.68 742.027 40.1867 741.88 41.4C741.747 42.6 741.553 43.5533 741.3 44.26C741.047 44.9533 740.733 45.4533 740.36 45.76ZM753.46 47V36.6H754.82V45.16L761.16 36.58H762.38V47H761.02V38.58L754.78 47H753.46ZM768.375 47.12C767.415 47.12 766.595 46.94 765.915 46.58C765.235 46.2067 764.715 45.6867 764.355 45.02L765.475 44.52C765.729 44.9867 766.095 45.3533 766.575 45.62C767.055 45.8733 767.635 46 768.315 46C769.129 46 769.775 45.8133 770.255 45.44C770.749 45.0667 770.995 44.5667 770.995 43.94C770.995 43.3667 770.802 42.9067 770.415 42.56C770.029 42.2133 769.495 42.0333 768.815 42.02H767.755V41.08H768.895C769.189 41.08 769.455 41 769.695 40.84C769.935 40.68 770.122 40.4667 770.255 40.2C770.389 39.9333 770.455 39.6333 770.455 39.3C770.455 38.78 770.269 38.36 769.895 38.04C769.535 37.72 769.002 37.56 768.295 37.56C767.709 37.56 767.215 37.68 766.815 37.92C766.429 38.1467 766.115 38.4867 765.875 38.94L764.835 38.38C765.142 37.7667 765.595 37.2867 766.195 36.94C766.809 36.5933 767.522 36.42 768.335 36.42C769.002 36.42 769.582 36.5333 770.075 36.76C770.582 36.9733 770.975 37.2867 771.255 37.7C771.549 38.1 771.695 38.5867 771.695 39.16C771.695 39.6533 771.575 40.1133 771.335 40.54C771.095 40.9533 770.762 41.2667 770.335 41.48C770.949 41.6667 771.422 41.9933 771.755 42.46C772.102 42.9267 772.275 43.4733 772.275 44.1C772.275 44.7267 772.109 45.2667 771.775 45.72C771.442 46.1733 770.982 46.52 770.395 46.76C769.809 47 769.135 47.12 768.375 47.12ZM773.715 44C773.715 43.3467 773.901 42.7867 774.275 42.32C774.648 41.84 775.161 41.4733 775.815 41.22C776.481 40.9533 777.248 40.82 778.115 40.82C778.621 40.82 779.148 40.86 779.695 40.94C780.241 41.02 780.728 41.14 781.155 41.3V40.42C781.155 39.54 780.895 38.84 780.375 38.32C779.855 37.8 779.135 37.54 778.215 37.54C777.655 37.54 777.101 37.6467 776.555 37.86C776.021 38.06 775.461 38.36 774.875 38.76L774.355 37.8C775.035 37.3333 775.701 36.9867 776.355 36.76C777.008 36.52 777.675 36.4 778.355 36.4C779.635 36.4 780.648 36.7667 781.395 37.5C782.141 38.2333 782.515 39.2467 782.515 40.54V45.36C782.515 45.5467 782.555 45.6867 782.635 45.78C782.715 45.86 782.841 45.9067 783.015 45.92V47C782.868 47.0133 782.741 47.0267 782.635 47.04C782.528 47.0533 782.448 47.0533 782.395 47.04C782.061 47.0267 781.808 46.92 781.635 46.72C781.461 46.52 781.368 46.3067 781.355 46.08L781.335 45.32C780.868 45.92 780.261 46.3867 779.515 46.72C778.768 47.04 778.008 47.2 777.235 47.2C776.568 47.2 775.961 47.06 775.415 46.78C774.881 46.4867 774.461 46.1 774.155 45.62C773.861 45.1267 773.715 44.5867 773.715 44ZM780.695 44.8C780.841 44.6133 780.955 44.4333 781.035 44.26C781.115 44.0867 781.155 43.9333 781.155 43.8V42.28C780.701 42.1067 780.228 41.9733 779.735 41.88C779.255 41.7867 778.768 41.74 778.275 41.74C777.301 41.74 776.515 41.9333 775.915 42.32C775.315 42.7067 775.015 43.2333 775.015 43.9C775.015 44.2867 775.115 44.6533 775.315 45C775.515 45.3333 775.808 45.6133 776.195 45.84C776.581 46.0533 777.035 46.16 777.555 46.16C778.208 46.16 778.815 46.0333 779.375 45.78C779.948 45.5267 780.388 45.2 780.695 44.8ZM785.433 47V36.6H786.793V45.16L793.133 36.58H794.353V47H792.993V38.58L786.753 47H785.433ZM789.913 35.26C789.006 35.26 788.306 35.0467 787.813 34.62C787.32 34.1933 787.073 33.6533 787.073 33H788.073C788.073 33.4 788.22 33.7333 788.513 34C788.82 34.2667 789.286 34.4 789.913 34.4C790.526 34.4 790.973 34.2733 791.253 34.02C791.546 33.7667 791.713 33.4267 791.753 33H792.733C792.733 33.6533 792.486 34.1933 791.993 34.62C791.5 35.0467 790.806 35.26 789.913 35.26ZM797.308 47V36.58H798.668V41.06H804.628V36.58H805.988V47H804.628V42.28H798.668V47H797.308ZM813.488 47.2C812.742 47.2 812.048 47.06 811.408 46.78C810.768 46.4867 810.215 46.0933 809.748 45.6C809.282 45.0933 808.915 44.5133 808.648 43.86C808.395 43.2067 808.268 42.5067 808.268 41.76C808.268 40.7867 808.488 39.8933 808.928 39.08C809.382 38.2667 810.002 37.62 810.788 37.14C811.575 36.6467 812.468 36.4 813.468 36.4C814.495 36.4 815.388 36.6467 816.148 37.14C816.922 37.6333 817.528 38.2867 817.968 39.1C818.408 39.9 818.628 40.78 818.628 41.74C818.628 41.8467 818.628 41.9533 818.628 42.06C818.628 42.1533 818.622 42.2267 818.608 42.28H809.688C809.755 43.0267 809.962 43.6933 810.308 44.28C810.668 44.8533 811.128 45.3133 811.688 45.66C812.262 45.9933 812.882 46.16 813.548 46.16C814.228 46.16 814.868 45.9867 815.468 45.64C816.082 45.2933 816.508 44.84 816.748 44.28L817.928 44.6C817.715 45.0933 817.388 45.54 816.948 45.94C816.508 46.34 815.988 46.6533 815.388 46.88C814.802 47.0933 814.168 47.2 813.488 47.2ZM809.648 41.3H817.348C817.295 40.54 817.088 39.8733 816.728 39.3C816.382 38.7267 815.922 38.28 815.348 37.96C814.788 37.6267 814.168 37.46 813.488 37.46C812.808 37.46 812.188 37.6267 811.628 37.96C811.068 38.28 810.608 38.7333 810.248 39.32C809.902 39.8933 809.702 40.5533 809.648 41.3ZM826.047 47.2C825.18 47.2 824.4 46.9733 823.707 46.52C823.027 46.0667 822.487 45.5067 822.087 44.84V51.26H820.727V36.58H821.947V38.6C822.36 37.9467 822.913 37.42 823.607 37.02C824.3 36.6067 825.04 36.4 825.827 36.4C826.547 36.4 827.207 36.5533 827.807 36.86C828.407 37.1533 828.927 37.5533 829.367 38.06C829.807 38.5667 830.147 39.1467 830.387 39.8C830.64 40.44 830.767 41.1067 830.767 41.8C830.767 42.7733 830.567 43.6733 830.167 44.5C829.78 45.3133 829.233 45.9667 828.527 46.46C827.82 46.9533 826.993 47.2 826.047 47.2ZM825.667 46C826.24 46 826.753 45.8867 827.207 45.66C827.66 45.42 828.047 45.1 828.367 44.7C828.7 44.3 828.953 43.8533 829.127 43.36C829.3 42.8533 829.387 42.3333 829.387 41.8C829.387 41.24 829.287 40.7067 829.087 40.2C828.9 39.6933 828.627 39.2467 828.267 38.86C827.907 38.4733 827.493 38.1667 827.027 37.94C826.56 37.7133 826.053 37.6 825.507 37.6C825.16 37.6 824.8 37.6667 824.427 37.8C824.053 37.9333 823.693 38.1267 823.347 38.38C823.013 38.62 822.733 38.8933 822.507 39.2C822.28 39.5067 822.14 39.8333 822.087 40.18V43.38C822.3 43.8733 822.587 44.32 822.947 44.72C823.307 45.1067 823.72 45.42 824.187 45.66C824.667 45.8867 825.16 46 825.667 46Z" fill="#292929"/>
<path d="M1146.26 39.34V40.46H1143.78V43.16H1142.52V40.46H1140.04V39.34H1142.52V36.64H1143.78V39.34H1146.26ZM1155.15 36.6H1147.49V35.34H1157.31L1150.13 49.54H1148.57L1155.15 36.6ZM1163.33 40.46C1163.33 39.5533 1163.55 38.7333 1163.99 38C1164.45 37.2667 1165.05 36.68 1165.81 36.24C1166.59 35.8 1167.44 35.58 1168.37 35.58C1169.37 35.58 1170.25 35.82 1171.01 36.3C1171.79 36.7667 1172.39 37.4467 1172.81 38.34C1173.25 39.22 1173.47 40.28 1173.47 41.52C1173.47 43.4533 1173.25 45.0533 1172.81 46.32C1172.37 47.5733 1171.76 48.5133 1170.97 49.14C1170.19 49.7667 1169.27 50.08 1168.23 50.08C1167.3 50.08 1166.45 49.84 1165.69 49.36C1164.95 48.8933 1164.38 48.2533 1163.99 47.44L1164.87 46.64C1165.15 47.3067 1165.6 47.8467 1166.21 48.26C1166.83 48.6733 1167.5 48.88 1168.23 48.88C1169.03 48.88 1169.72 48.6333 1170.29 48.14C1170.88 47.6467 1171.33 46.94 1171.65 46.02C1171.99 45.1 1172.16 43.9867 1172.17 42.68C1171.99 43.1867 1171.69 43.64 1171.29 44.04C1170.89 44.4267 1170.43 44.7267 1169.91 44.94C1169.39 45.1533 1168.83 45.26 1168.21 45.26C1167.32 45.26 1166.5 45.0467 1165.75 44.62C1165.01 44.1933 1164.41 43.62 1163.97 42.9C1163.55 42.1667 1163.33 41.3533 1163.33 40.46ZM1168.35 36.78C1167.67 36.78 1167.05 36.9467 1166.49 37.28C1165.93 37.6133 1165.48 38.06 1165.13 38.62C1164.8 39.1667 1164.63 39.78 1164.63 40.46C1164.63 41.1267 1164.8 41.74 1165.13 42.3C1165.48 42.86 1165.93 43.3067 1166.49 43.64C1167.07 43.9733 1167.69 44.14 1168.35 44.14C1169.03 44.14 1169.65 43.9733 1170.21 43.64C1170.77 43.3067 1171.22 42.86 1171.55 42.3C1171.89 41.74 1172.05 41.1267 1172.05 40.46C1172.05 39.7933 1171.89 39.18 1171.55 38.62C1171.22 38.06 1170.77 37.6133 1170.19 37.28C1169.63 36.9467 1169.02 36.78 1168.35 36.78ZM1181.19 42.28C1181.79 42.3733 1182.31 42.5867 1182.73 42.92C1183.16 43.2533 1183.49 43.6733 1183.73 44.18C1183.97 44.6867 1184.09 45.26 1184.09 45.9C1184.09 46.7 1183.9 47.4067 1183.51 48.02C1183.13 48.6333 1182.59 49.1067 1181.89 49.44C1181.2 49.7733 1180.39 49.94 1179.47 49.94C1178.46 49.94 1177.57 49.7333 1176.81 49.32C1176.05 48.92 1175.48 48.36 1175.09 47.64L1176.03 46.78C1176.33 47.3533 1176.76 47.8133 1177.33 48.16C1177.91 48.52 1178.62 48.7 1179.47 48.7C1180.46 48.7 1181.24 48.4533 1181.81 47.96C1182.4 47.48 1182.69 46.7867 1182.69 45.88C1182.69 44.9733 1182.39 44.2533 1181.77 43.72C1181.17 43.1733 1180.31 42.9 1179.19 42.9H1178.69V41.74H1179.23C1180.26 41.74 1181.05 41.5 1181.59 41.02C1182.14 40.54 1182.41 39.9267 1182.41 39.18C1182.41 38.6333 1182.29 38.18 1182.03 37.82C1181.78 37.46 1181.43 37.1867 1180.99 37C1180.57 36.8133 1180.07 36.72 1179.51 36.72C1178.75 36.72 1178.08 36.8933 1177.49 37.24C1176.92 37.5733 1176.49 38.04 1176.19 38.64L1175.31 37.8C1175.54 37.3333 1175.87 36.9267 1176.29 36.58C1176.72 36.2333 1177.22 35.9667 1177.79 35.78C1178.37 35.58 1178.98 35.48 1179.63 35.48C1180.46 35.48 1181.19 35.6333 1181.81 35.94C1182.44 36.2333 1182.93 36.6467 1183.29 37.18C1183.65 37.7133 1183.83 38.34 1183.83 39.06C1183.83 39.5933 1183.73 40.0867 1183.51 40.54C1183.3 40.9933 1182.99 41.3733 1182.59 41.68C1182.21 41.9867 1181.74 42.1867 1181.19 42.28ZM1192.14 49.54V45.98H1185.48V44.78L1192.58 35.58H1193.5V44.74H1195.26V45.98H1193.5V49.54H1192.14ZM1186.92 44.74H1192.28V37.72L1186.92 44.74ZM1207.89 42.28C1208.49 42.3733 1209 42.5867 1209.43 42.92C1209.86 43.2533 1210.19 43.6733 1210.43 44.18C1210.67 44.6867 1210.79 45.26 1210.79 45.9C1210.79 46.7 1210.6 47.4067 1210.21 48.02C1209.82 48.6333 1209.28 49.1067 1208.59 49.44C1207.9 49.7733 1207.09 49.94 1206.17 49.94C1205.16 49.94 1204.27 49.7333 1203.51 49.32C1202.75 48.92 1202.18 48.36 1201.79 47.64L1202.73 46.78C1203.02 47.3533 1203.46 47.8133 1204.03 48.16C1204.6 48.52 1205.32 48.7 1206.17 48.7C1207.16 48.7 1207.94 48.4533 1208.51 47.96C1209.1 47.48 1209.39 46.7867 1209.39 45.88C1209.39 44.9733 1209.08 44.2533 1208.47 43.72C1207.87 43.1733 1207.01 42.9 1205.89 42.9H1205.39V41.74H1205.93C1206.96 41.74 1207.74 41.5 1208.29 41.02C1208.84 40.54 1209.11 39.9267 1209.11 39.18C1209.11 38.6333 1208.98 38.18 1208.73 37.82C1208.48 37.46 1208.13 37.1867 1207.69 37C1207.26 36.8133 1206.77 36.72 1206.21 36.72C1205.45 36.72 1204.78 36.8933 1204.19 37.24C1203.62 37.5733 1203.18 38.04 1202.89 38.64L1202.01 37.8C1202.24 37.3333 1202.56 36.9267 1202.99 36.58C1203.42 36.2333 1203.92 35.9667 1204.49 35.78C1205.06 35.58 1205.68 35.48 1206.33 35.48C1207.16 35.48 1207.88 35.6333 1208.51 35.94C1209.14 36.2333 1209.63 36.6467 1209.99 37.18C1210.35 37.7133 1210.53 38.34 1210.53 39.06C1210.53 39.5933 1210.42 40.0867 1210.21 40.54C1210 40.9933 1209.69 41.3733 1209.29 41.68C1208.9 41.9867 1208.44 42.1867 1207.89 42.28ZM1218.83 49.54V45.98H1212.17V44.78L1219.27 35.58H1220.19V44.74H1221.95V45.98H1220.19V49.54H1218.83ZM1213.61 44.74H1218.97V37.72L1213.61 44.74ZM1223.35 40.46C1223.35 39.5533 1223.57 38.7333 1224.01 38C1224.47 37.2667 1225.07 36.68 1225.83 36.24C1226.61 35.8 1227.46 35.58 1228.39 35.58C1229.39 35.58 1230.27 35.82 1231.03 36.3C1231.81 36.7667 1232.41 37.4467 1232.83 38.34C1233.27 39.22 1233.49 40.28 1233.49 41.52C1233.49 43.4533 1233.27 45.0533 1232.83 46.32C1232.39 47.5733 1231.78 48.5133 1230.99 49.14C1230.21 49.7667 1229.29 50.08 1228.25 50.08C1227.32 50.08 1226.47 49.84 1225.71 49.36C1224.97 48.8933 1224.4 48.2533 1224.01 47.44L1224.89 46.64C1225.17 47.3067 1225.62 47.8467 1226.23 48.26C1226.85 48.6733 1227.52 48.88 1228.25 48.88C1229.05 48.88 1229.74 48.6333 1230.31 48.14C1230.9 47.6467 1231.35 46.94 1231.67 46.02C1232.01 45.1 1232.18 43.9867 1232.19 42.68C1232.01 43.1867 1231.71 43.64 1231.31 44.04C1230.91 44.4267 1230.45 44.7267 1229.93 44.94C1229.41 45.1533 1228.85 45.26 1228.23 45.26C1227.34 45.26 1226.52 45.0467 1225.77 44.62C1225.03 44.1933 1224.43 43.62 1223.99 42.9C1223.57 42.1667 1223.35 41.3533 1223.35 40.46ZM1228.37 36.78C1227.69 36.78 1227.07 36.9467 1226.51 37.28C1225.95 37.6133 1225.5 38.06 1225.15 38.62C1224.82 39.1667 1224.65 39.78 1224.65 40.46C1224.65 41.1267 1224.82 41.74 1225.15 42.3C1225.5 42.86 1225.95 43.3067 1226.51 43.64C1227.09 43.9733 1227.71 44.14 1228.37 44.14C1229.05 44.14 1229.67 43.9733 1230.23 43.64C1230.79 43.3067 1231.24 42.86 1231.57 42.3C1231.91 41.74 1232.07 41.1267 1232.07 40.46C1232.07 39.7933 1231.91 39.18 1231.57 38.62C1231.24 38.06 1230.79 37.6133 1230.21 37.28C1229.65 36.9467 1229.04 36.78 1228.37 36.78ZM1235.65 42.18V40.92H1241.49V42.18H1235.65ZM1249.77 49.54V45.98H1243.11V44.78L1250.21 35.58H1251.13V44.74H1252.89V45.98H1251.13V49.54H1249.77ZM1244.55 44.74H1249.91V37.72L1244.55 44.74ZM1260.43 42.28C1261.03 42.3733 1261.54 42.5867 1261.97 42.92C1262.4 43.2533 1262.73 43.6733 1262.97 44.18C1263.21 44.6867 1263.33 45.26 1263.33 45.9C1263.33 46.7 1263.14 47.4067 1262.75 48.02C1262.36 48.6333 1261.82 49.1067 1261.13 49.44C1260.44 49.7733 1259.63 49.94 1258.71 49.94C1257.7 49.94 1256.81 49.7333 1256.05 49.32C1255.29 48.92 1254.72 48.36 1254.33 47.64L1255.27 46.78C1255.56 47.3533 1256 47.8133 1256.57 48.16C1257.14 48.52 1257.86 48.7 1258.71 48.7C1259.7 48.7 1260.48 48.4533 1261.05 47.96C1261.64 47.48 1261.93 46.7867 1261.93 45.88C1261.93 44.9733 1261.62 44.2533 1261.01 43.72C1260.41 43.1733 1259.55 42.9 1258.43 42.9H1257.93V41.74H1258.47C1259.5 41.74 1260.28 41.5 1260.83 41.02C1261.38 40.54 1261.65 39.9267 1261.65 39.18C1261.65 38.6333 1261.52 38.18 1261.27 37.82C1261.02 37.46 1260.67 37.1867 1260.23 37C1259.8 36.8133 1259.31 36.72 1258.75 36.72C1257.99 36.72 1257.32 36.8933 1256.73 37.24C1256.16 37.5733 1255.72 38.04 1255.43 38.64L1254.55 37.8C1254.78 37.3333 1255.1 36.9267 1255.53 36.58C1255.96 36.2333 1256.46 35.9667 1257.03 35.78C1257.6 35.58 1258.22 35.48 1258.87 35.48C1259.7 35.48 1260.42 35.6333 1261.05 35.94C1261.68 36.2333 1262.17 36.6467 1262.53 37.18C1262.89 37.7133 1263.07 38.34 1263.07 39.06C1263.07 39.5933 1262.96 40.0867 1262.75 40.54C1262.54 40.9933 1262.23 41.3733 1261.83 41.68C1261.44 41.9867 1260.98 42.1867 1260.43 42.28ZM1265.55 42.18V40.92H1271.39V42.18H1265.55ZM1273.49 47C1273.49 46.5467 1273.53 46.0933 1273.61 45.64C1273.69 45.1733 1273.85 44.7133 1274.07 44.26C1274.3 43.8067 1274.63 43.3733 1275.07 42.96C1275.51 42.5333 1276.09 42.1333 1276.81 41.76C1277.2 41.56 1277.6 41.3667 1278.01 41.18C1278.43 40.98 1278.81 40.7667 1279.17 40.54C1279.55 40.3 1279.84 40.0333 1280.05 39.74C1280.28 39.4333 1280.39 39.0733 1280.39 38.66C1280.39 38.3267 1280.29 38 1280.09 37.68C1279.91 37.36 1279.61 37.1 1279.21 36.9C1278.83 36.7 1278.34 36.6 1277.75 36.6C1277.33 36.6 1276.94 36.66 1276.59 36.78C1276.25 36.9 1275.94 37.0533 1275.67 37.24C1275.41 37.4133 1275.18 37.5933 1274.99 37.78C1274.81 37.9533 1274.65 38.1 1274.53 38.22L1273.67 37.28C1273.74 37.2 1273.89 37.06 1274.11 36.86C1274.35 36.6467 1274.65 36.4267 1275.01 36.2C1275.39 35.9733 1275.82 35.78 1276.31 35.62C1276.82 35.46 1277.37 35.38 1277.97 35.38C1278.79 35.38 1279.48 35.5267 1280.05 35.82C1280.64 36.1 1281.09 36.48 1281.39 36.96C1281.7 37.44 1281.85 37.96 1281.85 38.52C1281.85 39.0667 1281.73 39.54 1281.49 39.94C1281.27 40.3267 1280.97 40.6667 1280.59 40.96C1280.23 41.24 1279.85 41.4867 1279.45 41.7C1279.07 41.9 1278.71 42.0733 1278.39 42.22C1277.77 42.5133 1277.24 42.8067 1276.81 43.1C1276.39 43.3933 1276.05 43.6933 1275.79 44C1275.54 44.2933 1275.34 44.5867 1275.19 44.88C1275.06 45.16 1274.97 45.4533 1274.91 45.76H1282.07V47H1273.49ZM1289.9 42.28C1290.5 42.3733 1291.02 42.5867 1291.44 42.92C1291.87 43.2533 1292.2 43.6733 1292.44 44.18C1292.68 44.6867 1292.8 45.26 1292.8 45.9C1292.8 46.7 1292.61 47.4067 1292.22 48.02C1291.84 48.6333 1291.3 49.1067 1290.6 49.44C1289.91 49.7733 1289.1 49.94 1288.18 49.94C1287.17 49.94 1286.28 49.7333 1285.52 49.32C1284.76 48.92 1284.19 48.36 1283.8 47.64L1284.74 46.78C1285.04 47.3533 1285.47 47.8133 1286.04 48.16C1286.62 48.52 1287.33 48.7 1288.18 48.7C1289.17 48.7 1289.95 48.4533 1290.52 47.96C1291.11 47.48 1291.4 46.7867 1291.4 45.88C1291.4 44.9733 1291.1 44.2533 1290.48 43.72C1289.88 43.1733 1289.02 42.9 1287.9 42.9H1287.4V41.74H1287.94C1288.97 41.74 1289.76 41.5 1290.3 41.02C1290.85 40.54 1291.12 39.9267 1291.12 39.18C1291.12 38.6333 1291 38.18 1290.74 37.82C1290.49 37.46 1290.14 37.1867 1289.7 37C1289.28 36.8133 1288.78 36.72 1288.22 36.72C1287.46 36.72 1286.79 36.8933 1286.2 37.24C1285.63 37.5733 1285.2 38.04 1284.9 38.64L1284.02 37.8C1284.25 37.3333 1284.58 36.9267 1285 36.58C1285.43 36.2333 1285.93 35.9667 1286.5 35.78C1287.08 35.58 1287.69 35.48 1288.34 35.48C1289.17 35.48 1289.9 35.6333 1290.52 35.94C1291.15 36.2333 1291.64 36.6467 1292 37.18C1292.36 37.7133 1292.54 38.34 1292.54 39.06C1292.54 39.5933 1292.44 40.0867 1292.22 40.54C1292.01 40.9933 1291.7 41.3733 1291.3 41.68C1290.92 41.9867 1290.45 42.1867 1289.9 42.28Z" fill="#292929"/>
<path d="M1421.88 47C1421.88 46.5467 1421.92 46.0933 1422 45.64C1422.08 45.1733 1422.23 44.7133 1422.46 44.26C1422.69 43.8067 1423.02 43.3733 1423.46 42.96C1423.9 42.5333 1424.48 42.1333 1425.2 41.76C1425.59 41.56 1425.99 41.3667 1426.4 41.18C1426.81 40.98 1427.2 40.7667 1427.56 40.54C1427.93 40.3 1428.23 40.0333 1428.44 39.74C1428.67 39.4333 1428.78 39.0733 1428.78 38.66C1428.78 38.3267 1428.68 38 1428.48 37.68C1428.29 37.36 1428 37.1 1427.6 36.9C1427.21 36.7 1426.73 36.6 1426.14 36.6C1425.71 36.6 1425.33 36.66 1424.98 36.78C1424.63 36.9 1424.33 37.0533 1424.06 37.24C1423.79 37.4133 1423.57 37.5933 1423.38 37.78C1423.19 37.9533 1423.04 38.1 1422.92 38.22L1422.06 37.28C1422.13 37.2 1422.27 37.06 1422.5 36.86C1422.74 36.6467 1423.04 36.4267 1423.4 36.2C1423.77 35.9733 1424.21 35.78 1424.7 35.62C1425.21 35.46 1425.76 35.38 1426.36 35.38C1427.17 35.38 1427.87 35.5267 1428.44 35.82C1429.03 36.1 1429.47 36.48 1429.78 36.96C1430.09 37.44 1430.24 37.96 1430.24 38.52C1430.24 39.0667 1430.12 39.54 1429.88 39.94C1429.65 40.3267 1429.35 40.6667 1428.98 40.96C1428.62 41.24 1428.24 41.4867 1427.84 41.7C1427.45 41.9 1427.1 42.0733 1426.78 42.22C1426.15 42.5133 1425.63 42.8067 1425.2 43.1C1424.77 43.3933 1424.43 43.6933 1424.18 44C1423.93 44.2933 1423.73 44.5867 1423.58 44.88C1423.45 45.16 1423.35 45.4533 1423.3 45.76H1430.46V47H1421.88ZM1438.29 42.28C1438.89 42.3733 1439.4 42.5867 1439.83 42.92C1440.26 43.2533 1440.59 43.6733 1440.83 44.18C1441.07 44.6867 1441.19 45.26 1441.19 45.9C1441.19 46.7 1441 47.4067 1440.61 48.02C1440.22 48.6333 1439.68 49.1067 1438.99 49.44C1438.3 49.7733 1437.49 49.94 1436.57 49.94C1435.56 49.94 1434.67 49.7333 1433.91 49.32C1433.15 48.92 1432.58 48.36 1432.19 47.64L1433.13 46.78C1433.42 47.3533 1433.86 47.8133 1434.43 48.16C1435 48.52 1435.72 48.7 1436.57 48.7C1437.56 48.7 1438.34 48.4533 1438.91 47.96C1439.5 47.48 1439.79 46.7867 1439.79 45.88C1439.79 44.9733 1439.48 44.2533 1438.87 43.72C1438.27 43.1733 1437.41 42.9 1436.29 42.9H1435.79V41.74H1436.33C1437.36 41.74 1438.14 41.5 1438.69 41.02C1439.24 40.54 1439.51 39.9267 1439.51 39.18C1439.51 38.6333 1439.38 38.18 1439.13 37.82C1438.88 37.46 1438.53 37.1867 1438.09 37C1437.66 36.8133 1437.17 36.72 1436.61 36.72C1435.85 36.72 1435.18 36.8933 1434.59 37.24C1434.02 37.5733 1433.58 38.04 1433.29 38.64L1432.41 37.8C1432.64 37.3333 1432.96 36.9267 1433.39 36.58C1433.82 36.2333 1434.32 35.9667 1434.89 35.78C1435.46 35.58 1436.08 35.48 1436.73 35.48C1437.56 35.48 1438.28 35.6333 1438.91 35.94C1439.54 36.2333 1440.03 36.6467 1440.39 37.18C1440.75 37.7133 1440.93 38.34 1440.93 39.06C1440.93 39.5933 1440.82 40.0867 1440.61 40.54C1440.4 40.9933 1440.09 41.3733 1439.69 41.68C1439.3 41.9867 1438.84 42.1867 1438.29 42.28ZM1443.41 47V45.04H1444.59V47H1443.41ZM1457.04 41.14C1457.04 42.3133 1456.82 43.36 1456.38 44.28C1455.96 45.1867 1455.36 45.9 1454.6 46.42C1453.84 46.94 1452.98 47.2 1452.02 47.2C1451.06 47.2 1450.2 46.94 1449.44 46.42C1448.7 45.9 1448.1 45.1867 1447.66 44.28C1447.22 43.36 1447 42.3133 1447 41.14C1447 39.9667 1447.22 38.9267 1447.66 38.02C1448.1 37.1 1448.7 36.38 1449.44 35.86C1450.2 35.3267 1451.06 35.06 1452.02 35.06C1452.98 35.06 1453.84 35.3267 1454.6 35.86C1455.36 36.38 1455.96 37.1 1456.38 38.02C1456.82 38.9267 1457.04 39.9667 1457.04 41.14ZM1455.66 41.14C1455.66 40.1933 1455.51 39.36 1455.2 38.64C1454.9 37.92 1454.47 37.36 1453.92 36.96C1453.38 36.5467 1452.74 36.34 1452.02 36.34C1451.3 36.34 1450.67 36.5467 1450.12 36.96C1449.58 37.36 1449.14 37.92 1448.82 38.64C1448.52 39.36 1448.36 40.1933 1448.36 41.14C1448.36 42.0867 1448.52 42.92 1448.82 43.64C1449.14 44.36 1449.58 44.92 1450.12 45.32C1450.67 45.72 1451.3 45.92 1452.02 45.92C1452.74 45.92 1453.38 45.72 1453.92 45.32C1454.47 44.9067 1454.9 44.3467 1455.2 43.64C1455.51 42.92 1455.66 42.0867 1455.66 41.14ZM1458.87 40.46C1458.87 39.5533 1459.09 38.7333 1459.53 38C1459.98 37.2667 1460.59 36.68 1461.35 36.24C1462.12 35.8 1462.98 35.58 1463.91 35.58C1464.91 35.58 1465.79 35.82 1466.55 36.3C1467.32 36.7667 1467.92 37.4467 1468.35 38.34C1468.79 39.22 1469.01 40.28 1469.01 41.52C1469.01 43.4533 1468.79 45.0533 1468.35 46.32C1467.91 47.5733 1467.3 48.5133 1466.51 49.14C1465.72 49.7667 1464.81 50.08 1463.77 50.08C1462.84 50.08 1461.99 49.84 1461.23 49.36C1460.48 48.8933 1459.92 48.2533 1459.53 47.44L1460.41 46.64C1460.69 47.3067 1461.14 47.8467 1461.75 48.26C1462.36 48.6733 1463.04 48.88 1463.77 48.88C1464.57 48.88 1465.26 48.6333 1465.83 48.14C1466.42 47.6467 1466.87 46.94 1467.19 46.02C1467.52 45.1 1467.7 43.9867 1467.71 42.68C1467.52 43.1867 1467.23 43.64 1466.83 44.04C1466.43 44.4267 1465.97 44.7267 1465.45 44.94C1464.93 45.1533 1464.36 45.26 1463.75 45.26C1462.86 45.26 1462.04 45.0467 1461.29 44.62C1460.54 44.1933 1459.95 43.62 1459.51 42.9C1459.08 42.1667 1458.87 41.3533 1458.87 40.46ZM1463.89 36.78C1463.21 36.78 1462.59 36.9467 1462.03 37.28C1461.47 37.6133 1461.02 38.06 1460.67 38.62C1460.34 39.1667 1460.17 39.78 1460.17 40.46C1460.17 41.1267 1460.34 41.74 1460.67 42.3C1461.02 42.86 1461.47 43.3067 1462.03 43.64C1462.6 43.9733 1463.22 44.14 1463.89 44.14C1464.57 44.14 1465.19 43.9733 1465.75 43.64C1466.31 43.3067 1466.76 42.86 1467.09 42.3C1467.42 41.74 1467.59 41.1267 1467.59 40.46C1467.59 39.7933 1467.42 39.18 1467.09 38.62C1466.76 38.06 1466.3 37.6133 1465.73 37.28C1465.17 36.9467 1464.56 36.78 1463.89 36.78ZM1471.17 47V45.04H1472.35V47H1471.17ZM1474.54 47C1474.54 46.5467 1474.58 46.0933 1474.66 45.64C1474.74 45.1733 1474.89 44.7133 1475.12 44.26C1475.34 43.8067 1475.68 43.3733 1476.12 42.96C1476.56 42.5333 1477.14 42.1333 1477.86 41.76C1478.24 41.56 1478.64 41.3667 1479.06 41.18C1479.47 40.98 1479.86 40.7667 1480.22 40.54C1480.59 40.3 1480.88 40.0333 1481.1 39.74C1481.32 39.4333 1481.44 39.0733 1481.44 38.66C1481.44 38.3267 1481.34 38 1481.14 37.68C1480.95 37.36 1480.66 37.1 1480.26 36.9C1479.87 36.7 1479.38 36.6 1478.8 36.6C1478.37 36.6 1477.98 36.66 1477.64 36.78C1477.29 36.9 1476.98 37.0533 1476.72 37.24C1476.45 37.4133 1476.22 37.5933 1476.04 37.78C1475.85 37.9533 1475.7 38.1 1475.58 38.22L1474.72 37.28C1474.78 37.2 1474.93 37.06 1475.16 36.86C1475.4 36.6467 1475.7 36.4267 1476.06 36.2C1476.43 35.9733 1476.86 35.78 1477.36 35.62C1477.86 35.46 1478.42 35.38 1479.02 35.38C1479.83 35.38 1480.52 35.5267 1481.1 35.82C1481.68 36.1 1482.13 36.48 1482.44 36.96C1482.74 37.44 1482.9 37.96 1482.9 38.52C1482.9 39.0667 1482.78 39.54 1482.54 39.94C1482.31 40.3267 1482.01 40.6667 1481.64 40.96C1481.28 41.24 1480.9 41.4867 1480.5 41.7C1480.11 41.9 1479.76 42.0733 1479.44 42.22C1478.81 42.5133 1478.28 42.8067 1477.86 43.1C1477.43 43.3933 1477.09 43.6933 1476.84 44C1476.58 44.2933 1476.38 44.5867 1476.24 44.88C1476.1 45.16 1476.01 45.4533 1475.96 45.76H1483.12V47H1474.54ZM1495.23 41.14C1495.23 42.3133 1495.01 43.36 1494.57 44.28C1494.14 45.1867 1493.55 45.9 1492.79 46.42C1492.03 46.94 1491.17 47.2 1490.21 47.2C1489.25 47.2 1488.39 46.94 1487.63 46.42C1486.88 45.9 1486.29 45.1867 1485.85 44.28C1485.41 43.36 1485.19 42.3133 1485.19 41.14C1485.19 39.9667 1485.41 38.9267 1485.85 38.02C1486.29 37.1 1486.88 36.38 1487.63 35.86C1488.39 35.3267 1489.25 35.06 1490.21 35.06C1491.17 35.06 1492.03 35.3267 1492.79 35.86C1493.55 36.38 1494.14 37.1 1494.57 38.02C1495.01 38.9267 1495.23 39.9667 1495.23 41.14ZM1493.85 41.14C1493.85 40.1933 1493.69 39.36 1493.39 38.64C1493.08 37.92 1492.65 37.36 1492.11 36.96C1491.56 36.5467 1490.93 36.34 1490.21 36.34C1489.49 36.34 1488.85 36.5467 1488.31 36.96C1487.76 37.36 1487.33 37.92 1487.01 38.64C1486.7 39.36 1486.55 40.1933 1486.55 41.14C1486.55 42.0867 1486.7 42.92 1487.01 43.64C1487.33 44.36 1487.76 44.92 1488.31 45.32C1488.85 45.72 1489.49 45.92 1490.21 45.92C1490.93 45.92 1491.56 45.72 1492.11 45.32C1492.65 44.9067 1493.08 44.3467 1493.39 43.64C1493.69 42.92 1493.85 42.0867 1493.85 41.14ZM1507.47 41.14C1507.47 42.3133 1507.25 43.36 1506.81 44.28C1506.39 45.1867 1505.79 45.9 1505.03 46.42C1504.27 46.94 1503.41 47.2 1502.45 47.2C1501.49 47.2 1500.63 46.94 1499.87 46.42C1499.13 45.9 1498.53 45.1867 1498.09 44.28C1497.65 43.36 1497.43 42.3133 1497.43 41.14C1497.43 39.9667 1497.65 38.9267 1498.09 38.02C1498.53 37.1 1499.13 36.38 1499.87 35.86C1500.63 35.3267 1501.49 35.06 1502.45 35.06C1503.41 35.06 1504.27 35.3267 1505.03 35.86C1505.79 36.38 1506.39 37.1 1506.81 38.02C1507.25 38.9267 1507.47 39.9667 1507.47 41.14ZM1506.09 41.14C1506.09 40.1933 1505.94 39.36 1505.63 38.64C1505.33 37.92 1504.9 37.36 1504.35 36.96C1503.81 36.5467 1503.17 36.34 1502.45 36.34C1501.73 36.34 1501.1 36.5467 1500.55 36.96C1500.01 37.36 1499.57 37.92 1499.25 38.64C1498.95 39.36 1498.79 40.1933 1498.79 41.14C1498.79 42.0867 1498.95 42.92 1499.25 43.64C1499.57 44.36 1500.01 44.92 1500.55 45.32C1501.1 45.72 1501.73 45.92 1502.45 45.92C1503.17 45.92 1503.81 45.72 1504.35 45.32C1504.9 44.9067 1505.33 44.3467 1505.63 43.64C1505.94 42.92 1506.09 42.0867 1506.09 41.14ZM1519.72 41.14C1519.72 42.3133 1519.5 43.36 1519.06 44.28C1518.63 45.1867 1518.04 45.9 1517.28 46.42C1516.52 46.94 1515.66 47.2 1514.7 47.2C1513.74 47.2 1512.88 46.94 1512.12 46.42C1511.37 45.9 1510.78 45.1867 1510.34 44.28C1509.9 43.36 1509.68 42.3133 1509.68 41.14C1509.68 39.9667 1509.9 38.9267 1510.34 38.02C1510.78 37.1 1511.37 36.38 1512.12 35.86C1512.88 35.3267 1513.74 35.06 1514.7 35.06C1515.66 35.06 1516.52 35.3267 1517.28 35.86C1518.04 36.38 1518.63 37.1 1519.06 38.02C1519.5 38.9267 1519.72 39.9667 1519.72 41.14ZM1518.34 41.14C1518.34 40.1933 1518.18 39.36 1517.88 38.64C1517.57 37.92 1517.14 37.36 1516.6 36.96C1516.05 36.5467 1515.42 36.34 1514.7 36.34C1513.98 36.34 1513.34 36.5467 1512.8 36.96C1512.25 37.36 1511.82 37.92 1511.5 38.64C1511.19 39.36 1511.04 40.1933 1511.04 41.14C1511.04 42.0867 1511.19 42.92 1511.5 43.64C1511.82 44.36 1512.25 44.92 1512.8 45.32C1513.34 45.72 1513.98 45.92 1514.7 45.92C1515.42 45.92 1516.05 45.72 1516.6 45.32C1517.14 44.9067 1517.57 44.3467 1517.88 43.64C1518.18 42.92 1518.34 42.0867 1518.34 41.14Z" fill="#292929"/>
</svg>
